<svg width="60" height="60" viewBox="0 0 60 60" fill="none" xmlns="http://www.w3.org/2000/svg">
<g filter="url(#filter0_i_1553_9657)">
<rect width="60" height="60" rx="30" fill="#3D308C"/>
<path d="M18.508 34.096C18.316 34.096 18.16 34.052 18.04 33.964C17.928 33.876 17.86 33.76 17.836 33.616C17.812 33.464 17.84 33.296 17.92 33.112L21.088 26.092C21.192 25.86 21.316 25.696 21.46 25.6C21.612 25.496 21.784 25.444 21.976 25.444C22.16 25.444 22.324 25.496 22.468 25.6C22.62 25.696 22.748 25.86 22.852 26.092L26.032 33.112C26.12 33.296 26.152 33.464 26.128 33.616C26.104 33.768 26.036 33.888 25.924 33.976C25.812 34.056 25.664 34.096 25.48 34.096C25.256 34.096 25.08 34.044 24.952 33.94C24.832 33.828 24.724 33.66 24.628 33.436L23.848 31.624L24.496 32.044H19.432L20.08 31.624L19.312 33.436C19.208 33.668 19.1 33.836 18.988 33.94C18.876 34.044 18.716 34.096 18.508 34.096ZM21.952 27.208L20.272 31.204L19.96 30.82H23.968L23.668 31.204L21.976 27.208H21.952ZM31.2459 34.12C30.3099 34.12 29.5179 33.944 28.8699 33.592C28.2299 33.24 27.7419 32.74 27.4059 32.092C27.0699 31.444 26.9019 30.676 26.9019 29.788C26.9019 29.116 26.9979 28.512 27.1899 27.976C27.3899 27.44 27.6739 26.984 28.0419 26.608C28.4179 26.224 28.8739 25.932 29.4099 25.732C29.9459 25.524 30.5539 25.42 31.2339 25.42C31.6819 25.42 32.1299 25.476 32.5779 25.588C33.0339 25.692 33.4619 25.872 33.8619 26.128C33.9979 26.216 34.0859 26.324 34.1259 26.452C34.1739 26.58 34.1819 26.712 34.1499 26.848C34.1179 26.976 34.0579 27.088 33.9699 27.184C33.8819 27.28 33.7699 27.34 33.6339 27.364C33.5059 27.388 33.3619 27.356 33.2019 27.268C32.8979 27.092 32.5899 26.964 32.2779 26.884C31.9659 26.804 31.6179 26.764 31.2339 26.764C30.6419 26.764 30.1419 26.884 29.7339 27.124C29.3259 27.356 29.0179 27.696 28.8099 28.144C28.6099 28.592 28.5099 29.14 28.5099 29.788C28.5099 30.772 28.7459 31.52 29.2179 32.032C29.6899 32.544 30.3899 32.8 31.3179 32.8C31.6379 32.8 31.9619 32.768 32.2899 32.704C32.6179 32.64 32.9379 32.552 33.2499 32.44L32.9499 33.124V30.568H31.6299C31.4299 30.568 31.2739 30.516 31.1619 30.412C31.0579 30.308 31.0059 30.168 31.0059 29.992C31.0059 29.808 31.0579 29.668 31.1619 29.572C31.2739 29.476 31.4299 29.428 31.6299 29.428H33.6099C33.8099 29.428 33.9619 29.484 34.0659 29.596C34.1779 29.7 34.2339 29.852 34.2339 30.052V32.968C34.2339 33.144 34.1979 33.292 34.1259 33.412C34.0619 33.532 33.9539 33.62 33.8019 33.676C33.4499 33.804 33.0459 33.912 32.5899 34C32.1339 34.08 31.6859 34.12 31.2459 34.12ZM36.8298 34C36.5658 34 36.3618 33.932 36.2178 33.796C36.0818 33.652 36.0138 33.448 36.0138 33.184V26.356C36.0138 26.092 36.0818 25.892 36.2178 25.756C36.3618 25.612 36.5658 25.54 36.8298 25.54H41.1138C41.3138 25.54 41.4658 25.592 41.5698 25.696C41.6818 25.8 41.7378 25.948 41.7378 26.14C41.7378 26.34 41.6818 26.496 41.5698 26.608C41.4658 26.712 41.3138 26.764 41.1138 26.764H37.4898V29.092H40.8498C41.0578 29.092 41.2138 29.144 41.3178 29.248C41.4218 29.352 41.4738 29.504 41.4738 29.704C41.4738 29.904 41.4218 30.056 41.3178 30.16C41.2138 30.264 41.0578 30.316 40.8498 30.316H37.4898V32.776H41.1138C41.3138 32.776 41.4658 32.828 41.5698 32.932C41.6818 33.036 41.7378 33.188 41.7378 33.388C41.7378 33.588 41.6818 33.74 41.5698 33.844C41.4658 33.948 41.3138 34 41.1138 34H36.8298Z" fill="#FFCC33"/>
<path fill-rule="evenodd" clip-rule="evenodd" d="M51.1603 29.8789C51.5804 29.8878 51.9151 30.2357 51.8919 30.6553C51.6257 35.4647 49.8006 40.065 46.6819 43.754C43.3993 47.6369 38.8826 50.2747 33.8877 51.2258C28.8928 52.1769 23.7228 51.3836 19.2428 48.9788C14.7629 46.574 11.2447 42.7035 9.27718 38.015C7.30962 33.3264 7.01202 28.1044 8.43416 23.2227C9.85631 18.341 12.9119 14.0959 17.0897 11.1976C21.2674 8.29941 26.3138 6.92394 31.3844 7.3014C36.2017 7.66001 40.7631 9.58011 44.3818 12.7593C44.402 12.7771 44.4209 12.7957 44.4387 12.815L44.4645 9.66993C44.4668 9.3938 44.6925 9.17179 44.9686 9.17406C45.2447 9.17632 45.4667 9.40201 45.4645 9.67814L45.4275 14.178C45.4252 14.4541 45.1996 14.6761 44.9234 14.6739L40.4236 14.6369C40.1474 14.6346 39.9254 14.4089 39.9277 14.1328C39.93 13.8567 40.1557 13.6347 40.4318 13.6369L43.095 13.6588C39.7711 10.8432 35.6339 9.14362 31.2714 8.81887C26.5486 8.46729 21.8483 9.74844 17.957 12.4479C14.0658 15.1474 11.2197 19.1014 9.8951 23.6483C8.57048 28.1952 8.84768 33.0592 10.6803 37.4261C12.5129 41.7931 15.7898 45.3982 19.9625 47.6381C24.1353 49.878 28.9507 50.6168 33.6031 49.731C38.2554 48.8451 42.4623 46.3882 45.5199 42.7716C48.4134 39.3489 50.1115 35.084 50.3696 30.6232C50.3939 30.2037 50.7402 29.8701 51.1603 29.8789Z" fill="#FFCC33"/>
<path fill-rule="evenodd" clip-rule="evenodd" d="M51.3416 29.8181C51.7778 29.8265 52.1255 30.188 52.1005 30.6235C51.8163 35.564 49.9266 40.2919 46.7058 44.0864C43.3138 48.0828 38.651 50.8014 33.4979 51.7872C28.3448 52.773 23.014 51.9663 18.3975 49.5021C13.781 47.0378 10.1589 43.0655 8.13746 38.25C6.11598 33.4344 5.81771 28.0677 7.29256 23.0479C8.76741 18.0281 11.9259 13.6599 16.2395 10.6741C20.5531 7.68837 25.76 6.26628 30.989 6.64582C35.9539 7.00619 40.6527 8.97005 44.3785 12.2282C44.4075 12.2536 44.4341 12.2806 44.4582 12.309L44.4889 9.19122C44.4916 8.91557 44.718 8.69358 44.9947 8.69539C45.2713 8.69721 45.4933 8.92215 45.4906 9.19781L45.4463 13.6899C45.4436 13.9656 45.2171 14.1876 44.9405 14.1858L40.433 14.1561C40.1564 14.1543 39.9343 13.9293 39.937 13.6537C39.9398 13.378 40.1662 13.156 40.4428 13.1579L43.0631 13.1751C39.6388 10.2821 35.3717 8.5392 30.8695 8.21241C26.0007 7.85901 21.1523 9.18315 17.1358 11.9633C13.1193 14.7434 10.1784 18.8108 8.80512 23.4848C7.43185 28.1588 7.70958 33.1559 9.59183 37.6398C11.4741 42.1237 14.8467 45.8224 19.1452 48.1169C23.4437 50.4115 28.4074 51.1626 33.2056 50.2447C38.0038 49.3267 42.3454 46.7954 45.5038 43.0743C48.4921 39.5537 50.2497 35.1702 50.524 30.5877C50.5499 30.1543 50.9075 29.8097 51.3416 29.8181Z" fill="#FFCC33"/>
</g>
<defs>
<filter id="filter0_i_1553_9657" x="0" y="-4" width="60" height="64" filterUnits="userSpaceOnUse" color-interpolation-filters="sRGB">
<feFlood flood-opacity="0" result="BackgroundImageFix"/>
<feBlend mode="normal" in="SourceGraphic" in2="BackgroundImageFix" result="shape"/>
<feColorMatrix in="SourceAlpha" type="matrix" values="0 0 0 0 0 0 0 0 0 0 0 0 0 0 0 0 0 0 127 0" result="hardAlpha"/>
<feOffset dy="-4"/>
<feGaussianBlur stdDeviation="2"/>
<feComposite in2="hardAlpha" operator="arithmetic" k2="-1" k3="1"/>
<feColorMatrix type="matrix" values="0 0 0 0 0 0 0 0 0 0 0 0 0 0 0 0 0 0 0.25 0"/>
<feBlend mode="normal" in2="shape" result="effect1_innerShadow_1553_9657"/>
</filter>
</defs>
</svg>
