<svg width="283" height="282" viewBox="0 0 283 282" fill="none" xmlns="http://www.w3.org/2000/svg">
<g opacity="0.8" filter="url(#filter0_f_1020_12655)">
<circle cx="141.751" cy="141" r="101" fill="#FFCC33"/>
</g>
<g opacity="0.5" filter="url(#filter1_f_1020_12655)">
<circle cx="141.751" cy="141" r="89" fill="#FFCC33"/>
</g>
<g filter="url(#filter2_i_1020_12655)">
<path d="M141.391 236.503C194.49 236.503 237.535 193.479 237.535 140.405C237.535 87.3313 194.49 44.3066 141.391 44.3066C88.2924 44.3066 45.2473 87.3313 45.2473 140.405C45.2473 193.479 88.2924 236.503 141.391 236.503Z" fill="#FFCC33"/>
</g>
<path d="M128.494 138.068C128.858 140.45 129.632 142.759 131.157 144.652C132.534 146.364 134.559 147.462 136.687 147.933C141.198 148.94 146.961 148.32 149.891 144.351C151.427 142.264 151.888 139.592 151.899 137.056C151.91 135.225 149.066 135.225 149.054 137.056C149.054 138.119 148.986 139.023 148.753 140.001C148.52 140.979 148.315 141.536 147.831 142.327C147.046 143.606 145.789 144.493 144.264 144.96C142.336 145.551 140.077 145.636 138.126 145.323C137.199 145.176 136.209 144.891 135.515 144.544C134.673 144.124 134.235 143.805 133.609 143.146C132.215 141.673 131.578 139.484 131.242 137.312C131.128 136.55 130.173 136.134 129.49 136.316C128.676 136.538 128.381 137.306 128.494 138.068Z" fill="#000033"/>
<path fill-rule="evenodd" clip-rule="evenodd" d="M162.111 140.541C161.957 136.686 164.284 134.69 167.697 133.365C169 132.859 170.445 132.217 171.793 132.268C173.449 132.325 175.286 132.78 176.652 133.536C178.239 134.406 179.684 135.651 180.68 136.987C183.052 140.132 180.668 145.011 176.293 146.25C172.294 147.388 168.477 146.802 164.915 145.102C162.998 144.186 162.094 142.367 162.105 140.547L162.111 140.541Z" fill="#D97EB9" stroke="#D97EB9" stroke-miterlimit="10"/>
<path fill-rule="evenodd" clip-rule="evenodd" d="M118.743 140.752C118.795 144.652 115.08 147.615 110.022 147.712C105.528 147.797 101.164 144.527 101.153 141.064C101.153 137.226 105.778 133.803 110.893 133.877C115 133.934 118.692 137.175 118.738 140.752H118.743Z" fill="#D97EB9" stroke="#D97EB9" stroke-miterlimit="10"/>
<path d="M123.539 128.31C126.515 128.31 129.365 125.694 129.228 122.624C129.092 119.553 126.731 116.938 123.539 116.938C120.564 116.938 117.714 119.553 117.85 122.624C117.987 125.694 120.348 128.31 123.539 128.31Z" fill="#000033"/>
<path d="M155.824 128.31C158.8 128.31 161.65 125.694 161.513 122.624C161.377 119.553 159.016 116.938 155.824 116.938C152.849 116.938 149.999 119.553 150.135 122.624C150.272 125.694 152.633 128.31 155.824 128.31Z" fill="#000033"/>
<path d="M124.677 124.33C125.866 124.33 127.01 123.284 126.953 122.055C126.896 120.827 125.951 119.781 124.677 119.781C123.488 119.781 122.345 120.827 122.401 122.055C122.458 123.284 123.403 124.33 124.677 124.33Z" fill="#FFCC33"/>
<path d="M156.962 124.33C158.151 124.33 159.295 123.284 159.238 122.055C159.181 120.827 158.237 119.781 156.962 119.781C155.773 119.781 154.63 120.827 154.687 122.055C154.743 123.284 155.688 124.33 156.962 124.33Z" fill="#FFCC33"/>
<g filter="url(#filter3_i_1020_12655)">
<path d="M232.99 146.961C236.21 147.479 239.521 147.564 242.678 146.626C245.289 145.847 247.69 144.402 249.584 142.435C253.476 138.386 255.131 132.785 255.842 127.344C256.241 124.284 256.303 121.185 256.11 118.109C256.041 116.972 255.194 116.005 254.005 116.005C252.918 116.005 251.826 116.972 251.9 118.109C252.059 120.702 252.042 123.301 251.797 125.888C251.769 126.212 251.729 126.536 251.695 126.86C251.678 127.019 251.655 127.184 251.632 127.344C251.706 126.775 251.633 127.327 251.615 127.429C251.519 128.066 251.411 128.703 251.28 129.334C251.029 130.573 250.711 131.796 250.313 132.996C250.136 133.53 249.931 134.059 249.721 134.582C249.528 135.071 249.914 134.161 249.698 134.639C249.636 134.776 249.573 134.912 249.51 135.049C249.363 135.367 249.209 135.68 249.044 135.987C248.794 136.464 248.521 136.931 248.23 137.386C248.071 137.63 247.912 137.869 247.741 138.108C247.656 138.227 247.571 138.341 247.485 138.46C247.809 138.011 247.542 138.386 247.462 138.489C247.104 138.932 246.717 139.359 246.308 139.757C246.103 139.956 245.892 140.149 245.682 140.337C245.545 140.456 244.846 140.979 245.329 140.638C244.857 140.974 244.385 141.298 243.884 141.582C243.674 141.701 243.457 141.815 243.235 141.923C243.105 141.991 242.968 142.048 242.837 142.111C242.627 142.202 242.655 142.191 242.928 142.077C242.837 142.117 242.741 142.151 242.65 142.19C242.024 142.435 241.381 142.634 240.732 142.788C240.363 142.873 239.993 142.947 239.623 143.009C239.526 143.026 238.974 143.083 239.521 143.026C239.293 143.049 239.071 143.078 238.844 143.095C238.07 143.157 237.285 143.169 236.511 143.134C236.062 143.117 235.618 143.083 235.169 143.038C234.969 143.021 234.77 142.998 234.577 142.97C235.015 143.021 234.201 142.913 234.122 142.896C233.001 142.714 231.852 143.186 231.528 144.368C231.254 145.369 231.869 146.779 233.001 146.961H232.99Z" fill="#D97EB9"/>
<path d="M253.777 117.904C253.197 117.267 252.27 116.966 251.485 116.687C250.7 116.409 249.92 116.187 249.164 115.874L249.516 116.022C249.329 115.942 249.135 115.857 248.959 115.755C248.89 115.715 248.822 115.664 248.754 115.624C249.186 115.886 248.976 115.812 248.851 115.675C248.327 115.101 247.281 115.107 246.763 115.675C246.2 116.289 246.205 117.154 246.763 117.762C247.32 118.37 248.27 118.7 249.055 118.979C249.841 119.258 250.62 119.479 251.377 119.792L251.024 119.644C251.212 119.724 251.405 119.809 251.581 119.911C251.65 119.951 251.718 120.002 251.786 120.042C251.354 119.781 251.564 119.855 251.689 119.991C252.213 120.565 253.26 120.56 253.777 119.991C254.341 119.377 254.335 118.513 253.777 117.904Z" fill="#D97EB9"/>
<path d="M255.524 118.558C255.348 117.944 255.211 117.324 255.103 116.699C255.08 116.557 255.057 116.414 255.035 116.272C255.074 116.562 255.012 116.079 255.006 116.022C254.972 115.715 254.944 115.402 254.921 115.09C254.835 113.85 254.835 112.61 254.835 111.371C254.835 110.597 254.153 109.858 253.356 109.892C252.56 109.926 251.877 110.541 251.877 111.371C251.877 114.049 251.923 116.75 252.668 119.343C252.878 120.088 253.72 120.622 254.488 120.372C255.256 120.122 255.751 119.349 255.518 118.552L255.524 118.558Z" fill="#D97EB9"/>
<path d="M255.376 119.695C256.736 117.375 258.442 115.277 259.802 112.957C260.194 112.292 259.978 111.308 259.273 110.933C258.567 110.557 257.668 110.751 257.247 111.462C255.888 113.782 254.181 115.88 252.822 118.2C252.429 118.865 252.645 119.849 253.351 120.224C254.056 120.599 254.955 120.406 255.376 119.695Z" fill="#D97EB9"/>
<path d="M254.841 120.429C257.435 120.429 260.513 120.094 262.356 118.041C262.874 117.466 262.965 116.511 262.356 115.954C261.793 115.436 260.815 115.34 260.269 115.954C260.177 116.051 260.092 116.147 259.995 116.238C259.944 116.289 259.887 116.335 259.83 116.386C259.683 116.523 259.87 116.335 259.921 116.318C259.819 116.346 259.688 116.483 259.591 116.54C259.478 116.608 259.364 116.676 259.244 116.739C259.176 116.773 259.114 116.807 259.045 116.841C259 116.864 258.801 116.943 259.017 116.858C259.245 116.767 258.989 116.869 258.943 116.886C258.886 116.909 258.829 116.932 258.772 116.949C258.494 117.046 258.209 117.125 257.925 117.194C257.64 117.262 257.367 117.313 257.088 117.353C257.037 117.358 256.815 117.393 257.049 117.358C257.299 117.324 257.02 117.358 256.963 117.37C256.821 117.387 256.679 117.398 256.542 117.41C255.979 117.455 255.416 117.472 254.853 117.472C254.079 117.472 253.339 118.149 253.373 118.951C253.408 119.752 254.022 120.429 254.853 120.429H254.841Z" fill="#D97EB9"/>
<path d="M48.6663 142.901C48.4615 142.935 48.2567 142.964 48.0518 142.992C48.507 142.93 47.8528 143.009 47.813 143.015C47.4261 143.055 47.0392 143.089 46.6524 143.112C45.9242 143.151 45.1903 143.157 44.4621 143.123C44.1151 143.106 43.7737 143.072 43.4324 143.043C42.8635 142.998 43.8819 143.123 43.33 143.032C43.165 143.004 43.0057 142.981 42.8464 142.952C42.2206 142.839 41.6062 142.691 41.0032 142.497C40.713 142.407 40.4229 142.304 40.1384 142.196C40.036 142.156 39.5752 141.935 40.0873 142.179C39.9507 142.117 39.8199 142.06 39.6834 141.991C39.16 141.741 38.6479 141.451 38.1644 141.133C37.9254 140.974 37.6922 140.803 37.4589 140.638C37.9539 140.991 37.3281 140.53 37.2144 140.433C36.7422 140.035 36.2984 139.597 35.8831 139.143C35.7067 138.949 35.5361 138.75 35.3711 138.546C35.2972 138.455 35.2232 138.358 35.1436 138.267C35.502 138.716 35.1891 138.324 35.1265 138.233C34.7567 137.721 34.4096 137.187 34.0967 136.641C33.8237 136.169 33.5734 135.685 33.3401 135.191C33.2719 135.048 32.8964 134.178 33.1239 134.73C33.0045 134.446 32.8964 134.161 32.7883 133.877C32.3503 132.706 31.9975 131.5 31.7131 130.278C31.5652 129.652 31.44 129.021 31.3319 128.39C31.2864 128.123 31.2409 127.861 31.2011 127.594C31.1783 127.434 31.1555 127.275 31.1328 127.11C31.2181 127.702 31.1158 126.974 31.1044 126.866C30.7574 123.966 30.7175 121.032 30.8938 118.115C30.9621 116.977 29.8755 116.011 28.7889 116.011C27.5885 116.011 26.7523 116.977 26.684 118.115C26.3427 123.596 26.7295 129.351 28.5727 134.559C30.416 139.768 33.8408 144.3 39.1713 146.313C42.562 147.592 46.2712 147.536 49.7984 146.967C50.9248 146.785 51.5506 145.386 51.2718 144.374C50.9419 143.18 49.8097 142.725 48.6776 142.901H48.6663Z" fill="#D97EB9"/>
<path d="M31.0874 119.997C31.1443 119.934 31.3718 119.752 31.1101 119.951C30.8484 120.15 31.1158 119.957 31.1955 119.917C31.3718 119.815 31.5652 119.73 31.753 119.65L31.4002 119.798C32.1569 119.485 32.9477 119.258 33.7214 118.985C34.4951 118.712 35.4394 118.405 36.014 117.768C36.5317 117.194 36.6227 116.238 36.014 115.681C35.4451 115.163 34.478 115.073 33.9262 115.681C33.8693 115.743 33.6417 115.925 33.9034 115.726C34.1651 115.527 33.8977 115.721 33.8181 115.766C33.6417 115.869 33.4483 115.954 33.2606 116.033L33.6133 115.886C32.8566 116.198 32.0659 116.426 31.2922 116.699C30.5185 116.972 29.5741 117.279 28.9995 117.916C28.4818 118.49 28.3908 119.445 28.9995 120.003C29.5684 120.52 30.5356 120.611 31.0874 120.003V119.997Z" fill="#D97EB9"/>
<path d="M30.1033 119.343C30.8486 116.75 30.894 114.043 30.894 111.371C30.894 110.597 30.2113 109.858 29.4149 109.892C28.6184 109.926 27.9358 110.541 27.9358 111.371C27.9358 112.61 27.9358 113.85 27.8504 115.09C27.8277 115.374 27.8049 115.664 27.7765 115.948C27.7651 116.045 27.7537 116.141 27.7424 116.232C27.7196 116.392 27.7196 116.426 27.731 116.323C27.7423 116.221 27.7423 116.25 27.7196 116.414C27.7025 116.511 27.6912 116.608 27.6741 116.699C27.5717 117.324 27.4294 117.944 27.2531 118.558C27.0426 119.303 27.5148 120.201 28.2828 120.378C29.0508 120.554 29.8757 120.139 30.1033 119.349V119.343Z" fill="#D97EB9"/>
<path d="M29.9497 118.206C28.5843 115.886 26.8833 113.787 25.5236 111.467C25.1311 110.802 24.1754 110.506 23.4984 110.939C22.8214 111.371 22.5483 112.246 22.9693 112.963C24.3347 115.283 26.0356 117.381 27.3953 119.701C27.7879 120.366 28.7436 120.662 29.4206 120.23C30.0976 119.798 30.3707 118.922 29.9497 118.206Z" fill="#D97EB9"/>
<path d="M27.9357 117.472C27.3895 117.472 26.8377 117.455 26.2916 117.41C26.1493 117.398 26.0071 117.387 25.8706 117.37C25.7966 117.364 25.7056 117.336 25.6373 117.341C25.6999 117.336 25.9559 117.387 25.7511 117.353C25.4553 117.307 25.1594 117.256 24.8693 117.182C24.5962 117.12 24.3289 117.04 24.0615 116.949C23.942 116.909 23.7998 116.818 23.6746 116.801C23.7372 116.807 23.9591 116.932 23.777 116.841C23.7088 116.807 23.6405 116.778 23.5722 116.744C23.3333 116.619 23.1171 116.477 22.8895 116.329C22.7359 116.227 23.1171 116.522 22.9806 116.397C22.9294 116.346 22.8668 116.301 22.8156 116.255C22.7075 116.159 22.6051 116.051 22.5084 115.942C21.9907 115.362 20.9382 115.374 20.4205 115.942C19.8516 116.557 19.8687 117.415 20.4205 118.029C22.2638 120.088 25.3415 120.418 27.9357 120.418C28.7094 120.418 29.4489 119.735 29.4148 118.939C29.3807 118.143 28.7663 117.461 27.9357 117.461V117.472Z" fill="#D97EB9"/>
</g>
<defs>
<filter id="filter0_f_1020_12655" x="0.751221" y="0" width="282" height="282" filterUnits="userSpaceOnUse" color-interpolation-filters="sRGB">
<feFlood flood-opacity="0" result="BackgroundImageFix"/>
<feBlend mode="normal" in="SourceGraphic" in2="BackgroundImageFix" result="shape"/>
<feGaussianBlur stdDeviation="20" result="effect1_foregroundBlur_1020_12655"/>
</filter>
<filter id="filter1_f_1020_12655" x="12.7512" y="12.0002" width="258" height="258" filterUnits="userSpaceOnUse" color-interpolation-filters="sRGB">
<feFlood flood-opacity="0" result="BackgroundImageFix"/>
<feBlend mode="normal" in="SourceGraphic" in2="BackgroundImageFix" result="shape"/>
<feGaussianBlur stdDeviation="20" result="effect1_foregroundBlur_1020_12655"/>
</filter>
<filter id="filter2_i_1020_12655" x="45.2473" y="36.3066" width="192.288" height="200.197" filterUnits="userSpaceOnUse" color-interpolation-filters="sRGB">
<feFlood flood-opacity="0" result="BackgroundImageFix"/>
<feBlend mode="normal" in="SourceGraphic" in2="BackgroundImageFix" result="shape"/>
<feColorMatrix in="SourceAlpha" type="matrix" values="0 0 0 0 0 0 0 0 0 0 0 0 0 0 0 0 0 0 127 0" result="hardAlpha"/>
<feOffset dy="-8"/>
<feGaussianBlur stdDeviation="4"/>
<feComposite in2="hardAlpha" operator="arithmetic" k2="-1" k3="1"/>
<feColorMatrix type="matrix" values="0 0 0 0 0 0 0 0 0 0 0 0 0 0 0 0 0 0 0.25 0"/>
<feBlend mode="normal" in2="shape" result="effect1_innerShadow_1020_12655"/>
</filter>
<filter id="filter3_i_1020_12655" x="20.0002" y="107.891" width="242.779" height="39.4604" filterUnits="userSpaceOnUse" color-interpolation-filters="sRGB">
<feFlood flood-opacity="0" result="BackgroundImageFix"/>
<feBlend mode="normal" in="SourceGraphic" in2="BackgroundImageFix" result="shape"/>
<feColorMatrix in="SourceAlpha" type="matrix" values="0 0 0 0 0 0 0 0 0 0 0 0 0 0 0 0 0 0 127 0" result="hardAlpha"/>
<feOffset dy="-2"/>
<feGaussianBlur stdDeviation="2"/>
<feComposite in2="hardAlpha" operator="arithmetic" k2="-1" k3="1"/>
<feColorMatrix type="matrix" values="0 0 0 0 0 0 0 0 0 0 0 0 0 0 0 0 0 0 0.25 0"/>
<feBlend mode="normal" in2="shape" result="effect1_innerShadow_1020_12655"/>
</filter>
</defs>
</svg>
