<svg width="282" height="282" viewBox="0 0 282 282" fill="none" xmlns="http://www.w3.org/2000/svg">
<g opacity="0.8" filter="url(#filter0_f_1020_12297)">
<circle cx="141" cy="141" r="101" fill="#FAFAFA"/>
</g>
<g opacity="0.5" filter="url(#filter1_f_1020_12297)">
<circle cx="141" cy="141" r="89" fill="#FFCC33"/>
</g>
<g filter="url(#filter2_i_1020_12297)">
<path d="M140.64 236.503C193.739 236.503 236.784 193.478 236.784 140.405C236.784 87.3311 193.739 44.3064 140.64 44.3064C87.5412 44.3064 44.4961 87.3311 44.4961 140.405C44.4961 193.478 87.5412 236.503 140.64 236.503Z" fill="#FAFAFA"/>
</g>
<path d="M127.743 138.068C128.107 140.45 128.881 142.759 130.406 144.652C131.782 146.364 133.808 147.461 135.935 147.933C140.447 148.94 146.21 148.32 149.139 144.351C150.675 142.264 151.136 139.591 151.148 137.055C151.159 135.224 148.315 135.224 148.303 137.055C148.303 138.119 148.235 139.023 148.002 140.001C147.768 140.979 147.564 141.536 147.08 142.327C146.295 143.606 145.038 144.493 143.513 144.959C141.584 145.551 139.326 145.636 137.375 145.323C136.447 145.175 135.457 144.891 134.763 144.544C133.921 144.123 133.483 143.805 132.858 143.145C131.464 141.673 130.827 139.483 130.491 137.311C130.377 136.549 129.421 136.134 128.739 136.316C127.925 136.538 127.629 137.306 127.743 138.068Z" fill="#000033"/>
<path fill-rule="evenodd" clip-rule="evenodd" d="M161.359 140.541C161.206 136.686 163.532 134.69 166.946 133.365C168.249 132.859 169.694 132.216 171.042 132.268C172.697 132.324 174.535 132.779 175.9 133.536C177.488 134.406 178.933 135.651 179.928 136.987C182.3 140.132 179.917 145.01 175.542 146.25C171.543 147.387 167.725 146.802 164.164 145.101C162.247 144.186 161.342 142.366 161.354 140.547L161.359 140.541Z" fill="#D97EB9" stroke="#D97EB9" stroke-miterlimit="10"/>
<path fill-rule="evenodd" clip-rule="evenodd" d="M117.992 140.751C118.043 144.652 114.329 147.615 109.271 147.711C104.777 147.797 100.413 144.527 100.402 141.064C100.402 137.226 105.027 133.803 110.141 133.877C114.249 133.934 117.941 137.175 117.987 140.751H117.992Z" fill="#D97EB9" stroke="#D97EB9" stroke-miterlimit="10"/>
<path d="M122.788 128.31C125.763 128.31 128.613 125.694 128.477 122.624C128.34 119.553 125.979 116.937 122.788 116.937C119.813 116.937 116.962 119.553 117.099 122.624C117.235 125.694 119.596 128.31 122.788 128.31Z" fill="#000033"/>
<path d="M155.073 128.31C158.048 128.31 160.899 125.694 160.762 122.624C160.626 119.553 158.265 116.937 155.073 116.937C152.098 116.937 149.248 119.553 149.384 122.624C149.521 125.694 151.882 128.31 155.073 128.31Z" fill="#000033"/>
<path d="M123.926 124.33C125.115 124.33 126.259 123.283 126.202 122.055C126.145 120.827 125.2 119.781 123.926 119.781C122.737 119.781 121.594 120.827 121.65 122.055C121.707 123.283 122.652 124.33 123.926 124.33Z" fill="#FAFAFA"/>
<path d="M156.211 124.33C157.4 124.33 158.543 123.283 158.486 122.055C158.429 120.827 157.485 119.781 156.211 119.781C155.022 119.781 153.878 120.827 153.935 122.055C153.992 123.283 154.936 124.33 156.211 124.33Z" fill="#FAFAFA"/>
<g filter="url(#filter3_i_1020_12297)">
<path d="M232.238 146.961C235.458 147.478 238.769 147.564 241.927 146.626C244.538 145.847 246.939 144.402 248.833 142.435C252.724 138.386 254.38 132.785 255.091 127.343C255.489 124.284 255.552 121.185 255.358 118.109C255.29 116.972 254.443 116.005 253.254 116.005C252.167 116.005 251.075 116.972 251.149 118.109C251.308 120.702 251.291 123.3 251.046 125.888C251.018 126.212 250.978 126.536 250.944 126.86C250.927 127.019 250.904 127.184 250.881 127.343C250.955 126.775 250.881 127.326 250.864 127.429C250.767 128.066 250.659 128.702 250.529 129.334C250.278 130.573 249.96 131.796 249.561 132.996C249.385 133.53 249.18 134.059 248.97 134.582C248.776 135.071 249.163 134.161 248.947 134.639C248.884 134.775 248.822 134.912 248.759 135.048C248.611 135.367 248.458 135.679 248.293 135.987C248.042 136.464 247.769 136.93 247.479 137.385C247.32 137.63 247.161 137.869 246.99 138.107C246.905 138.227 246.819 138.341 246.734 138.46C247.058 138.011 246.791 138.386 246.711 138.488C246.353 138.932 245.966 139.358 245.556 139.757C245.352 139.956 245.141 140.149 244.931 140.337C244.794 140.456 244.094 140.979 244.578 140.638C244.106 140.973 243.633 141.298 243.133 141.582C242.922 141.701 242.706 141.815 242.484 141.923C242.353 141.991 242.217 142.048 242.086 142.111C241.876 142.202 241.904 142.19 242.177 142.077C242.086 142.116 241.989 142.15 241.898 142.19C241.273 142.435 240.63 142.634 239.981 142.787C239.611 142.873 239.242 142.947 238.872 143.009C238.775 143.026 238.223 143.083 238.769 143.026C238.542 143.049 238.32 143.077 238.092 143.094C237.319 143.157 236.534 143.168 235.76 143.134C235.31 143.117 234.867 143.083 234.417 143.038C234.218 143.02 234.019 142.998 233.826 142.969C234.264 143.02 233.45 142.912 233.371 142.895C232.25 142.713 231.101 143.185 230.776 144.368C230.503 145.369 231.118 146.779 232.25 146.961H232.238Z" fill="#D97EB9"/>
<path d="M253.026 117.904C252.446 117.267 251.518 116.966 250.733 116.687C249.948 116.408 249.169 116.187 248.412 115.874L248.765 116.022C248.577 115.942 248.384 115.857 248.208 115.755C248.139 115.715 248.071 115.664 248.003 115.624C248.435 115.885 248.225 115.811 248.099 115.675C247.576 115.101 246.529 115.106 246.012 115.675C245.448 116.289 245.454 117.153 246.012 117.762C246.569 118.37 247.519 118.7 248.304 118.979C249.089 119.257 249.869 119.479 250.625 119.792L250.273 119.644C250.46 119.724 250.654 119.809 250.83 119.911C250.898 119.951 250.967 120.002 251.035 120.042C250.603 119.78 250.813 119.854 250.938 119.991C251.462 120.565 252.508 120.559 253.026 119.991C253.589 119.377 253.584 118.512 253.026 117.904Z" fill="#D97EB9"/>
<path d="M254.773 118.558C254.596 117.944 254.46 117.324 254.352 116.699C254.329 116.556 254.306 116.414 254.283 116.272C254.323 116.562 254.261 116.079 254.255 116.022C254.221 115.715 254.192 115.402 254.17 115.089C254.084 113.85 254.084 112.61 254.084 111.37C254.084 110.597 253.402 109.858 252.605 109.892C251.809 109.926 251.126 110.54 251.126 111.37C251.126 114.049 251.171 116.75 251.917 119.343C252.127 120.088 252.969 120.622 253.737 120.372C254.505 120.122 255 119.348 254.767 118.552L254.773 118.558Z" fill="#D97EB9"/>
<path d="M254.625 119.695C255.985 117.375 257.691 115.277 259.051 112.957C259.443 112.292 259.227 111.308 258.522 110.933C257.816 110.557 256.918 110.751 256.497 111.461C255.137 113.781 253.43 115.88 252.071 118.2C251.678 118.865 251.894 119.849 252.6 120.224C253.305 120.599 254.204 120.406 254.625 119.695Z" fill="#D97EB9"/>
<path d="M254.09 120.429C256.684 120.429 259.762 120.093 261.605 118.041C262.123 117.466 262.214 116.511 261.605 115.954C261.042 115.436 260.063 115.34 259.517 115.954C259.426 116.05 259.341 116.147 259.244 116.238C259.193 116.289 259.136 116.335 259.079 116.386C258.931 116.522 259.119 116.335 259.17 116.318C259.068 116.346 258.937 116.482 258.84 116.539C258.726 116.608 258.613 116.676 258.493 116.738C258.425 116.773 258.362 116.807 258.294 116.841C258.249 116.863 258.05 116.943 258.266 116.858C258.493 116.767 258.237 116.869 258.192 116.886C258.135 116.909 258.078 116.932 258.021 116.949C257.742 117.045 257.458 117.125 257.173 117.193C256.889 117.262 256.616 117.313 256.337 117.352C256.286 117.358 256.064 117.392 256.297 117.358C256.548 117.324 256.269 117.358 256.212 117.37C256.07 117.387 255.928 117.398 255.791 117.409C255.228 117.455 254.665 117.472 254.101 117.472C253.328 117.472 252.588 118.149 252.622 118.95C252.656 119.752 253.271 120.429 254.101 120.429H254.09Z" fill="#D97EB9"/>
<path d="M47.9151 142.901C47.7103 142.935 47.5054 142.964 47.3006 142.992C47.7557 142.929 47.1016 143.009 47.0617 143.015C46.6749 143.054 46.288 143.089 45.9012 143.111C45.173 143.151 44.4391 143.157 43.7109 143.123C43.3639 143.106 43.0225 143.072 42.6812 143.043C42.1123 142.998 43.1306 143.123 42.5788 143.032C42.4138 143.003 42.2545 142.981 42.0952 142.952C41.4694 142.838 40.855 142.691 40.252 142.497C39.9618 142.406 39.6717 142.304 39.3872 142.196C39.2848 142.156 38.824 141.934 39.336 142.179C39.1995 142.116 39.0687 142.059 38.9321 141.991C38.4088 141.741 37.8967 141.451 37.4132 141.133C37.1742 140.973 36.941 140.803 36.7077 140.638C37.2027 140.99 36.5769 140.53 36.4631 140.433C35.991 140.035 35.5472 139.597 35.1319 139.142C34.9555 138.949 34.7849 138.75 34.6199 138.545C34.546 138.454 34.472 138.358 34.3923 138.267C34.7507 138.716 34.4378 138.324 34.3753 138.233C34.0055 137.721 33.6584 137.186 33.3455 136.64C33.0724 136.168 32.8221 135.685 32.5889 135.19C32.5206 135.048 32.1452 134.178 32.3727 134.73C32.2532 134.445 32.1452 134.161 32.0371 133.877C31.599 132.705 31.2463 131.5 30.9619 130.277C30.8139 129.652 30.6888 129.021 30.5807 128.39C30.5352 128.122 30.4897 127.861 30.4498 127.593C30.4271 127.434 30.4043 127.275 30.3816 127.11C30.4669 127.702 30.3645 126.974 30.3532 126.866C30.0061 123.966 29.9662 121.031 30.1426 118.114C30.2109 116.977 29.1243 116.01 28.0377 116.01C26.8373 116.01 26.001 116.977 25.9328 118.114C25.5914 123.596 25.9783 129.351 27.8215 134.559C29.6648 139.768 33.0895 144.3 38.4201 146.313C41.8108 147.592 45.52 147.535 49.0472 146.967C50.1736 146.785 50.7994 145.386 50.5206 144.374C50.1907 143.18 49.0585 142.725 47.9264 142.901H47.9151Z" fill="#D97EB9"/>
<path d="M30.3362 119.997C30.3931 119.934 30.6206 119.752 30.3589 119.951C30.0972 120.15 30.3646 119.957 30.4442 119.917C30.6206 119.815 30.814 119.729 31.0017 119.65L30.649 119.798C31.4057 119.485 32.1965 119.257 32.9702 118.984C33.7439 118.711 34.6882 118.404 35.2628 117.768C35.7805 117.193 35.8715 116.238 35.2628 115.681C34.6939 115.163 33.7268 115.072 33.175 115.681C33.1181 115.743 32.8905 115.925 33.1522 115.726C33.4139 115.527 33.1465 115.721 33.0669 115.766C32.8905 115.868 32.6971 115.954 32.5093 116.033L32.8621 115.885C32.1054 116.198 31.3147 116.426 30.541 116.699C29.7673 116.972 28.8229 117.279 28.2483 117.915C27.7306 118.49 27.6396 119.445 28.2483 120.002C28.8172 120.52 29.7843 120.611 30.3362 120.002V119.997Z" fill="#D97EB9"/>
<path d="M29.3521 119.343C30.0973 116.75 30.1428 114.043 30.1428 111.37C30.1428 110.597 29.4601 109.858 28.6637 109.892C27.8672 109.926 27.1845 110.54 27.1845 111.37C27.1845 112.61 27.1846 113.85 27.0992 115.089C27.0765 115.374 27.0537 115.664 27.0253 115.948C27.0139 116.045 27.0025 116.141 26.9911 116.232C26.9684 116.391 26.9684 116.426 26.9797 116.323C26.9911 116.221 26.9911 116.249 26.9684 116.414C26.9513 116.511 26.9399 116.608 26.9229 116.699C26.8205 117.324 26.6782 117.944 26.5019 118.558C26.2914 119.303 26.7635 120.201 27.5316 120.378C28.2996 120.554 29.1245 120.139 29.3521 119.348V119.343Z" fill="#D97EB9"/>
<path d="M29.1985 118.205C27.8331 115.885 26.1321 113.787 24.7724 111.467C24.3799 110.802 23.4241 110.506 22.7471 110.938C22.0702 111.371 21.7971 112.246 22.2181 112.963C23.5834 115.283 25.2844 117.381 26.6441 119.701C27.0366 120.366 27.9924 120.662 28.6694 120.23C29.3464 119.798 29.6195 118.922 29.1985 118.205Z" fill="#D97EB9"/>
<path d="M27.1845 117.472C26.6383 117.472 26.0865 117.455 25.5403 117.409C25.3981 117.398 25.2559 117.387 25.1194 117.369C25.0454 117.364 24.9544 117.335 24.8861 117.341C24.9487 117.335 25.2047 117.387 24.9999 117.352C24.7041 117.307 24.4082 117.256 24.1181 117.182C23.845 117.119 23.5776 117.04 23.3103 116.949C23.1908 116.909 23.0486 116.818 22.9234 116.801C22.986 116.807 23.2079 116.932 23.0258 116.841C22.9575 116.807 22.8893 116.778 22.821 116.744C22.5821 116.619 22.3659 116.477 22.1383 116.329C21.9847 116.227 22.3659 116.522 22.2294 116.397C22.1782 116.346 22.1156 116.3 22.0644 116.255C21.9563 116.158 21.8539 116.05 21.7572 115.942C21.2395 115.362 20.187 115.374 19.6693 115.942C19.1004 116.556 19.1175 117.415 19.6693 118.029C21.5126 120.088 24.5903 120.417 27.1845 120.417C27.9582 120.417 28.6977 119.735 28.6636 118.939C28.6295 118.143 28.0151 117.46 27.1845 117.46V117.472Z" fill="#D97EB9"/>
</g>
<g opacity="0.7">
<path d="M177.271 55.3207C177.391 57.7374 178.233 60.0233 178.91 62.3263C180.196 66.6933 180.662 70.5145 176.924 73.7159C173.909 76.2975 170.348 75.962 166.684 75.6378C165.125 75.5014 163.282 75.399 162.19 76.7524C160.199 79.2145 160.182 83.121 160.034 86.1006C160.017 86.4646 159.687 86.7488 159.311 86.6465C155.272 85.532 151.586 83.1153 147.416 82.4387C141.829 81.5345 140.06 86.4134 138.387 90.5985C137.505 92.8048 135.861 95.6479 133.364 96.3303C131.486 96.842 129.416 96.7113 127.493 96.6601C124.307 96.5691 106.671 94.5504 109.242 101.402C112.855 111.012 123.488 108.59 130.895 105.798C138.251 103.029 146.807 98.3773 154.931 100.14C158.868 100.993 162.15 103.364 164.483 106.628C166.661 109.67 167.145 112.741 167.907 116.335C168.573 119.456 169.472 125.461 173.124 126.576C175.679 127.36 178.426 125.814 180.469 124.381C183.854 121.998 181.862 119.183 181.436 115.999C181.06 113.207 182.551 111.24 183.996 108.954C184.411 108.3 185.009 107.015 185.936 106.958C187.028 106.89 188.058 107.794 189.224 107.799C191.494 107.811 193.11 107.572 195.243 108.584C196.768 109.306 198.491 110.444 200.227 110.466C202.383 110.495 205.25 109.016 205.005 106.486C204.761 103.95 202.974 102.051 202.223 99.6965C201.103 96.1881 203.828 94.2548 207.025 93.7942C210.825 93.2483 214.66 94.414 218.46 94.431C220.917 94.4424 222.772 93.8283 224.126 92.7138C213.749 74.6086 197.655 60.2053 178.295 51.9658C177.607 52.8358 177.203 53.9333 177.277 55.3321L177.271 55.3207Z" fill="#010B40"/>
<path d="M95.3046 218.244C92.8242 214.474 87.9715 211.881 87.2604 207.116C86.9361 204.921 86.8963 198.496 90.4519 198.621C93.7515 198.735 95.902 202.692 99.1504 203.181C101.961 203.602 106.21 201.669 108.054 199.582C109.436 198.018 110.164 196.136 110.762 194.157C111.848 190.541 113.043 186.919 116.337 184.695C121.616 181.13 127.709 181.465 133.762 182.233C139.957 183.018 146.107 184.024 151.301 179.856C155.449 176.524 159.255 172.447 162.048 167.915C164.38 164.128 167.481 157.879 162.355 154.905C156.757 151.658 150.334 154.996 145.379 157.975C141.681 160.193 137.488 163.929 133.051 164.441C130.372 164.748 127.874 164.202 125.513 162.917C123.272 161.7 121.03 159.875 118.482 159.369C111.706 158.038 107.439 164.168 101.255 165.424C91.3906 167.426 82.4589 161.66 73.9197 157.634C69.3628 155.485 64.2825 153.301 59.1226 153.654C54.0196 154.001 49.9235 156.651 46.5215 160.148C52.5291 188.897 71.3824 212.933 96.8179 225.972C97.2446 223.334 96.8634 220.627 95.2989 218.25L95.3046 218.244Z" fill="#010B40"/>
<path d="M132.295 199.252C128.637 200.731 125.929 203.869 126.253 208.253C126.611 213.104 130.321 217.357 135.35 217.59C140.549 217.829 150.147 214.162 147.661 207.338C145.459 201.288 139.417 197.41 132.295 199.252Z" fill="#010B40"/>
<path d="M156.899 189.284C154.43 190.444 154.243 194.169 155.073 196.273C155.955 198.507 161.582 200.969 163.448 197.973C164.631 196.074 164.54 193.264 163.391 191.36C161.883 188.858 159.374 188.573 156.899 189.284Z" fill="#010B40"/>
<path d="M194.868 189.483C193.144 189.341 191.437 189.546 189.861 190.109C189.878 190.256 190.02 190.012 189.861 190.109C185.72 192.571 186.846 198.695 191.38 200.105C195.089 201.259 198.89 198.382 199.817 194.726C200.63 191.519 197.729 189.716 194.868 189.483Z" fill="#010B40"/>
<path d="M83.2212 103.08C83.2781 103.29 83.4829 102.949 83.2212 103.08C79.3527 105.002 76.201 109.466 78.7894 113.685C80.5018 116.471 84.0745 118.911 87.4822 117.779C92.0733 116.255 94.4854 110.432 91.402 106.429C89.3312 103.74 86.2477 102.602 83.2155 103.074L83.2212 103.08Z" fill="#010B40"/>
<path d="M200.807 150.595C188.013 156.599 201.433 179.231 214.455 172.328C230.43 163.861 214.876 141.258 200.807 150.595Z" fill="#010B40"/>
<path d="M108.992 74.9441C109.408 76.8035 110.875 78.1398 112.514 79.0098C116.143 80.9318 121.099 81.7563 125.035 80.2835C130.537 78.2251 131.288 71.1229 126.122 68.1376C122.123 65.829 117.002 65.6641 113.088 68.0353C113.168 68.2172 113.299 67.8704 113.088 68.0353C111.285 69.4341 108.406 72.3114 108.992 74.9441Z" fill="#010B40"/>
</g>
<g opacity="0.4">
<path d="M72.0877 135.571C74.3177 135.571 76.4568 133.609 76.3544 131.306C76.252 129.004 74.477 127.042 72.0877 127.042C69.8576 127.042 67.7185 129.004 67.8209 131.306C67.9233 133.609 69.6983 135.571 72.0877 135.571Z" fill="#000033"/>
</g>
<g opacity="0.4">
<path d="M159.556 66.9093C161.786 66.9093 163.925 64.9475 163.823 62.6446C163.72 60.3417 161.945 58.3799 159.556 58.3799C157.326 58.3799 155.187 60.3417 155.289 62.6446C155.392 64.9475 157.167 66.9093 159.556 66.9093Z" fill="#000033"/>
</g>
<g opacity="0.4">
<path d="M178.899 174.807C180.389 174.807 181.811 173.499 181.743 171.964C181.675 170.428 180.492 169.12 178.899 169.12C177.408 169.12 175.986 170.428 176.054 171.964C176.122 173.499 177.306 174.807 178.899 174.807Z" fill="#000033"/>
</g>
<g opacity="0.4">
<path d="M161.547 226.552C163.777 226.552 165.916 224.59 165.814 222.287C165.711 219.984 163.937 218.022 161.547 218.022C159.317 218.022 157.178 219.984 157.28 222.287C157.383 224.59 159.158 226.552 161.547 226.552Z" fill="#000033"/>
</g>
<g opacity="0.4">
<path d="M109.208 215.037C110.699 215.037 112.121 213.729 112.053 212.194C111.984 210.659 110.801 209.351 109.208 209.351C107.718 209.351 106.295 210.659 106.364 212.194C106.432 213.729 107.615 215.037 109.208 215.037Z" fill="#000033"/>
</g>
<g opacity="0.4">
<path d="M217.868 110.978C219.359 110.978 220.781 109.67 220.713 108.135C220.645 106.6 219.461 105.292 217.868 105.292C216.378 105.292 214.956 106.6 215.024 108.135C215.092 109.67 216.275 110.978 217.868 110.978Z" fill="#000033"/>
</g>
<g opacity="0.4">
<path d="M85.5876 84.6221C87.0781 84.6221 88.5003 83.3142 88.4321 81.7789C88.3638 80.2436 87.1805 78.9358 85.5876 78.9358C84.0971 78.9358 82.6748 80.2436 82.7431 81.7789C82.8114 83.3142 83.9947 84.6221 85.5876 84.6221Z" fill="#000033"/>
</g>
<defs>
<filter id="filter0_f_1020_12297" x="0" y="-0.000244141" width="282" height="282" filterUnits="userSpaceOnUse" color-interpolation-filters="sRGB">
<feFlood flood-opacity="0" result="BackgroundImageFix"/>
<feBlend mode="normal" in="SourceGraphic" in2="BackgroundImageFix" result="shape"/>
<feGaussianBlur stdDeviation="20" result="effect1_foregroundBlur_1020_12297"/>
</filter>
<filter id="filter1_f_1020_12297" x="12" y="12" width="258" height="258" filterUnits="userSpaceOnUse" color-interpolation-filters="sRGB">
<feFlood flood-opacity="0" result="BackgroundImageFix"/>
<feBlend mode="normal" in="SourceGraphic" in2="BackgroundImageFix" result="shape"/>
<feGaussianBlur stdDeviation="20" result="effect1_foregroundBlur_1020_12297"/>
</filter>
<filter id="filter2_i_1020_12297" x="44.4961" y="36.3064" width="192.288" height="200.197" filterUnits="userSpaceOnUse" color-interpolation-filters="sRGB">
<feFlood flood-opacity="0" result="BackgroundImageFix"/>
<feBlend mode="normal" in="SourceGraphic" in2="BackgroundImageFix" result="shape"/>
<feColorMatrix in="SourceAlpha" type="matrix" values="0 0 0 0 0 0 0 0 0 0 0 0 0 0 0 0 0 0 127 0" result="hardAlpha"/>
<feOffset dy="-8"/>
<feGaussianBlur stdDeviation="4"/>
<feComposite in2="hardAlpha" operator="arithmetic" k2="-1" k3="1"/>
<feColorMatrix type="matrix" values="0 0 0 0 0 0 0 0 0 0 0 0 0 0 0 0 0 0 0.25 0"/>
<feBlend mode="normal" in2="shape" result="effect1_innerShadow_1020_12297"/>
</filter>
<filter id="filter3_i_1020_12297" x="19.249" y="107.891" width="242.779" height="39.4604" filterUnits="userSpaceOnUse" color-interpolation-filters="sRGB">
<feFlood flood-opacity="0" result="BackgroundImageFix"/>
<feBlend mode="normal" in="SourceGraphic" in2="BackgroundImageFix" result="shape"/>
<feColorMatrix in="SourceAlpha" type="matrix" values="0 0 0 0 0 0 0 0 0 0 0 0 0 0 0 0 0 0 127 0" result="hardAlpha"/>
<feOffset dy="-2"/>
<feGaussianBlur stdDeviation="2"/>
<feComposite in2="hardAlpha" operator="arithmetic" k2="-1" k3="1"/>
<feColorMatrix type="matrix" values="0 0 0 0 0 0 0 0 0 0 0 0 0 0 0 0 0 0 0.25 0"/>
<feBlend mode="normal" in2="shape" result="effect1_innerShadow_1020_12297"/>
</filter>
</defs>
</svg>
