<svg width="238" height="244" viewBox="0 0 238 244" fill="none" xmlns="http://www.w3.org/2000/svg">
<g clip-path="url(#clip0_703_16697)">
<g filter="url(#filter0_i_703_16697)">
<path d="M228.25 138.467C228.25 142.051 224.11 144.955 219.006 144.955C216.944 144.955 215.036 144.484 213.503 143.673C212.125 144.327 210.612 144.844 208.999 145.21C209.014 145.407 209.024 145.603 209.024 145.806C209.024 151.417 202.547 155.963 194.561 155.963C190.886 155.963 187.53 155.002 184.978 153.406C181.223 155.943 176.124 157.5 170.501 157.5C162.156 157.5 154.95 154.06 151.599 149.095C149.017 149.893 146.166 150.338 143.164 150.338C131.614 150.338 122.25 143.758 122.25 135.648C122.25 127.538 131.614 120.965 143.164 120.965C143.719 120.965 144.268 120.978 144.807 121.011C147.369 114.928 155.379 110.5 164.858 110.5C172.369 110.5 178.95 113.28 182.641 117.459C183.395 117.374 184.174 117.328 184.963 117.328C189.902 117.328 194.262 119.068 196.863 121.717C198.931 121.128 201.193 120.801 203.565 120.801C212.859 120.801 220.48 125.798 221.294 132.175C225.289 132.888 228.25 135.432 228.25 138.467Z" fill="#784BA6"/>
</g>
<path d="M72.1749 78.4724C76.4149 78.4724 79.8521 75.0353 79.8521 70.7953C79.8521 66.5553 76.4149 63.1182 72.1749 63.1182C67.935 63.1182 64.4978 66.5553 64.4978 70.7953C64.4978 75.0353 67.935 78.4724 72.1749 78.4724Z" fill="url(#paint0_radial_703_16697)"/>
<path d="M72.1749 97.85C72.7181 97.85 73.1584 85.3475 73.1584 69.925C73.1584 54.5024 72.7181 42 72.1749 42C71.6317 42 71.1914 54.5024 71.1914 69.925C71.1914 85.3475 71.6317 97.85 72.1749 97.85Z" fill="url(#paint1_radial_703_16697)"/>
<path d="M72.175 71.7785C87.5975 71.7785 100.1 71.3382 100.1 70.795C100.1 70.2518 87.5975 69.8115 72.175 69.8115C56.7524 69.8115 44.25 70.2518 44.25 70.795C44.25 71.3382 56.7524 71.7785 72.175 71.7785Z" fill="url(#paint2_radial_703_16697)"/>
<path d="M83.2137 80.9664C83.4255 80.7546 78.7156 75.7012 72.6938 69.6794C66.6719 63.6575 61.6186 58.9476 61.4067 59.1594C61.1949 59.3713 65.9048 64.4246 71.9267 70.4464C77.9485 76.4683 83.0019 81.1782 83.2137 80.9664Z" fill="url(#paint3_radial_703_16697)"/>
<path d="M73.0373 70.7865C79.0591 64.7646 83.769 59.7113 83.5572 59.4994C83.3454 59.2876 78.292 63.9976 72.2702 70.0194C66.2484 76.0412 61.5384 81.0946 61.7502 81.3064C61.9621 81.5182 67.0154 76.8083 73.0373 70.7865Z" fill="url(#paint4_radial_703_16697)"/>
<path d="M72.175 74.8778C74.4464 74.8778 76.2878 73.0365 76.2878 70.7651C76.2878 68.4937 74.4464 66.6523 72.175 66.6523C69.9036 66.6523 68.0623 68.4937 68.0623 70.7651C68.0623 73.0365 69.9036 74.8778 72.175 74.8778Z" fill="#FFCC33"/>
<path d="M72.1749 93.7729C72.6391 93.7729 73.0153 83.1384 73.0153 70.0202C73.0153 56.902 72.6391 46.2676 72.1749 46.2676C71.7107 46.2676 71.3345 56.902 71.3345 70.0202C71.3345 83.1384 71.7107 93.7729 72.1749 93.7729Z" fill="url(#paint5_radial_703_16697)"/>
<path d="M72.175 71.6057C85.2932 71.6057 95.9276 71.2294 95.9276 70.7652C95.9276 70.3011 85.2932 69.9248 72.175 69.9248C59.0568 69.9248 48.4224 70.3011 48.4224 70.7652C48.4224 71.2294 59.0568 71.6057 72.175 71.6057Z" fill="url(#paint6_radial_703_16697)"/>
<path d="M81.5653 79.4168C81.7469 79.2353 77.7408 74.9348 72.6174 69.8115C67.4941 64.6882 63.1937 60.6821 63.0121 60.8636C62.8305 61.0452 66.8366 65.3457 71.9599 70.469C77.0833 75.5923 81.3837 79.5984 81.5653 79.4168Z" fill="url(#paint7_radial_703_16697)"/>
<path d="M72.9111 70.7618C78.0345 65.6384 82.0406 61.338 81.859 61.1564C81.6774 60.9748 77.377 64.9809 72.2536 70.1043C67.1303 75.2276 63.1242 79.528 63.3058 79.7096C63.4874 79.8912 67.7878 75.8851 72.9111 70.7618Z" fill="url(#paint8_radial_703_16697)"/>
<path d="M193.16 190.892C195.879 190.892 198.084 188.687 198.084 185.968C198.084 183.248 195.879 181.044 193.16 181.044C190.441 181.044 188.236 183.248 188.236 185.968C188.236 188.687 190.441 190.892 193.16 190.892Z" fill="url(#paint9_radial_703_16697)"/>
<path d="M193.16 203.32C193.508 203.32 193.791 195.301 193.791 185.41C193.791 175.519 193.508 167.5 193.16 167.5C192.812 167.5 192.529 175.519 192.529 185.41C192.529 195.301 192.812 203.32 193.16 203.32Z" fill="url(#paint10_radial_703_16697)"/>
<path d="M193.16 186.598C203.051 186.598 211.07 186.316 211.07 185.968C211.07 185.619 203.051 185.337 193.16 185.337C183.269 185.337 175.25 185.619 175.25 185.968C175.25 186.316 183.269 186.598 193.16 186.598Z" fill="url(#paint11_radial_703_16697)"/>
<path d="M200.24 192.492C200.376 192.356 197.355 189.115 193.493 185.253C189.631 181.391 186.39 178.37 186.254 178.506C186.118 178.642 189.139 181.883 193.001 185.745C196.863 189.607 200.104 192.628 200.24 192.492Z" fill="url(#paint12_radial_703_16697)"/>
<path d="M193.713 185.963C197.575 182.101 200.596 178.86 200.46 178.724C200.324 178.588 197.083 181.609 193.221 185.471C189.359 189.333 186.338 192.574 186.474 192.71C186.61 192.846 189.851 189.825 193.713 185.963Z" fill="url(#paint13_radial_703_16697)"/>
<path d="M193.16 188.587C194.617 188.587 195.798 187.406 195.798 185.949C195.798 184.492 194.617 183.312 193.16 183.312C191.703 183.312 190.522 184.492 190.522 185.949C190.522 187.406 191.703 188.587 193.16 188.587Z" fill="#FFCC33"/>
<path d="M193.16 200.705C193.458 200.705 193.699 193.885 193.699 185.471C193.699 177.058 193.458 170.237 193.16 170.237C192.862 170.237 192.621 177.058 192.621 185.471C192.621 193.885 192.862 200.705 193.16 200.705Z" fill="url(#paint14_radial_703_16697)"/>
<path d="M193.16 186.488C201.574 186.488 208.394 186.247 208.394 185.949C208.394 185.651 201.574 185.41 193.16 185.41C184.747 185.41 177.926 185.651 177.926 185.949C177.926 186.247 184.747 186.488 193.16 186.488Z" fill="url(#paint15_radial_703_16697)"/>
<path d="M199.183 191.498C199.299 191.382 196.73 188.623 193.444 185.338C190.158 182.052 187.4 179.482 187.283 179.599C187.167 179.715 189.736 182.473 193.022 185.759C196.308 189.045 199.066 191.614 199.183 191.498Z" fill="url(#paint16_radial_703_16697)"/>
<path d="M193.632 185.947C196.918 182.661 199.488 179.903 199.371 179.786C199.255 179.67 196.497 182.239 193.211 185.525C189.925 188.811 187.355 191.569 187.472 191.685C187.588 191.802 190.346 189.233 193.632 185.947Z" fill="url(#paint17_radial_703_16697)"/>
<path d="M227.16 71.943C228.665 71.943 229.884 70.7233 229.884 69.2186C229.884 67.7139 228.665 66.4941 227.16 66.4941C225.655 66.4941 224.436 67.7139 224.436 69.2186C224.436 70.7233 225.655 71.943 227.16 71.943Z" fill="url(#paint18_radial_703_16697)"/>
<path d="M227.16 78.82C227.353 78.82 227.509 74.3831 227.509 68.91C227.509 63.4369 227.353 59 227.16 59C226.967 59 226.811 63.4369 226.811 68.91C226.811 74.3831 226.967 78.82 227.16 78.82Z" fill="url(#paint19_radial_703_16697)"/>
<path d="M227.16 69.5682C232.633 69.5682 237.07 69.4119 237.07 69.2191C237.07 69.0264 232.633 68.8701 227.16 68.8701C221.687 68.8701 217.25 69.0264 217.25 69.2191C217.25 69.4119 221.687 69.5682 227.16 69.5682Z" fill="url(#paint20_radial_703_16697)"/>
<path d="M231.077 72.8283C231.152 72.7531 229.481 70.9598 227.344 68.8228C225.207 66.6858 223.414 65.0143 223.339 65.0895C223.263 65.1646 224.935 66.958 227.072 69.095C229.209 71.232 231.002 72.9035 231.077 72.8283Z" fill="url(#paint21_radial_703_16697)"/>
<path d="M227.466 69.2153C229.603 67.0783 231.274 65.285 231.199 65.2098C231.124 65.1346 229.331 66.8061 227.194 68.9431C225.057 71.0801 223.385 72.8734 223.46 72.9486C223.536 73.0238 225.329 71.3523 227.466 69.2153Z" fill="url(#paint22_radial_703_16697)"/>
<path d="M227.16 70.6681C227.966 70.6681 228.619 70.0146 228.619 69.2086C228.619 68.4025 227.966 67.749 227.16 67.749C226.354 67.749 225.7 68.4025 225.7 69.2086C225.7 70.0146 226.354 70.6681 227.16 70.6681Z" fill="#FFCC33"/>
<path d="M227.16 77.3733C227.325 77.3733 227.458 73.5993 227.458 68.944C227.458 64.2886 227.325 60.5146 227.16 60.5146C226.995 60.5146 226.862 64.2886 226.862 68.944C226.862 73.5993 226.995 77.3733 227.16 77.3733Z" fill="url(#paint23_radial_703_16697)"/>
<path d="M227.16 69.5067C231.815 69.5067 235.589 69.3731 235.589 69.2084C235.589 69.0437 231.815 68.9102 227.16 68.9102C222.505 68.9102 218.731 69.0437 218.731 69.2084C218.731 69.3731 222.505 69.5067 227.16 69.5067Z" fill="url(#paint24_radial_703_16697)"/>
<path d="M230.493 72.279C230.557 72.2146 229.135 70.6884 227.317 68.8703C225.499 67.0521 223.973 65.6304 223.908 65.6949C223.844 65.7593 225.266 67.2854 227.084 69.1036C228.902 70.9217 230.428 72.3434 230.493 72.279Z" fill="url(#paint25_radial_703_16697)"/>
<path d="M227.421 69.2069C229.239 67.3887 230.661 65.8626 230.597 65.7982C230.532 65.7337 229.006 67.1554 227.188 68.9736C225.37 70.7917 223.948 72.3179 224.012 72.3823C224.077 72.4467 225.603 71.025 227.421 69.2069Z" fill="url(#paint26_radial_703_16697)"/>
<path d="M38.16 202.443C39.6647 202.443 40.8845 201.223 40.8845 199.719C40.8845 198.214 39.6647 196.994 38.16 196.994C36.6553 196.994 35.4355 198.214 35.4355 199.719C35.4355 201.223 36.6553 202.443 38.16 202.443Z" fill="url(#paint27_radial_703_16697)"/>
<path d="M38.1601 209.32C38.3528 209.32 38.5091 204.883 38.5091 199.41C38.5091 193.937 38.3528 189.5 38.1601 189.5C37.9673 189.5 37.811 193.937 37.811 199.41C37.811 204.883 37.9673 209.32 38.1601 209.32Z" fill="url(#paint28_radial_703_16697)"/>
<path d="M38.16 200.068C43.6331 200.068 48.07 199.912 48.07 199.719C48.07 199.526 43.6331 199.37 38.16 199.37C32.6869 199.37 28.25 199.526 28.25 199.719C28.25 199.912 32.6869 200.068 38.16 200.068Z" fill="url(#paint29_radial_703_16697)"/>
<path d="M42.0773 203.328C42.1525 203.253 40.481 201.46 38.344 199.323C36.207 197.186 34.4137 195.514 34.3385 195.589C34.2633 195.665 35.9348 197.458 38.0718 199.595C40.2088 201.732 42.0022 203.403 42.0773 203.328Z" fill="url(#paint30_radial_703_16697)"/>
<path d="M38.4658 199.715C40.6029 197.578 42.2743 195.785 42.1992 195.71C42.124 195.635 40.3306 197.306 38.1936 199.443C36.0566 201.58 34.3852 203.373 34.4603 203.449C34.5355 203.524 36.3288 201.852 38.4658 199.715Z" fill="url(#paint31_radial_703_16697)"/>
<path d="M38.16 201.168C38.966 201.168 39.6195 200.515 39.6195 199.709C39.6195 198.902 38.966 198.249 38.16 198.249C37.3539 198.249 36.7004 198.902 36.7004 199.709C36.7004 200.515 37.3539 201.168 38.16 201.168Z" fill="#FFCC33"/>
<path d="M38.1601 207.873C38.3248 207.873 38.4583 204.099 38.4583 199.444C38.4583 194.789 38.3248 191.015 38.1601 191.015C37.9953 191.015 37.8618 194.789 37.8618 199.444C37.8618 204.099 37.9953 207.873 38.1601 207.873Z" fill="url(#paint32_radial_703_16697)"/>
<path d="M38.16 200.007C42.8154 200.007 46.5893 199.873 46.5893 199.708C46.5893 199.544 42.8154 199.41 38.16 199.41C33.5046 199.41 29.7307 199.544 29.7307 199.708C29.7307 199.873 33.5046 200.007 38.16 200.007Z" fill="url(#paint33_radial_703_16697)"/>
<path d="M41.4925 202.779C41.557 202.715 40.1353 201.188 38.3171 199.37C36.499 197.552 34.9728 196.13 34.9084 196.195C34.844 196.259 36.2657 197.785 38.0838 199.604C39.902 201.422 41.4281 202.843 41.4925 202.779Z" fill="url(#paint34_radial_703_16697)"/>
<path d="M38.4214 199.707C40.2395 197.889 41.6612 196.363 41.5968 196.298C41.5324 196.234 40.0062 197.655 38.1881 199.474C36.3699 201.292 34.9482 202.818 35.0127 202.882C35.0771 202.947 36.6032 201.525 38.4214 199.707Z" fill="url(#paint35_radial_703_16697)"/>
<g filter="url(#filter1_f_703_16697)">
<path d="M150.298 50.8643C147.15 49.5913 143.607 51.8362 144.106 54.7798C145.426 62.5544 145.106 70.6705 142.903 78.7825C133.412 113.724 92.5762 135.47 51.6986 127.358C51.1771 127.254 50.6555 127.145 50.1387 127.033C47.4511 126.446 45.0313 128.619 45.9475 130.856C54.1137 150.899 73.5846 167.095 99.3704 172.58C140.441 181.315 182.296 159.388 191.796 124.137C199.953 93.8579 181.891 63.6307 150.298 50.8643Z" fill="url(#paint36_radial_703_16697)"/>
</g>
<g filter="url(#filter2_f_703_16697)">
<path d="M148.505 25.9546C145.155 24.3696 141.385 27.1646 141.915 30.8296C143.32 40.5096 142.98 50.6146 140.635 60.7146C130.535 104.22 87.08 131.295 43.58 121.195C43.025 121.065 42.47 120.93 41.92 120.79C39.06 120.06 36.485 122.765 37.46 125.55C46.15 150.505 66.87 170.67 94.31 177.5C138.015 188.375 182.555 161.075 192.665 117.185C201.345 79.4846 182.125 41.8496 148.505 25.9546Z" fill="url(#paint37_radial_703_16697)"/>
</g>
<path d="M148.505 25.9546C145.155 24.3696 141.385 27.1646 141.915 30.8296C143.32 40.5096 142.98 50.6146 140.635 60.7146C130.535 104.22 87.08 131.295 43.58 121.195C43.025 121.065 42.47 120.93 41.92 120.79C39.06 120.06 36.485 122.765 37.46 125.55C46.15 150.505 66.87 170.67 94.31 177.5C138.015 188.375 182.555 161.075 192.665 117.185C201.345 79.4846 182.125 41.8496 148.505 25.9546Z" fill="url(#paint38_radial_703_16697)"/>
<path d="M152.86 87.2305C159.365 89.6355 166.285 89.6855 172.785 87.2305L173.03 87.6655C167.305 92.2055 158.325 92.2555 152.615 87.6655L152.86 87.2305Z" fill="black"/>
<path d="M148.77 94.4205C151.32 93.4455 153.725 92.1206 155.825 90.3856C156.62 89.8456 157.02 88.9906 158.075 88.8106C158.175 88.7906 158.27 88.8756 158.26 88.9806C158.205 89.5656 157.875 89.9306 157.52 90.2306C155.785 91.8206 153.745 93.0956 151.54 93.9106C151.285 93.9956 148.17 95.0905 148.775 94.4205H148.77Z" fill="black"/>
<path d="M154.645 95.9305C157.075 94.6905 159.32 93.1105 161.225 91.1555C161.96 90.5305 162.26 89.6406 163.29 89.3456C163.385 89.3156 163.49 89.3906 163.49 89.4906C163.5 90.0806 163.21 90.4756 162.89 90.8156C161.335 92.5856 159.445 94.0706 157.34 95.1206C157.1 95.2356 154.115 96.6556 154.645 95.9256V95.9305Z" fill="black"/>
<path d="M161.295 95.7756C163.685 94.4606 165.885 92.8106 167.725 90.8006C168.44 90.1556 168.715 89.2506 169.735 88.9306C169.83 88.8956 169.935 88.9706 169.94 89.0706C169.965 89.6556 169.69 90.0656 169.38 90.4106C167.88 92.2256 166.04 93.7706 163.965 94.8806C163.725 95.0006 160.79 96.5156 161.295 95.7706V95.7756Z" fill="black"/>
<g clip-path="url(#clip1_703_16697)" filter="url(#filter3_i_703_16697)">
<path d="M120.75 159.05C120.75 162.901 116.61 166.021 111.506 166.021C109.444 166.021 107.536 165.515 106.003 164.644C104.625 165.347 103.112 165.902 101.499 166.295C101.514 166.506 101.524 166.717 101.524 166.935C101.524 172.964 95.0465 177.849 87.0613 177.849C83.3858 177.849 80.0299 176.815 77.4781 175.101C73.7227 177.827 68.6239 179.5 63.0008 179.5C54.6561 179.5 47.4499 175.804 44.099 170.47C41.5172 171.327 38.6657 171.805 35.6644 171.805C24.1135 171.805 14.75 164.735 14.75 156.021C14.75 147.307 24.1135 140.244 35.6644 140.244C36.2187 140.244 36.768 140.258 37.3073 140.293C39.8692 133.758 47.8794 129 57.3577 129C64.8685 129 71.4505 131.987 75.1409 136.477C75.895 136.386 76.6741 136.337 77.4631 136.337C82.402 136.337 86.7617 138.206 89.3635 141.052C91.431 140.42 93.6932 140.068 96.0653 140.068C105.359 140.068 112.98 145.437 113.794 152.289C117.789 153.055 120.75 155.789 120.75 159.05Z" fill="#784BA6"/>
</g>
<g clip-path="url(#clip2_703_16697)" filter="url(#filter4_i_703_16697)">
<path d="M173.25 58.0539C173.25 60.3035 170.614 62.1262 167.364 62.1262C166.05 62.1262 164.836 61.8306 163.859 61.3216C162.982 61.7321 162.018 62.0564 160.991 62.2863C161 62.4095 161.007 62.5326 161.007 62.6599C161.007 66.1822 156.882 69.0353 151.797 69.0353C149.457 69.0353 147.32 68.4318 145.695 67.4301C143.303 69.023 140.057 70 136.476 70C131.162 70 126.573 67.8407 124.439 64.7248C122.795 65.2256 120.979 65.5048 119.068 65.5048C111.713 65.5048 105.75 61.375 105.75 56.2845C105.75 51.1941 111.713 47.0683 119.068 47.0683C119.421 47.0683 119.771 47.0765 120.114 47.0971C121.746 43.2792 126.847 40.5 132.882 40.5C137.665 40.5 141.856 42.2447 144.206 44.8679C144.687 44.8146 145.183 44.7858 145.685 44.7858C148.83 44.7858 151.606 45.8778 153.263 47.5404C154.58 47.171 156.02 46.9657 157.531 46.9657C163.449 46.9657 168.302 50.1021 168.82 54.1046C171.364 54.5521 173.25 56.149 173.25 58.0539Z" fill="#784BA6"/>
</g>
<path opacity="0.9" d="M207.807 242.396C206.151 242.396 204.759 242.12 203.631 241.568C202.527 241.016 201.699 240.212 201.147 239.156C200.619 238.1 200.355 236.768 200.355 235.16V228.392H198.843C198.171 228.392 197.643 228.212 197.259 227.852C196.899 227.492 196.719 227 196.719 226.376C196.719 225.704 196.899 225.2 197.259 224.864C197.643 224.504 198.171 224.324 198.843 224.324H200.355V221.588C200.355 220.676 200.595 219.992 201.075 219.536C201.555 219.056 202.227 218.816 203.091 218.816C203.979 218.816 204.651 219.056 205.107 219.536C205.563 219.992 205.791 220.676 205.791 221.588V224.324H209.211C209.883 224.324 210.399 224.504 210.759 224.864C211.119 225.2 211.299 225.704 211.299 226.376C211.299 227 211.119 227.492 210.759 227.852C210.399 228.212 209.883 228.392 209.211 228.392H205.791V234.944C205.791 235.952 206.019 236.708 206.475 237.212C206.955 237.716 207.711 237.968 208.743 237.968C209.103 237.968 209.439 237.932 209.751 237.86C210.063 237.788 210.351 237.74 210.615 237.716C210.951 237.692 211.227 237.8 211.443 238.04C211.659 238.256 211.767 238.748 211.767 239.516C211.767 240.092 211.671 240.596 211.479 241.028C211.287 241.46 210.951 241.772 210.471 241.964C210.159 242.084 209.727 242.18 209.175 242.252C208.647 242.348 208.191 242.396 207.807 242.396Z" fill="#D97EB9"/>
<path opacity="0.9" d="M192.234 242.288C191.346 242.288 190.662 242.036 190.182 241.532C189.726 241.004 189.498 240.272 189.498 239.336V227.024C189.498 226.064 189.726 225.332 190.182 224.828C190.662 224.3 191.346 224.036 192.234 224.036C193.098 224.036 193.758 224.3 194.214 224.828C194.694 225.332 194.934 226.064 194.934 227.024V239.336C194.934 240.272 194.706 241.004 194.25 241.532C193.794 242.036 193.122 242.288 192.234 242.288ZM192.234 221.084C191.226 221.084 190.446 220.856 189.894 220.4C189.366 219.92 189.102 219.248 189.102 218.384C189.102 217.496 189.366 216.824 189.894 216.368C190.446 215.888 191.226 215.648 192.234 215.648C193.242 215.648 194.01 215.888 194.538 216.368C195.066 216.824 195.33 217.496 195.33 218.384C195.33 219.248 195.066 219.92 194.538 220.4C194.01 220.856 193.242 221.084 192.234 221.084Z" fill="#D97EB9"/>
<path opacity="0.9" d="M174.78 242.396C173.292 242.396 172.056 242.12 171.072 241.568C170.088 241.016 169.356 240.188 168.876 239.084C168.42 237.956 168.192 236.564 168.192 234.908V226.772C168.192 225.86 168.42 225.176 168.876 224.72C169.356 224.264 170.028 224.036 170.892 224.036C171.756 224.036 172.428 224.264 172.908 224.72C173.388 225.176 173.628 225.86 173.628 226.772V235.052C173.628 236.108 173.844 236.9 174.276 237.428C174.708 237.932 175.392 238.184 176.328 238.184C177.36 238.184 178.2 237.824 178.848 237.104C179.52 236.36 179.856 235.388 179.856 234.188V226.772C179.856 225.86 180.084 225.176 180.54 224.72C181.02 224.264 181.692 224.036 182.556 224.036C183.444 224.036 184.116 224.264 184.572 224.72C185.052 225.176 185.292 225.86 185.292 226.772V239.552C185.292 241.4 184.416 242.324 182.664 242.324C181.8 242.324 181.14 242.084 180.684 241.604C180.228 241.124 180 240.44 180 239.552V237.14L180.54 238.544C180.012 239.768 179.256 240.716 178.272 241.388C177.288 242.06 176.124 242.396 174.78 242.396Z" fill="#D97EB9"/>
<path opacity="0.9" d="M149.59 242.325C148.702 242.325 148.018 242.085 147.538 241.605C147.082 241.125 146.854 240.441 146.854 239.553V226.773C146.854 225.885 147.082 225.213 147.538 224.757C148.018 224.277 148.678 224.037 149.518 224.037C150.382 224.037 151.042 224.277 151.498 224.757C151.954 225.213 152.182 225.885 152.182 226.773V228.825L151.786 227.637C152.338 226.461 153.154 225.561 154.234 224.937C155.338 224.289 156.586 223.965 157.978 223.965C159.394 223.965 160.558 224.241 161.47 224.793C162.382 225.321 163.066 226.137 163.522 227.241C163.978 228.321 164.206 229.701 164.206 231.381V239.553C164.206 240.441 163.966 241.125 163.486 241.605C163.03 242.085 162.358 242.325 161.47 242.325C160.606 242.325 159.934 242.085 159.454 241.605C158.998 241.125 158.77 240.441 158.77 239.553V231.633C158.77 230.409 158.542 229.533 158.086 229.005C157.654 228.453 156.982 228.177 156.07 228.177C154.918 228.177 153.994 228.537 153.298 229.257C152.626 229.977 152.29 230.937 152.29 232.137V239.553C152.29 241.401 151.39 242.325 149.59 242.325Z" fill="#D97EB9"/>
<path opacity="0.9" d="M126.221 242.397C124.133 242.397 122.333 242.025 120.821 241.281C119.333 240.513 118.181 239.445 117.365 238.077C116.573 236.685 116.177 235.053 116.177 233.181C116.177 231.357 116.561 229.761 117.329 228.393C118.097 227.001 119.165 225.921 120.533 225.153C121.925 224.361 123.497 223.965 125.249 223.965C126.521 223.965 127.673 224.181 128.705 224.613C129.737 225.021 130.625 225.621 131.369 226.413C132.113 227.181 132.677 228.129 133.061 229.257C133.445 230.361 133.637 231.597 133.637 232.965C133.637 233.421 133.493 233.769 133.205 234.009C132.917 234.225 132.497 234.333 131.945 234.333H120.641V231.525H129.713L129.137 232.029C129.137 231.045 128.993 230.229 128.705 229.581C128.417 228.909 127.997 228.405 127.445 228.069C126.917 227.733 126.257 227.565 125.465 227.565C124.577 227.565 123.821 227.769 123.197 228.177C122.573 228.585 122.093 229.173 121.757 229.941C121.421 230.709 121.253 231.633 121.253 232.713V233.001C121.253 234.825 121.673 236.169 122.513 237.033C123.377 237.897 124.649 238.329 126.329 238.329C126.905 238.329 127.565 238.257 128.309 238.113C129.053 237.969 129.749 237.741 130.397 237.429C130.949 237.165 131.441 237.081 131.873 237.177C132.305 237.249 132.641 237.441 132.881 237.753C133.121 238.065 133.253 238.425 133.277 238.833C133.325 239.241 133.241 239.649 133.025 240.057C132.809 240.441 132.449 240.765 131.945 241.029C131.129 241.485 130.205 241.821 129.173 242.037C128.165 242.277 127.181 242.397 126.221 242.397Z" fill="white"/>
<path opacity="0.9" d="M98.3669 242.325C97.4789 242.325 96.7949 242.085 96.3149 241.605C95.8589 241.125 95.6309 240.441 95.6309 239.553V226.773C95.6309 225.885 95.8589 225.213 96.3149 224.757C96.7949 224.277 97.4549 224.037 98.2949 224.037C99.1589 224.037 99.8189 224.277 100.275 224.757C100.731 225.213 100.959 225.885 100.959 226.773V228.825L100.563 227.637C101.115 226.461 101.931 225.561 103.011 224.937C104.115 224.289 105.363 223.965 106.755 223.965C108.171 223.965 109.335 224.241 110.247 224.793C111.159 225.321 111.843 226.137 112.299 227.241C112.755 228.321 112.983 229.701 112.983 231.381V239.553C112.983 240.441 112.743 241.125 112.263 241.605C111.807 242.085 111.135 242.325 110.247 242.325C109.383 242.325 108.711 242.085 108.231 241.605C107.775 241.125 107.547 240.441 107.547 239.553V231.633C107.547 230.409 107.319 229.533 106.863 229.005C106.431 228.453 105.759 228.177 104.847 228.177C103.695 228.177 102.771 228.537 102.075 229.257C101.403 229.977 101.067 230.937 101.067 232.137V239.553C101.067 241.401 100.167 242.325 98.3669 242.325Z" fill="white"/>
<path opacity="0.9" d="M76.9567 242.325C76.0687 242.325 75.3847 242.085 74.9047 241.605C74.4487 241.125 74.2207 240.441 74.2207 239.553V226.773C74.2207 225.885 74.4487 225.213 74.9047 224.757C75.3847 224.277 76.0447 224.037 76.8847 224.037C77.7487 224.037 78.4087 224.277 78.8647 224.757C79.3207 225.213 79.5487 225.885 79.5487 226.773V228.825L79.1527 227.637C79.7047 226.461 80.5207 225.561 81.6007 224.937C82.7047 224.289 83.9527 223.965 85.3447 223.965C86.7607 223.965 87.9247 224.241 88.8367 224.793C89.7487 225.321 90.4327 226.137 90.8887 227.241C91.3447 228.321 91.5727 229.701 91.5727 231.381V239.553C91.5727 240.441 91.3327 241.125 90.8527 241.605C90.3967 242.085 89.7247 242.325 88.8367 242.325C87.9727 242.325 87.3007 242.085 86.8207 241.605C86.3647 241.125 86.1367 240.441 86.1367 239.553V231.633C86.1367 230.409 85.9087 229.533 85.4527 229.005C85.0207 228.453 84.3487 228.177 83.4367 228.177C82.2847 228.177 81.3607 228.537 80.6647 229.257C79.9927 229.977 79.6567 230.937 79.6567 232.137V239.553C79.6567 241.401 78.7567 242.325 76.9567 242.325Z" fill="white"/>
<path opacity="0.9" d="M61.5175 242.397C59.6215 242.397 57.9655 242.025 56.5495 241.281C55.1575 240.537 54.0775 239.469 53.3095 238.077C52.5415 236.685 52.1575 235.041 52.1575 233.145C52.1575 231.729 52.3735 230.457 52.8055 229.329C53.2375 228.201 53.8615 227.241 54.6775 226.449C55.5175 225.633 56.5135 225.021 57.6655 224.613C58.8175 224.181 60.1015 223.965 61.5175 223.965C63.4135 223.965 65.0575 224.337 66.4495 225.081C67.8655 225.825 68.9575 226.881 69.7255 228.249C70.5175 229.617 70.9135 231.249 70.9135 233.145C70.9135 234.585 70.6855 235.869 70.2295 236.997C69.7975 238.125 69.1735 239.097 68.3575 239.913C67.5415 240.729 66.5455 241.353 65.3695 241.785C64.2175 242.193 62.9335 242.397 61.5175 242.397ZM61.5175 238.329C62.3095 238.329 62.9935 238.137 63.5695 237.753C64.1455 237.369 64.6015 236.805 64.9375 236.061C65.2735 235.293 65.4415 234.321 65.4415 233.145C65.4415 231.393 65.0815 230.109 64.3615 229.293C63.6415 228.453 62.6935 228.033 61.5175 228.033C60.7495 228.033 60.0655 228.213 59.4655 228.573C58.8895 228.933 58.4335 229.497 58.0975 230.265C57.7855 231.009 57.6295 231.969 57.6295 233.145C57.6295 234.897 57.9895 236.205 58.7095 237.069C59.4295 237.909 60.3655 238.329 61.5175 238.329Z" fill="#784BA6"/>
<path opacity="0.9" d="M31.3743 242C30.4383 242 29.7183 241.748 29.2143 241.244C28.7103 240.74 28.4583 240.02 28.4583 239.084V219.536C28.4583 218.6 28.7103 217.88 29.2143 217.376C29.7183 216.872 30.4383 216.62 31.3743 216.62H40.0863C41.8863 216.62 43.4223 216.884 44.6943 217.412C45.9663 217.94 46.9263 218.696 47.5743 219.68C48.2463 220.664 48.5823 221.84 48.5823 223.208C48.5823 224.72 48.1503 226.004 47.2863 227.06C46.4223 228.116 45.2343 228.824 43.7223 229.184V228.608C45.4743 228.92 46.8303 229.616 47.7903 230.696C48.7743 231.752 49.2663 233.132 49.2663 234.836C49.2663 237.092 48.4863 238.856 46.9263 240.128C45.3663 241.376 43.2183 242 40.4823 242H31.3743ZM33.7863 237.86H39.7263C41.1663 237.86 42.2223 237.584 42.8943 237.032C43.5663 236.456 43.9023 235.616 43.9023 234.512C43.9023 233.408 43.5663 232.58 42.8943 232.028C42.2223 231.476 41.1663 231.2 39.7263 231.2H33.7863V237.86ZM33.7863 227.06H39.1143C40.5063 227.06 41.5383 226.796 42.2103 226.268C42.8823 225.74 43.2183 224.948 43.2183 223.892C43.2183 222.86 42.8823 222.08 42.2103 221.552C41.5383 221.024 40.5063 220.76 39.1143 220.76H33.7863V227.06Z" fill="white"/>
<g style="mix-blend-mode:plus-lighter">
<path d="M56.1601 229.234C57.3126 229.234 58.2468 228.3 58.2468 227.147C58.2468 225.995 57.3126 225.061 56.1601 225.061C55.0077 225.061 54.0735 225.995 54.0735 227.147C54.0735 228.3 55.0077 229.234 56.1601 229.234Z" fill="url(#paint39_radial_703_16697)"/>
<path d="M56.1601 234.5C56.3078 234.5 56.4274 231.102 56.4274 226.91C56.4274 222.718 56.3078 219.32 56.1601 219.32C56.0125 219.32 55.8928 222.718 55.8928 226.91C55.8928 231.102 56.0125 234.5 56.1601 234.5Z" fill="url(#paint40_radial_703_16697)"/>
<path d="M56.1601 227.415C60.3519 227.415 63.7501 227.295 63.7501 227.147C63.7501 227 60.3519 226.88 56.1601 226.88C51.9682 226.88 48.5701 227 48.5701 227.147C48.5701 227.295 51.9682 227.415 56.1601 227.415Z" fill="url(#paint41_radial_703_16697)"/>
<path d="M59.1603 229.912C59.2179 229.854 57.9377 228.481 56.301 226.844C54.6642 225.207 53.2907 223.927 53.2332 223.985C53.1756 224.042 54.4557 225.416 56.0925 227.052C57.7292 228.689 59.1027 229.969 59.1603 229.912Z" fill="url(#paint42_radial_703_16697)"/>
<path d="M56.3945 227.144C58.0312 225.508 59.3114 224.134 59.2538 224.077C59.1962 224.019 57.8227 225.299 56.186 226.936C54.5492 228.573 53.2691 229.946 53.3267 230.004C53.3842 230.061 54.7577 228.781 56.3945 227.144Z" fill="url(#paint43_radial_703_16697)"/>
<path d="M56.1601 228.257C56.7775 228.257 57.2779 227.757 57.2779 227.139C57.2779 226.522 56.7775 226.021 56.1601 226.021C55.5427 226.021 55.0422 226.522 55.0422 227.139C55.0422 227.757 55.5427 228.257 56.1601 228.257Z" fill="white"/>
<path d="M56.1601 233.392C56.2862 233.392 56.3885 230.502 56.3885 226.936C56.3885 223.371 56.2862 220.48 56.1601 220.48C56.0339 220.48 55.9316 223.371 55.9316 226.936C55.9316 230.502 56.0339 233.392 56.1601 233.392Z" fill="url(#paint44_radial_703_16697)"/>
<path d="M56.1601 227.367C59.7256 227.367 62.616 227.265 62.616 227.139C62.616 227.012 59.7256 226.91 56.1601 226.91C52.5945 226.91 49.7041 227.012 49.7041 227.139C49.7041 227.265 52.5945 227.367 56.1601 227.367Z" fill="url(#paint45_radial_703_16697)"/>
<path d="M58.7124 229.491C58.7618 229.441 57.6729 228.272 56.2804 226.88C54.8879 225.487 53.719 224.398 53.6697 224.448C53.6203 224.497 54.7092 225.666 56.1017 227.058C57.4942 228.451 58.6631 229.54 58.7124 229.491Z" fill="url(#paint46_radial_703_16697)"/>
<path d="M56.3602 227.138C57.7528 225.745 58.8416 224.576 58.7923 224.527C58.7429 224.478 57.5741 225.567 56.1815 226.959C54.789 228.352 53.7002 229.52 53.7495 229.57C53.7989 229.619 54.9677 228.53 56.3602 227.138Z" fill="url(#paint47_radial_703_16697)"/>
</g>
</g>
<defs>
<filter id="filter0_i_703_16697" x="122.25" y="108.5" width="106" height="49" filterUnits="userSpaceOnUse" color-interpolation-filters="sRGB">
<feFlood flood-opacity="0" result="BackgroundImageFix"/>
<feBlend mode="normal" in="SourceGraphic" in2="BackgroundImageFix" result="shape"/>
<feColorMatrix in="SourceAlpha" type="matrix" values="0 0 0 0 0 0 0 0 0 0 0 0 0 0 0 0 0 0 127 0" result="hardAlpha"/>
<feOffset dy="-4"/>
<feGaussianBlur stdDeviation="1"/>
<feComposite in2="hardAlpha" operator="arithmetic" k2="-1" k3="1"/>
<feColorMatrix type="matrix" values="0 0 0 0 0.239216 0 0 0 0 0.188235 0 0 0 0 0.54902 0 0 0 1 0"/>
<feBlend mode="normal" in2="shape" result="effect1_innerShadow_703_16697"/>
</filter>
<filter id="filter1_f_703_16697" x="16.9" y="21.65" width="205.7" height="181.7" filterUnits="userSpaceOnUse" color-interpolation-filters="sRGB">
<feFlood flood-opacity="0" result="BackgroundImageFix"/>
<feBlend mode="normal" in="SourceGraphic" in2="BackgroundImageFix" result="shape"/>
<feGaussianBlur stdDeviation="14.425" result="effect1_foregroundBlur_703_16697"/>
</filter>
<filter id="filter2_f_703_16697" x="8.39975" y="-3.34903" width="215.194" height="212.089" filterUnits="userSpaceOnUse" color-interpolation-filters="sRGB">
<feFlood flood-opacity="0" result="BackgroundImageFix"/>
<feBlend mode="normal" in="SourceGraphic" in2="BackgroundImageFix" result="shape"/>
<feGaussianBlur stdDeviation="14.425" result="effect1_foregroundBlur_703_16697"/>
</filter>
<filter id="filter3_i_703_16697" x="14.75" y="127" width="106" height="52.5" filterUnits="userSpaceOnUse" color-interpolation-filters="sRGB">
<feFlood flood-opacity="0" result="BackgroundImageFix"/>
<feBlend mode="normal" in="SourceGraphic" in2="BackgroundImageFix" result="shape"/>
<feColorMatrix in="SourceAlpha" type="matrix" values="0 0 0 0 0 0 0 0 0 0 0 0 0 0 0 0 0 0 127 0" result="hardAlpha"/>
<feOffset dy="-4"/>
<feGaussianBlur stdDeviation="1"/>
<feComposite in2="hardAlpha" operator="arithmetic" k2="-1" k3="1"/>
<feColorMatrix type="matrix" values="0 0 0 0 0.239216 0 0 0 0 0.188235 0 0 0 0 0.54902 0 0 0 1 0"/>
<feBlend mode="normal" in2="shape" result="effect1_innerShadow_703_16697"/>
</filter>
<filter id="filter4_i_703_16697" x="105.75" y="38.5" width="67.5" height="31.5" filterUnits="userSpaceOnUse" color-interpolation-filters="sRGB">
<feFlood flood-opacity="0" result="BackgroundImageFix"/>
<feBlend mode="normal" in="SourceGraphic" in2="BackgroundImageFix" result="shape"/>
<feColorMatrix in="SourceAlpha" type="matrix" values="0 0 0 0 0 0 0 0 0 0 0 0 0 0 0 0 0 0 127 0" result="hardAlpha"/>
<feOffset dy="-4"/>
<feGaussianBlur stdDeviation="1"/>
<feComposite in2="hardAlpha" operator="arithmetic" k2="-1" k3="1"/>
<feColorMatrix type="matrix" values="0 0 0 0 0.239216 0 0 0 0 0.188235 0 0 0 0 0.54902 0 0 0 1 0"/>
<feBlend mode="normal" in2="shape" result="effect1_innerShadow_703_16697"/>
</filter>
<radialGradient id="paint0_radial_703_16697" cx="0" cy="0" r="1" gradientUnits="userSpaceOnUse" gradientTransform="translate(72.1749 70.7953) scale(7.67714 7.67714)">
<stop stop-color="white"/>
<stop offset="0.18" stop-color="#FBFAFC" stop-opacity="0.7056"/>
<stop offset="0.58" stop-color="#F4EFF7" stop-opacity="0.1936"/>
<stop offset="1" stop-color="#ECE4F2" stop-opacity="0"/>
</radialGradient>
<radialGradient id="paint1_radial_703_16697" cx="0" cy="0" r="1" gradientUnits="userSpaceOnUse" gradientTransform="translate(72.1749 69.925) scale(19.7591 19.7591)">
<stop stop-color="#FFFEEF"/>
<stop offset="0.08" stop-color="#FDFCEF" stop-opacity="0.7569"/>
<stop offset="0.22" stop-color="#FAF9F0" stop-opacity="0.4096"/>
<stop offset="0.36" stop-color="#F7F7F0" stop-opacity="0.1936"/>
<stop offset="0.5" stop-color="#F5F5F1" stop-opacity="0.0784"/>
<stop offset="0.64" stop-color="#F4F3F1" stop-opacity="0.0256"/>
<stop offset="0.77" stop-color="#F2F2F1" stop-opacity="0.01"/>
<stop offset="0.89" stop-color="#F2F2F1" stop-opacity="0.01"/>
<stop offset="1" stop-color="#F2F2F2" stop-opacity="0"/>
</radialGradient>
<radialGradient id="paint2_radial_703_16697" cx="0" cy="0" r="1" gradientUnits="userSpaceOnUse" gradientTransform="translate(72.175 70.795) rotate(-90) scale(24.2176 24.2176)">
<stop stop-color="#FFFEEF"/>
<stop offset="0.18" stop-color="#FCFCEF" stop-opacity="0.7056"/>
<stop offset="0.58" stop-color="#F7F7F0" stop-opacity="0.1936"/>
<stop offset="1" stop-color="#F2F2F2" stop-opacity="0"/>
</radialGradient>
<radialGradient id="paint3_radial_703_16697" cx="0" cy="0" r="1" gradientUnits="userSpaceOnUse" gradientTransform="translate(72.3102 70.0713) rotate(-45) scale(13.3754 13.3754)">
<stop stop-color="#FFFEEF"/>
<stop offset="0.18" stop-color="#FCFCEF" stop-opacity="0.7056"/>
<stop offset="0.58" stop-color="#F7F7F0" stop-opacity="0.1936"/>
<stop offset="1" stop-color="#F2F2F2" stop-opacity="0"/>
</radialGradient>
<radialGradient id="paint4_radial_703_16697" cx="0" cy="0" r="1" gradientUnits="userSpaceOnUse" gradientTransform="translate(72.6537 70.4029) rotate(-135) scale(13.3754 13.3754)">
<stop stop-color="#FFFEEF"/>
<stop offset="0.18" stop-color="#FCFCEF" stop-opacity="0.7056"/>
<stop offset="0.58" stop-color="#F7F7F0" stop-opacity="0.1936"/>
<stop offset="1" stop-color="#F2F2F2" stop-opacity="0"/>
</radialGradient>
<radialGradient id="paint5_radial_703_16697" cx="0" cy="0" r="1" gradientUnits="userSpaceOnUse" gradientTransform="translate(72.1749 70.0202) scale(20.5995 20.5995)">
<stop stop-color="#FFCC33"/>
<stop offset="0.18" stop-color="#FBCF51" stop-opacity="0.7056"/>
<stop offset="0.58" stop-color="#F4D99D" stop-opacity="0.1936"/>
<stop offset="1" stop-color="#ECE4F2" stop-opacity="0"/>
</radialGradient>
<radialGradient id="paint6_radial_703_16697" cx="0" cy="0" r="1" gradientUnits="userSpaceOnUse" gradientTransform="translate(72.175 70.7593) rotate(-90) scale(20.5995)">
<stop stop-color="#FFCC33"/>
<stop offset="0.18" stop-color="#FBCF51" stop-opacity="0.7056"/>
<stop offset="0.58" stop-color="#F4D99D" stop-opacity="0.1936"/>
<stop offset="1" stop-color="#ECE4F2" stop-opacity="0"/>
</radialGradient>
<radialGradient id="paint7_radial_703_16697" cx="0" cy="0" r="1" gradientUnits="userSpaceOnUse" gradientTransform="translate(72.2929 70.136) rotate(-45) scale(11.3726 11.3727)">
<stop stop-color="#FFCC33"/>
<stop offset="0.18" stop-color="#FBCF51" stop-opacity="0.7056"/>
<stop offset="0.58" stop-color="#F4D99D" stop-opacity="0.1936"/>
<stop offset="1" stop-color="#ECE4F2" stop-opacity="0"/>
</radialGradient>
<radialGradient id="paint8_radial_703_16697" cx="0" cy="0" r="1" gradientUnits="userSpaceOnUse" gradientTransform="translate(72.5782 70.4288) rotate(-135) scale(11.3726 11.3727)">
<stop stop-color="#FFCC33"/>
<stop offset="0.18" stop-color="#FBCF51" stop-opacity="0.7056"/>
<stop offset="0.58" stop-color="#F4D99D" stop-opacity="0.1936"/>
<stop offset="1" stop-color="#ECE4F2" stop-opacity="0"/>
</radialGradient>
<radialGradient id="paint9_radial_703_16697" cx="0" cy="0" r="1" gradientUnits="userSpaceOnUse" gradientTransform="translate(193.16 185.968) scale(4.92381 4.92381)">
<stop stop-color="white"/>
<stop offset="0.18" stop-color="#FBFAFC" stop-opacity="0.7056"/>
<stop offset="0.58" stop-color="#F4EFF7" stop-opacity="0.1936"/>
<stop offset="1" stop-color="#ECE4F2" stop-opacity="0"/>
</radialGradient>
<radialGradient id="paint10_radial_703_16697" cx="0" cy="0" r="1" gradientUnits="userSpaceOnUse" gradientTransform="translate(193.16 185.41) scale(12.6727 12.6727)">
<stop stop-color="#FFFEEF"/>
<stop offset="0.08" stop-color="#FDFCEF" stop-opacity="0.7569"/>
<stop offset="0.22" stop-color="#FAF9F0" stop-opacity="0.4096"/>
<stop offset="0.36" stop-color="#F7F7F0" stop-opacity="0.1936"/>
<stop offset="0.5" stop-color="#F5F5F1" stop-opacity="0.0784"/>
<stop offset="0.64" stop-color="#F4F3F1" stop-opacity="0.0256"/>
<stop offset="0.77" stop-color="#F2F2F1" stop-opacity="0.01"/>
<stop offset="0.89" stop-color="#F2F2F1" stop-opacity="0.01"/>
<stop offset="1" stop-color="#F2F2F2" stop-opacity="0"/>
</radialGradient>
<radialGradient id="paint11_radial_703_16697" cx="0" cy="0" r="1" gradientUnits="userSpaceOnUse" gradientTransform="translate(193.16 185.968) rotate(-90) scale(15.5322 15.5322)">
<stop stop-color="#FFFEEF"/>
<stop offset="0.18" stop-color="#FCFCEF" stop-opacity="0.7056"/>
<stop offset="0.58" stop-color="#F7F7F0" stop-opacity="0.1936"/>
<stop offset="1" stop-color="#F2F2F2" stop-opacity="0"/>
</radialGradient>
<radialGradient id="paint12_radial_703_16697" cx="0" cy="0" r="1" gradientUnits="userSpaceOnUse" gradientTransform="translate(193.247 185.504) rotate(-45) scale(8.57848 8.57844)">
<stop stop-color="#FFFEEF"/>
<stop offset="0.18" stop-color="#FCFCEF" stop-opacity="0.7056"/>
<stop offset="0.58" stop-color="#F7F7F0" stop-opacity="0.1936"/>
<stop offset="1" stop-color="#F2F2F2" stop-opacity="0"/>
</radialGradient>
<radialGradient id="paint13_radial_703_16697" cx="0" cy="0" r="1" gradientUnits="userSpaceOnUse" gradientTransform="translate(193.467 185.717) rotate(-135) scale(8.57844 8.57844)">
<stop stop-color="#FFFEEF"/>
<stop offset="0.18" stop-color="#FCFCEF" stop-opacity="0.7056"/>
<stop offset="0.58" stop-color="#F7F7F0" stop-opacity="0.1936"/>
<stop offset="1" stop-color="#F2F2F2" stop-opacity="0"/>
</radialGradient>
<radialGradient id="paint14_radial_703_16697" cx="0" cy="0" r="1" gradientUnits="userSpaceOnUse" gradientTransform="translate(193.16 185.471) scale(13.2117 13.2117)">
<stop stop-color="#FFCC33"/>
<stop offset="0.18" stop-color="#FBCF51" stop-opacity="0.7056"/>
<stop offset="0.58" stop-color="#F4D99D" stop-opacity="0.1936"/>
<stop offset="1" stop-color="#ECE4F2" stop-opacity="0"/>
</radialGradient>
<radialGradient id="paint15_radial_703_16697" cx="0" cy="0" r="1" gradientUnits="userSpaceOnUse" gradientTransform="translate(193.16 185.945) rotate(-90) scale(13.2117)">
<stop stop-color="#FFCC33"/>
<stop offset="0.18" stop-color="#FBCF51" stop-opacity="0.7056"/>
<stop offset="0.58" stop-color="#F4D99D" stop-opacity="0.1936"/>
<stop offset="1" stop-color="#ECE4F2" stop-opacity="0"/>
</radialGradient>
<radialGradient id="paint16_radial_703_16697" cx="0" cy="0" r="1" gradientUnits="userSpaceOnUse" gradientTransform="translate(193.236 185.546) rotate(-45) scale(7.29396 7.29397)">
<stop stop-color="#FFCC33"/>
<stop offset="0.18" stop-color="#FBCF51" stop-opacity="0.7056"/>
<stop offset="0.58" stop-color="#F4D99D" stop-opacity="0.1936"/>
<stop offset="1" stop-color="#ECE4F2" stop-opacity="0"/>
</radialGradient>
<radialGradient id="paint17_radial_703_16697" cx="0" cy="0" r="1" gradientUnits="userSpaceOnUse" gradientTransform="translate(193.419 185.733) rotate(-135) scale(7.29396 7.29397)">
<stop stop-color="#FFCC33"/>
<stop offset="0.18" stop-color="#FBCF51" stop-opacity="0.7056"/>
<stop offset="0.58" stop-color="#F4D99D" stop-opacity="0.1936"/>
<stop offset="1" stop-color="#ECE4F2" stop-opacity="0"/>
</radialGradient>
<radialGradient id="paint18_radial_703_16697" cx="0" cy="0" r="1" gradientUnits="userSpaceOnUse" gradientTransform="translate(227.16 69.2186) scale(2.72445)">
<stop stop-color="white"/>
<stop offset="0.18" stop-color="#FBFAFC" stop-opacity="0.7056"/>
<stop offset="0.58" stop-color="#F4EFF7" stop-opacity="0.1936"/>
<stop offset="1" stop-color="#ECE4F2" stop-opacity="0"/>
</radialGradient>
<radialGradient id="paint19_radial_703_16697" cx="0" cy="0" r="1" gradientUnits="userSpaceOnUse" gradientTransform="translate(227.16 68.91) scale(7.01207 7.01208)">
<stop stop-color="#FFFEEF"/>
<stop offset="0.08" stop-color="#FDFCEF" stop-opacity="0.7569"/>
<stop offset="0.22" stop-color="#FAF9F0" stop-opacity="0.4096"/>
<stop offset="0.36" stop-color="#F7F7F0" stop-opacity="0.1936"/>
<stop offset="0.5" stop-color="#F5F5F1" stop-opacity="0.0784"/>
<stop offset="0.64" stop-color="#F4F3F1" stop-opacity="0.0256"/>
<stop offset="0.77" stop-color="#F2F2F1" stop-opacity="0.01"/>
<stop offset="0.89" stop-color="#F2F2F1" stop-opacity="0.01"/>
<stop offset="1" stop-color="#F2F2F2" stop-opacity="0"/>
</radialGradient>
<radialGradient id="paint20_radial_703_16697" cx="0" cy="0" r="1" gradientUnits="userSpaceOnUse" gradientTransform="translate(227.16 69.2191) rotate(-90) scale(8.5943 8.59429)">
<stop stop-color="#FFFEEF"/>
<stop offset="0.18" stop-color="#FCFCEF" stop-opacity="0.7056"/>
<stop offset="0.58" stop-color="#F7F7F0" stop-opacity="0.1936"/>
<stop offset="1" stop-color="#F2F2F2" stop-opacity="0"/>
</radialGradient>
<radialGradient id="paint21_radial_703_16697" cx="0" cy="0" r="1" gradientUnits="userSpaceOnUse" gradientTransform="translate(227.208 68.9619) rotate(-45) scale(4.74666 4.74664)">
<stop stop-color="#FFFEEF"/>
<stop offset="0.18" stop-color="#FCFCEF" stop-opacity="0.7056"/>
<stop offset="0.58" stop-color="#F7F7F0" stop-opacity="0.1936"/>
<stop offset="1" stop-color="#F2F2F2" stop-opacity="0"/>
</radialGradient>
<radialGradient id="paint22_radial_703_16697" cx="0" cy="0" r="1" gradientUnits="userSpaceOnUse" gradientTransform="translate(227.33 69.0792) rotate(-135) scale(4.74664 4.74664)">
<stop stop-color="#FFFEEF"/>
<stop offset="0.18" stop-color="#FCFCEF" stop-opacity="0.7056"/>
<stop offset="0.58" stop-color="#F7F7F0" stop-opacity="0.1936"/>
<stop offset="1" stop-color="#F2F2F2" stop-opacity="0"/>
</radialGradient>
<radialGradient id="paint23_radial_703_16697" cx="0" cy="0" r="1" gradientUnits="userSpaceOnUse" gradientTransform="translate(227.16 68.944) scale(7.31031 7.31033)">
<stop stop-color="#FFCC33"/>
<stop offset="0.18" stop-color="#FBCF51" stop-opacity="0.7056"/>
<stop offset="0.58" stop-color="#F4D99D" stop-opacity="0.1936"/>
<stop offset="1" stop-color="#ECE4F2" stop-opacity="0"/>
</radialGradient>
<radialGradient id="paint24_radial_703_16697" cx="0" cy="0" r="1" gradientUnits="userSpaceOnUse" gradientTransform="translate(227.16 69.2063) rotate(-90) scale(7.31033)">
<stop stop-color="#FFCC33"/>
<stop offset="0.18" stop-color="#FBCF51" stop-opacity="0.7056"/>
<stop offset="0.58" stop-color="#F4D99D" stop-opacity="0.1936"/>
<stop offset="1" stop-color="#ECE4F2" stop-opacity="0"/>
</radialGradient>
<radialGradient id="paint25_radial_703_16697" cx="0" cy="0" r="1" gradientUnits="userSpaceOnUse" gradientTransform="translate(227.202 68.9854) rotate(-45) scale(4.03591 4.03591)">
<stop stop-color="#FFCC33"/>
<stop offset="0.18" stop-color="#FBCF51" stop-opacity="0.7056"/>
<stop offset="0.58" stop-color="#F4D99D" stop-opacity="0.1936"/>
<stop offset="1" stop-color="#ECE4F2" stop-opacity="0"/>
</radialGradient>
<radialGradient id="paint26_radial_703_16697" cx="0" cy="0" r="1" gradientUnits="userSpaceOnUse" gradientTransform="translate(227.303 69.0887) rotate(-135) scale(4.03591 4.03591)">
<stop stop-color="#FFCC33"/>
<stop offset="0.18" stop-color="#FBCF51" stop-opacity="0.7056"/>
<stop offset="0.58" stop-color="#F4D99D" stop-opacity="0.1936"/>
<stop offset="1" stop-color="#ECE4F2" stop-opacity="0"/>
</radialGradient>
<radialGradient id="paint27_radial_703_16697" cx="0" cy="0" r="1" gradientUnits="userSpaceOnUse" gradientTransform="translate(38.16 199.719) scale(2.72445)">
<stop stop-color="white"/>
<stop offset="0.18" stop-color="#FBFAFC" stop-opacity="0.7056"/>
<stop offset="0.58" stop-color="#F4EFF7" stop-opacity="0.1936"/>
<stop offset="1" stop-color="#ECE4F2" stop-opacity="0"/>
</radialGradient>
<radialGradient id="paint28_radial_703_16697" cx="0" cy="0" r="1" gradientUnits="userSpaceOnUse" gradientTransform="translate(38.1601 199.41) scale(7.01207 7.01208)">
<stop stop-color="#FFFEEF"/>
<stop offset="0.08" stop-color="#FDFCEF" stop-opacity="0.7569"/>
<stop offset="0.22" stop-color="#FAF9F0" stop-opacity="0.4096"/>
<stop offset="0.36" stop-color="#F7F7F0" stop-opacity="0.1936"/>
<stop offset="0.5" stop-color="#F5F5F1" stop-opacity="0.0784"/>
<stop offset="0.64" stop-color="#F4F3F1" stop-opacity="0.0256"/>
<stop offset="0.77" stop-color="#F2F2F1" stop-opacity="0.01"/>
<stop offset="0.89" stop-color="#F2F2F1" stop-opacity="0.01"/>
<stop offset="1" stop-color="#F2F2F2" stop-opacity="0"/>
</radialGradient>
<radialGradient id="paint29_radial_703_16697" cx="0" cy="0" r="1" gradientUnits="userSpaceOnUse" gradientTransform="translate(38.16 199.719) rotate(-90) scale(8.5943 8.59429)">
<stop stop-color="#FFFEEF"/>
<stop offset="0.18" stop-color="#FCFCEF" stop-opacity="0.7056"/>
<stop offset="0.58" stop-color="#F7F7F0" stop-opacity="0.1936"/>
<stop offset="1" stop-color="#F2F2F2" stop-opacity="0"/>
</radialGradient>
<radialGradient id="paint30_radial_703_16697" cx="0" cy="0" r="1" gradientUnits="userSpaceOnUse" gradientTransform="translate(38.2079 199.462) rotate(-45) scale(4.74666 4.74664)">
<stop stop-color="#FFFEEF"/>
<stop offset="0.18" stop-color="#FCFCEF" stop-opacity="0.7056"/>
<stop offset="0.58" stop-color="#F7F7F0" stop-opacity="0.1936"/>
<stop offset="1" stop-color="#F2F2F2" stop-opacity="0"/>
</radialGradient>
<radialGradient id="paint31_radial_703_16697" cx="0" cy="0" r="1" gradientUnits="userSpaceOnUse" gradientTransform="translate(38.3297 199.579) rotate(-135) scale(4.74664 4.74664)">
<stop stop-color="#FFFEEF"/>
<stop offset="0.18" stop-color="#FCFCEF" stop-opacity="0.7056"/>
<stop offset="0.58" stop-color="#F7F7F0" stop-opacity="0.1936"/>
<stop offset="1" stop-color="#F2F2F2" stop-opacity="0"/>
</radialGradient>
<radialGradient id="paint32_radial_703_16697" cx="0" cy="0" r="1" gradientUnits="userSpaceOnUse" gradientTransform="translate(38.1601 199.444) scale(7.31031 7.31033)">
<stop stop-color="#FFCC33"/>
<stop offset="0.18" stop-color="#FBCF51" stop-opacity="0.7056"/>
<stop offset="0.58" stop-color="#F4D99D" stop-opacity="0.1936"/>
<stop offset="1" stop-color="#ECE4F2" stop-opacity="0"/>
</radialGradient>
<radialGradient id="paint33_radial_703_16697" cx="0" cy="0" r="1" gradientUnits="userSpaceOnUse" gradientTransform="translate(38.16 199.706) rotate(-90) scale(7.31033)">
<stop stop-color="#FFCC33"/>
<stop offset="0.18" stop-color="#FBCF51" stop-opacity="0.7056"/>
<stop offset="0.58" stop-color="#F4D99D" stop-opacity="0.1936"/>
<stop offset="1" stop-color="#ECE4F2" stop-opacity="0"/>
</radialGradient>
<radialGradient id="paint34_radial_703_16697" cx="0" cy="0" r="1" gradientUnits="userSpaceOnUse" gradientTransform="translate(38.202 199.485) rotate(-45) scale(4.03591 4.03591)">
<stop stop-color="#FFCC33"/>
<stop offset="0.18" stop-color="#FBCF51" stop-opacity="0.7056"/>
<stop offset="0.58" stop-color="#F4D99D" stop-opacity="0.1936"/>
<stop offset="1" stop-color="#ECE4F2" stop-opacity="0"/>
</radialGradient>
<radialGradient id="paint35_radial_703_16697" cx="0" cy="0" r="1" gradientUnits="userSpaceOnUse" gradientTransform="translate(38.3032 199.589) rotate(-135) scale(4.03591 4.03591)">
<stop stop-color="#FFCC33"/>
<stop offset="0.18" stop-color="#FBCF51" stop-opacity="0.7056"/>
<stop offset="0.58" stop-color="#F4D99D" stop-opacity="0.1936"/>
<stop offset="1" stop-color="#ECE4F2" stop-opacity="0"/>
</radialGradient>
<radialGradient id="paint36_radial_703_16697" cx="0" cy="0" r="1" gradientUnits="userSpaceOnUse" gradientTransform="translate(119.748 112.499) scale(89.8133 76.7628)">
<stop stop-color="#D97EB9"/>
<stop offset="0.38" stop-color="#D97EB9"/>
<stop offset="0.52" stop-color="#D97EB9"/>
<stop offset="0.61" stop-color="#D97EB9"/>
<stop offset="0.69" stop-color="#D97EB9"/>
<stop offset="0.76" stop-color="#D97EB9"/>
<stop offset="0.82" stop-color="#D97EB9"/>
<stop offset="0.87" stop-color="#D97EB9"/>
<stop offset="0.92" stop-color="#D97EB9"/>
<stop offset="0.97" stop-color="#D97EB9"/>
<stop offset="1" stop-color="#D97EB9"/>
</radialGradient>
<radialGradient id="paint37_radial_703_16697" cx="0" cy="0" r="1" gradientUnits="userSpaceOnUse" gradientTransform="translate(115.995 102.695) scale(95.575 95.575)">
<stop stop-color="#ECE4F2"/>
<stop offset="0.38" stop-color="#EAE2F0"/>
<stop offset="0.52" stop-color="#E3DBEB"/>
<stop offset="0.61" stop-color="#D7D1E2"/>
<stop offset="0.69" stop-color="#C6C1D5"/>
<stop offset="0.76" stop-color="#B0ADC4"/>
<stop offset="0.82" stop-color="#9593B0"/>
<stop offset="0.87" stop-color="#747697"/>
<stop offset="0.92" stop-color="#4F537B"/>
<stop offset="0.97" stop-color="#262D5C"/>
<stop offset="1" stop-color="#010B40"/>
</radialGradient>
<radialGradient id="paint38_radial_703_16697" cx="0" cy="0" r="1" gradientUnits="userSpaceOnUse" gradientTransform="translate(115.995 102.695) scale(95.575 95.575)">
<stop stop-color="#ECE4F2"/>
<stop offset="0.38" stop-color="#EAE2F0"/>
<stop offset="0.52" stop-color="#E3DBEB"/>
<stop offset="0.61" stop-color="#D7D1E2"/>
<stop offset="0.69" stop-color="#C6C1D5"/>
<stop offset="0.76" stop-color="#B0ADC4"/>
<stop offset="0.82" stop-color="#9593B0"/>
<stop offset="0.87" stop-color="#747697"/>
<stop offset="0.92" stop-color="#4F537B"/>
<stop offset="0.97" stop-color="#262D5C"/>
<stop offset="1" stop-color="#010B40"/>
</radialGradient>
<radialGradient id="paint39_radial_703_16697" cx="0" cy="0" r="1" gradientUnits="userSpaceOnUse" gradientTransform="translate(56.1601 227.147) scale(2.08665)">
<stop stop-color="white"/>
<stop offset="0.18" stop-color="#FBFAFC" stop-opacity="0.7056"/>
<stop offset="0.58" stop-color="#F4EFF7" stop-opacity="0.1936"/>
<stop offset="1" stop-color="#ECE4F2" stop-opacity="0"/>
</radialGradient>
<radialGradient id="paint40_radial_703_16697" cx="0" cy="0" r="1" gradientUnits="userSpaceOnUse" gradientTransform="translate(56.1601 226.91) scale(5.37052 5.37052)">
<stop stop-color="#FFFEEF"/>
<stop offset="0.08" stop-color="#FDFCEF" stop-opacity="0.7569"/>
<stop offset="0.22" stop-color="#FAF9F0" stop-opacity="0.4096"/>
<stop offset="0.36" stop-color="#F7F7F0" stop-opacity="0.1936"/>
<stop offset="0.5" stop-color="#F5F5F1" stop-opacity="0.0784"/>
<stop offset="0.64" stop-color="#F4F3F1" stop-opacity="0.0256"/>
<stop offset="0.77" stop-color="#F2F2F1" stop-opacity="0.01"/>
<stop offset="0.89" stop-color="#F2F2F1" stop-opacity="0.01"/>
<stop offset="1" stop-color="#F2F2F2" stop-opacity="0"/>
</radialGradient>
<radialGradient id="paint41_radial_703_16697" cx="0" cy="0" r="1" gradientUnits="userSpaceOnUse" gradientTransform="translate(56.1601 227.147) rotate(-90) scale(6.58234 6.58233)">
<stop stop-color="#FFFEEF"/>
<stop offset="0.18" stop-color="#FCFCEF" stop-opacity="0.7056"/>
<stop offset="0.58" stop-color="#F7F7F0" stop-opacity="0.1936"/>
<stop offset="1" stop-color="#F2F2F2" stop-opacity="0"/>
</radialGradient>
<radialGradient id="paint42_radial_703_16697" cx="0" cy="0" r="1" gradientUnits="userSpaceOnUse" gradientTransform="translate(56.1967 226.95) rotate(-45) scale(3.63545 3.63543)">
<stop stop-color="#FFFEEF"/>
<stop offset="0.18" stop-color="#FCFCEF" stop-opacity="0.7056"/>
<stop offset="0.58" stop-color="#F7F7F0" stop-opacity="0.1936"/>
<stop offset="1" stop-color="#F2F2F2" stop-opacity="0"/>
</radialGradient>
<radialGradient id="paint43_radial_703_16697" cx="0" cy="0" r="1" gradientUnits="userSpaceOnUse" gradientTransform="translate(56.2902 227.04) rotate(-135) scale(3.63543 3.63543)">
<stop stop-color="#FFFEEF"/>
<stop offset="0.18" stop-color="#FCFCEF" stop-opacity="0.7056"/>
<stop offset="0.58" stop-color="#F7F7F0" stop-opacity="0.1936"/>
<stop offset="1" stop-color="#F2F2F2" stop-opacity="0"/>
</radialGradient>
<radialGradient id="paint44_radial_703_16697" cx="0" cy="0" r="1" gradientUnits="userSpaceOnUse" gradientTransform="translate(56.1601 226.936) scale(5.59894 5.59895)">
<stop stop-color="white"/>
<stop offset="0.18" stop-color="white" stop-opacity="0.7056"/>
<stop offset="0.58" stop-color="white" stop-opacity="0.1936"/>
<stop offset="1" stop-color="#ECE4F2" stop-opacity="0"/>
</radialGradient>
<radialGradient id="paint45_radial_703_16697" cx="0" cy="0" r="1" gradientUnits="userSpaceOnUse" gradientTransform="translate(56.1601 227.137) rotate(-90) scale(5.59895)">
<stop stop-color="white"/>
<stop offset="0.18" stop-color="white" stop-opacity="0.7056"/>
<stop offset="0.58" stop-color="white" stop-opacity="0.1936"/>
<stop offset="1" stop-color="#ECE4F2" stop-opacity="0"/>
</radialGradient>
<radialGradient id="paint46_radial_703_16697" cx="0" cy="0" r="1" gradientUnits="userSpaceOnUse" gradientTransform="translate(56.1922 226.968) rotate(-45) scale(3.09108 3.09109)">
<stop stop-color="white"/>
<stop offset="0.18" stop-color="white" stop-opacity="0.7056"/>
<stop offset="0.58" stop-color="white" stop-opacity="0.1936"/>
<stop offset="1" stop-color="white" stop-opacity="0"/>
</radialGradient>
<radialGradient id="paint47_radial_703_16697" cx="0" cy="0" r="1" gradientUnits="userSpaceOnUse" gradientTransform="translate(56.2697 227.047) rotate(-135) scale(3.09108 3.09109)">
<stop stop-color="white"/>
<stop offset="0.18" stop-color="white" stop-opacity="0.7056"/>
<stop offset="0.58" stop-color="white" stop-opacity="0.1936"/>
<stop offset="1" stop-color="#ECE4F2" stop-opacity="0"/>
</radialGradient>
<clipPath id="clip0_703_16697">
<rect width="236.5" height="244" fill="white" transform="translate(0.75)"/>
</clipPath>
<clipPath id="clip1_703_16697">
<rect width="106" height="50.5" fill="white" transform="translate(14.75 129)"/>
</clipPath>
<clipPath id="clip2_703_16697">
<rect width="67.5" height="29.5" fill="white" transform="translate(105.75 40.5)"/>
</clipPath>
</defs>
</svg>
