<svg width="280" height="206" viewBox="0 0 280 206" fill="none" xmlns="http://www.w3.org/2000/svg">
<g clip-path="url(#clip0_1177_16648)" filter="url(#filter0_d_1177_16648)">
<path d="M268.791 92.7274C268.428 94.0357 267.157 94.8817 265.885 95.7801C263.116 97.7251 259.825 99.1817 256.477 100.481C233.03 109.578 204.294 111.305 180.347 103.011C176.227 101.58 172.232 99.8446 168.839 97.5245C167.5 96.6087 164.095 94.498 163.755 93.0501C163.335 91.3493 168.011 91.7418 169.531 91.4627C169.702 91.4278 169.883 91.4016 170.053 91.3667C172.709 90.8957 175.433 90.6079 178.145 90.416C196.383 89.0903 214.985 91.7854 232.996 89.1775C241.735 87.9128 250.383 85.3921 259.235 86.0114C261.63 86.1771 264.07 86.5957 265.999 87.6947C266.147 87.7819 266.283 87.8604 266.419 87.9651C268.121 89.1164 269.245 91.0527 268.78 92.7187L268.791 92.7274Z" fill="#75B8EB"/>
<g style="mix-blend-mode:multiply" opacity="0.5">
<path d="M268.791 92.7275C268.428 94.0358 267.157 94.8819 265.885 95.7803C263.116 97.7253 259.825 99.1819 256.477 100.481C233.03 109.579 204.294 111.306 180.347 103.011C176.227 101.58 172.232 99.8448 168.839 97.5247C167.5 96.6089 164.095 94.4981 163.755 93.0502C163.335 91.3494 168.011 91.7419 169.531 91.4628C169.702 91.4279 169.883 91.4018 170.053 91.3669C170.905 91.4803 171.756 91.5849 172.562 91.6547C176.715 92.0298 180.858 92.3874 185 92.7275C189.665 93.1113 194.329 93.4689 199.005 93.7829C221.624 95.3005 245.389 95.693 265.874 88.1659C266.056 88.1048 266.237 88.035 266.43 87.9565C268.133 89.1079 269.256 91.0442 268.791 92.7101V92.7275Z" fill="#75B8EB"/>
</g>
<path d="M268.859 92.2998L266.964 112.893L261.176 175.631C260.858 179.102 257.816 182.068 253.515 183.158C221.397 191.33 193.421 186.708 178.872 182.94C174.616 181.832 171.654 178.875 171.347 175.439L164.447 100.612L163.743 93.0586C166.308 93.2854 168.884 93.8 171.427 94.0093C176.216 94.3844 181.039 94.5588 185.817 94.8554C194.829 95.4136 203.806 96.2771 212.828 96.5736C229.409 97.1144 246.218 96.5213 262.435 93.5907C264.592 93.1982 266.725 92.7708 268.848 92.2998H268.859Z" fill="#68CEFF"/>
<g style="mix-blend-mode:multiply" opacity="0.5">
<path d="M266.964 112.893L261.176 175.631C260.858 179.102 257.816 182.067 253.515 183.158C221.397 191.33 193.421 186.708 178.872 182.94C174.616 181.832 171.654 178.875 171.347 175.439L164.447 100.612C167.409 109.482 169.77 118.475 171.495 127.537C172.891 134.855 173.901 142.234 176.386 149.377C178.883 156.512 182.98 163.498 189.755 168.749C196.52 174 206.246 177.314 215.779 176.346C223.156 175.596 229.829 172.386 234.97 168.252C240.112 164.117 243.891 159.102 247.284 154.017C255.989 140.995 262.606 127.153 266.964 112.901V112.893Z" fill="#68CEFF"/>
</g>
<g style="mix-blend-mode:screen" opacity="0.5">
<path d="M224.79 99.2514C212.851 99.3037 200.946 98.4403 189.086 97.3674C185 97.0011 180.847 96.5999 176.795 97.1581C174.832 97.4285 172.811 97.9693 171.506 99.1293C170.144 100.333 169.747 102.042 170.019 103.621C170.303 105.2 171.188 106.674 172.176 108.078C176.182 113.791 182.072 118.894 189.688 121.711C195.691 123.935 202.444 124.641 209.106 124.903C214.871 125.121 220.761 125.008 226.266 123.682C233.053 122.042 238.886 118.632 244.095 114.899C249.305 111.166 254.026 107.04 259.485 103.525C260.983 102.566 262.56 101.624 263.57 100.342C264.354 99.3648 265.522 95.937 262.901 95.937C261.482 95.937 259.848 96.4255 258.452 96.6435C256.943 96.8703 255.422 97.0883 253.901 97.2889C247.704 98.1001 241.462 98.667 235.198 98.981C231.736 99.1555 228.275 99.2427 224.802 99.2601L224.79 99.2514Z" fill="#9CF1FF"/>
</g>
<g style="mix-blend-mode:screen" opacity="0.5">
<path d="M192.4 99.3126C188.848 99.0073 185.148 98.6933 181.766 99.583C180.892 99.8184 179.927 100.255 179.859 100.961C179.791 101.694 180.71 102.243 181.539 102.61C188.133 105.549 195.725 107.014 203.329 107.389C210.933 107.764 218.582 107.075 226.05 105.915C230.034 105.296 234.051 104.52 237.626 103.002C238.523 102.618 240.509 101.737 238.886 101.066C237.547 100.516 235.674 100.752 234.244 100.821C225.267 101.249 216.267 100.996 207.313 100.446C202.33 100.141 197.359 99.7399 192.4 99.3038V99.3126Z" fill="#9CF1FF"/>
</g>
<g style="mix-blend-mode:screen" opacity="0.5">
<path d="M244.561 100.42C244.073 100.577 243.585 100.769 243.244 101.083C242.904 101.397 242.745 101.859 242.994 102.217C243.312 102.67 244.095 102.775 244.765 102.801C245.73 102.836 246.706 102.836 247.682 102.792C249.327 102.714 250.973 102.513 252.516 102.077C253.424 101.824 255.808 101.17 256.035 100.315C256.398 98.8763 251.359 99.2251 250.428 99.3124C248.431 99.5043 246.422 99.8183 244.561 100.429V100.42Z" fill="#9CF1FF"/>
</g>
<path opacity="0.19" d="M215.949 2.17627C184.149 2.17627 158.364 7.90715 158.364 14.9764C158.364 15.1022 158.364 15.228 158.386 15.3424L169.021 177.477L169.633 186.685C169.633 186.685 170.212 192.405 172.936 194.167C173.106 194.292 173.299 194.384 173.492 194.464C175.206 195.162 198.211 197.918 215.961 197.564C233.711 197.918 256.727 195.162 258.429 194.464C258.894 194.281 259.303 193.983 259.666 193.606C261.811 191.421 262.299 186.674 262.299 186.674L262.855 178.186L273.512 15.3424C273.535 15.2166 273.535 15.0908 273.535 14.9764C273.546 7.90715 247.761 2.17627 215.949 2.17627Z" fill="#9CCAFF"/>
<path opacity="0.33" d="M273.444 16.5209L262.969 176.265L262.844 178.198L262.288 186.686C262.288 186.686 262.288 186.709 262.288 186.743C262.288 186.766 262.288 186.789 262.288 186.812C262.288 186.846 262.288 186.869 262.288 186.915C262.288 186.949 262.288 186.995 262.265 187.052C262.265 187.086 262.265 187.132 262.242 187.178C262.242 187.246 262.22 187.303 262.208 187.384C262.208 187.429 262.186 187.486 262.186 187.544C262.186 187.624 262.163 187.715 262.14 187.807C262.14 187.864 262.118 187.921 262.118 187.978C262.095 188.081 262.083 188.173 262.049 188.287C262.049 188.322 262.027 188.367 262.027 188.413C261.981 188.642 261.913 188.882 261.856 189.134C261.856 189.202 261.834 189.271 261.811 189.34C261.788 189.454 261.743 189.557 261.709 189.683C261.709 189.717 261.686 189.763 261.675 189.809C261.675 189.854 261.652 189.9 261.641 189.946C261.607 190.06 261.573 190.163 261.527 190.289C261.493 190.38 261.459 190.472 261.425 190.575C261.391 190.689 261.346 190.792 261.3 190.895C261.255 190.998 261.221 191.101 261.176 191.216C261.141 191.318 261.096 191.421 261.051 191.524L260.88 191.856C260.835 191.948 260.801 192.028 260.756 192.131C260.653 192.325 260.54 192.508 260.426 192.691C260.404 192.725 260.381 192.76 260.358 192.794C260.256 192.943 260.143 193.092 260.041 193.217C259.995 193.275 259.95 193.332 259.904 193.377C259.825 193.458 259.768 193.549 259.689 193.618V193.595C259.326 193.961 258.928 194.281 258.452 194.464C256.749 195.162 233.733 197.919 215.983 197.564C198.233 197.919 175.229 195.162 173.515 194.464C172.981 194.247 172.516 193.869 172.119 193.412C172.096 193.389 172.051 193.343 172.028 193.32C171.926 193.194 171.835 193.057 171.733 192.931C171.699 192.874 171.665 192.828 171.631 192.783C171.54 192.657 171.461 192.508 171.37 192.371C171.347 192.302 171.302 192.245 171.268 192.199C171.2 192.062 171.12 191.913 171.052 191.776C171.029 191.707 170.995 191.65 170.961 191.582C170.893 191.433 170.836 191.284 170.78 191.135C170.757 191.067 170.723 191.01 170.7 190.941L170.53 190.495C170.507 190.426 170.485 190.358 170.462 190.289C170.405 190.14 170.36 189.992 170.326 189.854C170.303 189.786 170.28 189.717 170.258 189.648C170.235 189.58 170.224 189.511 170.201 189.443C170.178 189.362 170.155 189.282 170.144 189.225C170.121 189.168 170.11 189.099 170.087 189.042C170.065 188.905 170.019 188.768 169.997 188.642C169.997 188.585 169.974 188.527 169.963 188.47C169.94 188.344 169.906 188.219 169.894 188.104C169.872 188.047 169.872 188.001 169.86 187.955C169.838 187.841 169.826 187.738 169.804 187.635C169.804 187.589 169.781 187.555 169.781 187.509C169.758 187.418 169.747 187.326 169.736 187.246C169.736 187.2 169.736 187.178 169.713 187.132C169.713 187.063 169.69 186.995 169.69 186.937C169.69 186.903 169.69 186.88 169.69 186.846C169.69 186.823 169.69 186.777 169.69 186.754C169.69 186.709 169.69 186.686 169.69 186.686L169.077 177.477L168.964 175.773L158.409 15.7773C158.579 16.315 158.829 16.8297 159.169 17.2873C159.204 17.3216 159.238 17.3673 159.283 17.4131L159.306 17.436C159.601 17.7563 159.907 18.0537 160.202 18.374C160.202 18.374 160.202 18.374 160.225 18.3968C160.225 18.3968 160.248 18.3968 160.248 18.4197C160.27 18.4197 160.407 18.5112 160.577 18.6256L171.347 171.621C171.665 176.128 174.627 180.005 178.872 181.458C193.421 186.4 221.397 192.462 253.515 181.744C257.816 180.314 260.846 176.425 261.176 171.872L272.025 17.6304C272.445 17.3902 272.854 17.1157 273.194 16.7496C273.274 16.681 273.365 16.6009 273.444 16.5323V16.5209Z" fill="#A7C0FF"/>
<path opacity="0.33" d="M208.89 192.531C207.358 193.549 205.44 193.686 203.613 193.766C196.281 194.064 188.927 193.824 181.629 193.057C178.315 192.703 174.922 192.222 171.983 190.632C171.347 190.289 170.746 189.889 170.167 189.454C170.144 189.374 170.121 189.294 170.11 189.237C170.087 189.179 170.076 189.111 170.053 189.054C170.031 188.916 169.985 188.779 169.963 188.653C169.963 188.596 169.94 188.539 169.928 188.482C169.906 188.356 169.872 188.23 169.86 188.116C169.838 188.058 169.838 188.013 169.826 187.967C169.804 187.852 169.792 187.75 169.77 187.647C169.77 187.601 169.747 187.566 169.747 187.521C169.724 187.429 169.713 187.338 169.701 187.258C169.701 187.212 169.701 187.189 169.679 187.143C169.679 187.075 169.656 187.006 169.656 186.949C169.656 186.914 169.656 186.892 169.656 186.857C169.656 186.834 169.656 186.789 169.656 186.766C169.656 186.72 169.656 186.697 169.656 186.697L169.043 177.489L168.93 175.784C169.327 176.253 169.736 176.7 170.178 177.134C174.105 181.069 179.167 183.734 184.376 185.519C191.821 188.081 199.709 189.065 207.335 191.021C208.118 191.227 209.083 191.742 208.901 192.531H208.89Z" fill="#A7FFFF"/>
<path opacity="0.33" d="M262.969 176.265L262.844 178.198L262.288 186.686C262.288 186.686 262.288 186.709 262.288 186.743C262.288 186.766 262.288 186.789 262.288 186.812C262.288 186.846 262.288 186.869 262.288 186.914C262.288 186.949 262.288 186.995 262.265 187.052C262.265 187.086 262.265 187.132 262.242 187.178C262.242 187.246 262.22 187.303 262.208 187.383C262.208 187.429 262.186 187.486 262.186 187.544C262.186 187.624 262.163 187.715 262.14 187.807C262.14 187.864 262.118 187.921 262.118 187.978C262.095 188.081 262.083 188.173 262.049 188.287C262.049 188.321 262.027 188.367 262.027 188.413C261.981 188.642 261.913 188.882 261.856 189.134C261.856 189.202 261.834 189.271 261.811 189.34C261.788 189.454 261.743 189.557 261.709 189.683C261.709 189.717 261.686 189.763 261.675 189.809C261.255 190.106 260.824 190.38 260.37 190.621C257.43 192.222 254.037 192.703 250.723 193.046C243.425 193.801 236.071 194.052 228.728 193.755C226.901 193.686 224.983 193.538 223.451 192.52C223.258 191.73 224.234 191.216 225.017 191.01C232.644 189.054 240.531 188.07 247.977 185.507C253.174 183.712 258.236 181.058 262.174 177.123C262.447 176.848 262.73 176.562 262.991 176.265H262.969Z" fill="#A7FFFF"/>
<path d="M273.546 14.9764C273.546 15.1022 273.546 15.228 273.523 15.3424C272.65 22.2401 247.216 27.7879 215.961 27.7879C184.705 27.7879 159.26 22.2515 158.386 15.3424C158.364 15.2166 158.364 15.0908 158.364 14.9764C158.364 7.90715 184.149 2.17627 215.949 2.17627C247.75 2.17627 273.535 7.90715 273.535 14.9764H273.546Z" stroke="white" stroke-width="0.81" stroke-miterlimit="10"/>
<path d="M215.949 2.17627C184.149 2.17627 158.364 7.90715 158.364 14.9764C158.364 15.1022 158.364 15.228 158.386 15.3424L169.021 177.477L169.633 186.685C169.633 186.685 170.212 192.405 172.936 194.167C173.106 194.292 173.299 194.384 173.492 194.464C175.206 195.162 198.211 197.918 215.961 197.564C233.711 197.918 256.727 195.162 258.429 194.464C258.894 194.281 259.303 193.983 259.666 193.606C261.811 191.421 262.299 186.674 262.299 186.674L262.855 178.186L273.512 15.3424C273.535 15.2166 273.535 15.0908 273.535 14.9764C273.546 7.90715 247.761 2.17627 215.949 2.17627Z" stroke="white" stroke-width="0.81" stroke-miterlimit="10"/>
<path opacity="0.19" d="M268.008 20.4558L259.371 177.226C258.009 179.308 255.966 180.92 253.515 181.733C249.259 183.151 245.06 184.283 240.963 185.153L248.283 25.569C264.898 25.0313 268.008 20.4443 268.008 20.4443V20.4558Z" fill="#9CCAFF"/>
<path opacity="0.19" d="M190.822 184.786C187.679 184.077 184.819 183.311 182.265 182.533C181.073 182.167 179.938 181.812 178.883 181.446C178.418 181.286 177.986 181.103 177.555 180.886L165.979 21.3477L171.983 22.8233L182.413 25.397L190.822 184.798V184.786Z" fill="#9CCAFF"/>
<path opacity="0.19" d="M182.265 182.533C181.073 182.167 179.938 181.812 178.883 181.446C178.418 181.286 177.986 181.103 177.555 180.886L165.979 21.3477L171.983 22.8233C172.539 28.8516 179.78 142.325 182.265 182.533Z" fill="#9CCAFF"/>
</g>
<path d="M9.24285 87.2734C8.67514 87.2734 8.12827 87.1693 7.60223 86.9609C7.08139 86.7474 6.61264 86.4141 6.19598 85.9609C5.78452 85.5026 5.45639 84.9089 5.2116 84.1797C4.97202 83.4505 4.85223 82.5677 4.85223 81.5312V81.5156C4.85223 80.2448 5.02931 79.1589 5.38348 78.2578C5.73764 77.3516 6.24806 76.6589 6.91473 76.1797C7.58139 75.6953 8.37827 75.4531 9.30535 75.4531C9.97202 75.4531 10.5736 75.5755 11.11 75.8203C11.6465 76.0651 12.0918 76.4036 12.446 76.8359C12.8001 77.263 13.0371 77.7604 13.1569 78.3281L13.1804 78.4219H11.4382L11.4069 78.3438C11.3027 78.0521 11.1517 77.8047 10.9538 77.6016C10.7611 77.3932 10.5241 77.2318 10.2429 77.1172C9.96681 76.9974 9.65171 76.9375 9.29754 76.9375C8.66733 76.9375 8.15171 77.125 7.75066 77.5C7.35483 77.8698 7.06056 78.3646 6.86785 78.9844C6.67514 79.6042 6.56316 80.2865 6.53191 81.0312C6.52671 81.1042 6.5241 81.1771 6.5241 81.25C6.5241 81.3229 6.5241 81.3958 6.5241 81.4688L6.86004 83.3516C6.86004 83.8099 6.96421 84.224 7.17254 84.5938C7.38608 84.9635 7.67254 85.2578 8.03191 85.4766C8.39129 85.6953 8.78973 85.8047 9.22723 85.8047C9.66993 85.8047 10.0684 85.6979 10.4225 85.4844C10.7819 85.2708 11.0658 84.9818 11.2741 84.6172C11.4876 84.2526 11.5944 83.8464 11.5944 83.3984V83.3828C11.5944 82.9193 11.4929 82.5104 11.2897 82.1562C11.0918 81.7969 10.8158 81.5156 10.4616 81.3125C10.1074 81.1042 9.70379 81 9.25066 81C8.80275 81 8.3965 81.1016 8.03191 81.3047C7.67254 81.5078 7.38608 81.7865 7.17254 82.1406C6.96421 82.4896 6.86004 82.8906 6.86004 83.3438V83.3516H6.3991V81.2969H6.67254C6.81316 80.9948 7.01629 80.7135 7.28191 80.4531C7.55275 80.1927 7.88608 79.9844 8.28191 79.8281C8.67775 79.6667 9.13087 79.5859 9.64129 79.5859C10.36 79.5859 10.9955 79.75 11.5475 80.0781C12.1048 80.401 12.5397 80.8438 12.8522 81.4062C13.1699 81.9688 13.3288 82.612 13.3288 83.3359V83.3516C13.3288 84.1068 13.1517 84.7812 12.7975 85.375C12.4486 85.9635 11.9668 86.4271 11.3522 86.7656C10.7376 87.1042 10.0345 87.2734 9.24285 87.2734ZM24.86 87.2734C24.0527 87.2734 23.3288 87.138 22.6882 86.8672C22.0475 86.5911 21.5007 86.1953 21.0475 85.6797C20.5944 85.1641 20.2455 84.5443 20.0007 83.8203C19.7611 83.0911 19.6413 82.2734 19.6413 81.3672V81.3516C19.6413 80.1536 19.8548 79.1146 20.2819 78.2344C20.709 77.349 21.3132 76.6641 22.0944 76.1797C22.8757 75.6953 23.7897 75.4531 24.8366 75.4531C25.6908 75.4531 26.4538 75.6042 27.1257 75.9062C27.7975 76.2083 28.3496 76.6328 28.7819 77.1797C29.2142 77.7214 29.4981 78.3568 29.6335 79.0859L29.6413 79.1641H27.8835L27.86 79.0859C27.6621 78.4193 27.3001 77.9062 26.7741 77.5469C26.2533 77.1875 25.6074 77.0078 24.8366 77.0078C24.1439 77.0078 23.5423 77.1849 23.0319 77.5391C22.5215 77.8932 22.1257 78.3958 21.8444 79.0469C21.5684 79.6927 21.4304 80.4583 21.4304 81.3438V81.3594C21.4304 82.0312 21.5085 82.6354 21.6647 83.1719C21.8262 83.7083 22.058 84.1667 22.36 84.5469C22.6621 84.9219 23.0241 85.2109 23.446 85.4141C23.8679 85.6172 24.3444 85.7188 24.8757 85.7188C25.4902 85.7188 26.0293 85.599 26.4929 85.3594C26.9616 85.1146 27.3262 84.776 27.5866 84.3438C27.847 83.9115 27.9798 83.4062 27.985 82.8281L27.9929 82.5781H25.0944V81.1641H29.7272V82.5625C29.7272 83.276 29.6126 83.9219 29.3835 84.5C29.1543 85.0781 28.8262 85.5755 28.3991 85.9922C27.972 86.4036 27.459 86.7214 26.86 86.9453C26.2611 87.1641 25.5944 87.2734 24.86 87.2734ZM32.0163 87V75.1875H33.7116V87H32.0163ZM38.5632 87.1406C38.0267 87.1406 37.5449 87.0391 37.1179 86.8359C36.696 86.6276 36.3626 86.3333 36.1179 85.9531C35.8731 85.5729 35.7507 85.1276 35.7507 84.6172V84.6016C35.7507 84.0911 35.8731 83.6562 36.1179 83.2969C36.3679 82.9375 36.7272 82.6562 37.196 82.4531C37.6699 82.2448 38.2429 82.1198 38.9147 82.0781L42.0475 81.8906V83.0859L39.1491 83.2734C38.5658 83.3099 38.1361 83.4349 37.86 83.6484C37.584 83.8568 37.446 84.151 37.446 84.5312V84.5469C37.446 84.9323 37.5944 85.237 37.8913 85.4609C38.1882 85.6797 38.5632 85.7891 39.0163 85.7891C39.4382 85.7891 39.8132 85.7057 40.1413 85.5391C40.4746 85.3672 40.735 85.138 40.9225 84.8516C41.11 84.5599 41.2038 84.2318 41.2038 83.8672V81.1953C41.2038 80.7266 41.058 80.3698 40.7663 80.125C40.4798 79.875 40.0527 79.75 39.485 79.75C39.0111 79.75 38.6231 79.8333 38.321 80C38.0241 80.1667 37.8262 80.401 37.7272 80.7031L37.7116 80.7266H36.0788L36.0866 80.6719C36.1543 80.2031 36.3392 79.7969 36.6413 79.4531C36.9486 79.1042 37.3496 78.8333 37.8444 78.6406C38.3444 78.4479 38.9147 78.3516 39.5554 78.3516C40.2689 78.3516 40.8731 78.4661 41.3679 78.6953C41.8679 78.9193 42.2455 79.2448 42.5007 79.6719C42.7611 80.0938 42.8913 80.6016 42.8913 81.1953V87H41.2038V85.7969H41.0788C40.9121 86.0833 40.7038 86.3281 40.4538 86.5312C40.2038 86.7292 39.9199 86.8802 39.6022 86.9844C39.2845 87.0885 38.9382 87.1406 38.5632 87.1406ZM48.3679 87.1641C47.6856 87.1641 47.0918 87.0651 46.5866 86.8672C46.0814 86.6641 45.6804 86.3854 45.3835 86.0312C45.0866 85.6719 44.9121 85.2552 44.86 84.7812V84.7656H46.5632V84.7812C46.6725 85.099 46.8809 85.3568 47.1882 85.5547C47.4955 85.7526 47.9017 85.8516 48.4069 85.8516C48.7559 85.8516 49.0606 85.8021 49.321 85.7031C49.5866 85.6042 49.7949 85.4661 49.946 85.2891C50.097 85.112 50.1725 84.9089 50.1725 84.6797V84.6641C50.1725 84.3984 50.0658 84.1745 49.8522 83.9922C49.6387 83.8099 49.2871 83.6615 48.7975 83.5469L47.4382 83.2344C46.9069 83.1146 46.4668 82.9505 46.1179 82.7422C45.7689 82.5339 45.5111 82.2786 45.3444 81.9766C45.1777 81.6693 45.0944 81.3099 45.0944 80.8984V80.8906C45.0944 80.3958 45.235 79.9583 45.5163 79.5781C45.7975 79.1927 46.1856 78.8932 46.6804 78.6797C47.1804 78.4609 47.7507 78.3516 48.3913 78.3516C49.0371 78.3516 49.5996 78.4531 50.0788 78.6562C50.5632 78.8542 50.946 79.1302 51.2272 79.4844C51.5085 79.8333 51.6751 80.2396 51.7272 80.7031V80.7109H50.1022V80.6953C50.0241 80.3984 49.8366 80.151 49.5397 79.9531C49.2481 79.7552 48.8626 79.6562 48.3835 79.6562C48.0762 79.6562 47.8027 79.7057 47.5632 79.8047C47.3236 79.8984 47.1335 80.0312 46.9929 80.2031C46.8574 80.3698 46.7897 80.5677 46.7897 80.7969V80.8125C46.7897 80.9896 46.834 81.1458 46.9225 81.2812C47.0163 81.4115 47.1621 81.5286 47.36 81.6328C47.558 81.7318 47.8132 81.8203 48.1257 81.8984L49.4772 82.2031C50.2897 82.3958 50.8939 82.6745 51.2897 83.0391C51.6908 83.4036 51.8913 83.8932 51.8913 84.5078V84.5234C51.8913 85.0443 51.7376 85.5052 51.4304 85.9062C51.1231 86.3021 50.7038 86.612 50.1725 86.8359C49.6465 87.0547 49.0449 87.1641 48.3679 87.1641ZM56.8366 87.1641C56.1543 87.1641 55.5606 87.0651 55.0554 86.8672C54.5501 86.6641 54.1491 86.3854 53.8522 86.0312C53.5554 85.6719 53.3809 85.2552 53.3288 84.7812V84.7656H55.0319V84.7812C55.1413 85.099 55.3496 85.3568 55.6569 85.5547C55.9642 85.7526 56.3705 85.8516 56.8757 85.8516C57.2246 85.8516 57.5293 85.8021 57.7897 85.7031C58.0554 85.6042 58.2637 85.4661 58.4147 85.2891C58.5658 85.112 58.6413 84.9089 58.6413 84.6797V84.6641C58.6413 84.3984 58.5345 84.1745 58.321 83.9922C58.1074 83.8099 57.7559 83.6615 57.2663 83.5469L55.9069 83.2344C55.3757 83.1146 54.9356 82.9505 54.5866 82.7422C54.2376 82.5339 53.9798 82.2786 53.8132 81.9766C53.6465 81.6693 53.5632 81.3099 53.5632 80.8984V80.8906C53.5632 80.3958 53.7038 79.9583 53.985 79.5781C54.2663 79.1927 54.6543 78.8932 55.1491 78.6797C55.6491 78.4609 56.2194 78.3516 56.86 78.3516C57.5059 78.3516 58.0684 78.4531 58.5475 78.6562C59.0319 78.8542 59.4147 79.1302 59.696 79.4844C59.9772 79.8333 60.1439 80.2396 60.196 80.7031V80.7109H58.571V80.6953C58.4929 80.3984 58.3054 80.151 58.0085 79.9531C57.7168 79.7552 57.3314 79.6562 56.8522 79.6562C56.5449 79.6562 56.2715 79.7057 56.0319 79.8047C55.7923 79.8984 55.6022 80.0312 55.4616 80.2031C55.3262 80.3698 55.2585 80.5677 55.2585 80.7969V80.8125C55.2585 80.9896 55.3027 81.1458 55.3913 81.2812C55.485 81.4115 55.6309 81.5286 55.8288 81.6328C56.0267 81.7318 56.2819 81.8203 56.5944 81.8984L57.946 82.2031C58.7585 82.3958 59.3626 82.6745 59.7585 83.0391C60.1595 83.4036 60.36 83.8932 60.36 84.5078V84.5234C60.36 85.0443 60.2064 85.5052 59.8991 85.9062C59.5918 86.3021 59.1725 86.612 58.6413 86.8359C58.1152 87.0547 57.5137 87.1641 56.8366 87.1641ZM13.4069 106L10.3679 94.7266H12.196L14.2663 103.484H14.3679L16.7194 94.7266H18.3522L20.7194 103.484H20.821L22.8835 94.7266H24.7038L21.6647 106H20.0085L17.5866 97.5781H17.485L15.0632 106H13.4069ZM28.0944 106.141C27.558 106.141 27.0762 106.039 26.6491 105.836C26.2272 105.628 25.8939 105.333 25.6491 104.953C25.4043 104.573 25.2819 104.128 25.2819 103.617V103.602C25.2819 103.091 25.4043 102.656 25.6491 102.297C25.8991 101.938 26.2585 101.656 26.7272 101.453C27.2012 101.245 27.7741 101.12 28.446 101.078L31.5788 100.891V102.086L28.6804 102.273C28.097 102.31 27.6673 102.435 27.3913 102.648C27.1152 102.857 26.9772 103.151 26.9772 103.531V103.547C26.9772 103.932 27.1257 104.237 27.4225 104.461C27.7194 104.68 28.0944 104.789 28.5475 104.789C28.9694 104.789 29.3444 104.706 29.6725 104.539C30.0059 104.367 30.2663 104.138 30.4538 103.852C30.6413 103.56 30.735 103.232 30.735 102.867V100.195C30.735 99.7266 30.5892 99.3698 30.2975 99.125C30.0111 98.875 29.584 98.75 29.0163 98.75C28.5423 98.75 28.1543 98.8333 27.8522 99C27.5554 99.1667 27.3574 99.401 27.2585 99.7031L27.2429 99.7266H25.61L25.6179 99.6719C25.6856 99.2031 25.8705 98.7969 26.1725 98.4531C26.4798 98.1042 26.8809 97.8333 27.3757 97.6406C27.8757 97.4479 28.446 97.3516 29.0866 97.3516C29.8001 97.3516 30.4043 97.4661 30.8991 97.6953C31.3991 97.9193 31.7767 98.2448 32.0319 98.6719C32.2923 99.0938 32.4225 99.6016 32.4225 100.195V106H30.735V104.797H30.61C30.4434 105.083 30.235 105.328 29.985 105.531C29.735 105.729 29.4512 105.88 29.1335 105.984C28.8158 106.089 28.4694 106.141 28.0944 106.141ZM38.0163 106.055C37.0892 106.055 36.4173 105.878 36.0007 105.523C35.5892 105.164 35.3835 104.578 35.3835 103.766V98.8516H34.0554V97.5156H35.3835V95.375H37.1179V97.5156H38.9382V98.8516H37.1179V103.352C37.1179 103.81 37.209 104.141 37.3913 104.344C37.5736 104.542 37.8757 104.641 38.2975 104.641C38.4225 104.641 38.5293 104.638 38.6179 104.633C38.7116 104.628 38.8184 104.62 38.9382 104.609V105.969C38.8027 105.99 38.6569 106.008 38.5007 106.023C38.3444 106.044 38.183 106.055 38.0163 106.055ZM44.3913 106.164C43.5632 106.164 42.8522 105.987 42.2585 105.633C41.6647 105.273 41.2064 104.766 40.8835 104.109C40.5658 103.453 40.4069 102.677 40.4069 101.781V101.773C40.4069 100.888 40.5658 100.115 40.8835 99.4531C41.2064 98.7917 41.6595 98.276 42.2429 97.9062C42.8314 97.5365 43.5189 97.3516 44.3054 97.3516C45.097 97.3516 45.7767 97.5286 46.3444 97.8828C46.9173 98.237 47.3574 98.7344 47.6647 99.375C47.972 100.01 48.1257 100.755 48.1257 101.609V102.203H41.2663V100.992H47.2819L46.4694 102.117V101.438C46.4694 100.833 46.3757 100.333 46.1882 99.9375C46.0059 99.5365 45.7533 99.237 45.4304 99.0391C45.1074 98.8411 44.735 98.7422 44.3132 98.7422C43.8913 98.7422 43.5137 98.8464 43.1804 99.0547C42.8522 99.2578 42.5918 99.5599 42.3991 99.9609C42.2116 100.362 42.1179 100.854 42.1179 101.438V102.117C42.1179 102.674 42.2116 103.151 42.3991 103.547C42.5866 103.943 42.8522 104.245 43.196 104.453C43.5449 104.661 43.9564 104.766 44.4304 104.766C44.7949 104.766 45.1074 104.716 45.3679 104.617C45.6335 104.513 45.8496 104.385 46.0163 104.234C46.1882 104.083 46.3054 103.935 46.3679 103.789L46.3991 103.727H48.0397L48.0241 103.797C47.9512 104.078 47.8236 104.359 47.6413 104.641C47.459 104.917 47.2168 105.169 46.9147 105.398C46.6179 105.628 46.2585 105.812 45.8366 105.953C45.4199 106.094 44.9382 106.164 44.3913 106.164ZM50.1413 106V97.5156H51.8366V98.7969H51.9694C52.1205 98.3438 52.3861 97.9922 52.7663 97.7422C53.1517 97.4922 53.6257 97.3672 54.1882 97.3672C54.3288 97.3672 54.4668 97.375 54.6022 97.3906C54.7376 97.4062 54.847 97.4245 54.9304 97.4453V99.0078C54.7793 98.9766 54.6283 98.9531 54.4772 98.9375C54.3314 98.9219 54.1777 98.9141 54.0163 98.9141C53.584 98.9141 53.2038 98.9974 52.8757 99.1641C52.5527 99.3307 52.2975 99.5651 52.11 99.8672C51.9277 100.164 51.8366 100.518 51.8366 100.93V106H50.1413Z" fill="white"/>
<path d="M68.5 95.1863H91.7203M91.7203 95.1863L87.0763 88.2202M91.7203 95.1863L87.0763 102.152" stroke="#B53FFE" stroke-width="2"/>
<line x1="118.424" y1="26.8643" x2="150.932" y2="26.8643" stroke="white" stroke-width="2"/>
<line x1="118.424" y1="44.2798" x2="150.932" y2="44.2798" stroke="white" stroke-width="2"/>
<line x1="118.424" y1="61.6948" x2="150.932" y2="61.6948" stroke="white" stroke-width="2"/>
<line x1="118.424" y1="79.1104" x2="150.932" y2="79.1104" stroke="white" stroke-width="2"/>
<line x1="118.424" y1="96.5254" x2="150.932" y2="96.5254" stroke="white" stroke-width="2"/>
<line x1="118.424" y1="113.94" x2="150.932" y2="113.94" stroke="white" stroke-width="2"/>
<line x1="118.424" y1="131.356" x2="150.932" y2="131.356" stroke="white" stroke-width="2"/>
<line x1="118.424" y1="148.771" x2="150.932" y2="148.771" stroke="white" stroke-width="2"/>
<line x1="118.424" y1="166.187" x2="150.932" y2="166.187" stroke="white" stroke-width="2"/>
<line x1="118.424" y1="183.602" x2="150.932" y2="183.602" stroke="white" stroke-width="2"/>
<path d="M111.896 180.063V179.023H113.976V186.313H112.826V180.063H111.896Z" fill="white"/>
<path d="M110.401 168.509C111.041 167.956 111.544 167.503 111.911 167.149C112.284 166.789 112.594 166.416 112.841 166.029C113.087 165.643 113.211 165.256 113.211 164.869C113.211 164.469 113.114 164.156 112.921 163.929C112.734 163.703 112.437 163.589 112.031 163.589C111.637 163.589 111.331 163.716 111.111 163.969C110.897 164.216 110.784 164.549 110.771 164.969H109.671C109.691 164.209 109.917 163.629 110.351 163.229C110.791 162.823 111.347 162.619 112.021 162.619C112.747 162.619 113.314 162.819 113.721 163.219C114.134 163.619 114.341 164.153 114.341 164.819C114.341 165.299 114.217 165.763 113.971 166.209C113.731 166.649 113.441 167.046 113.101 167.399C112.767 167.746 112.341 168.149 111.821 168.609L111.371 169.009H114.541V169.959H109.681V169.129L110.401 168.509Z" fill="white"/>
<path d="M109.585 148.315C109.625 147.695 109.861 147.212 110.295 146.865C110.735 146.519 111.295 146.345 111.975 146.345C112.441 146.345 112.845 146.429 113.185 146.595C113.525 146.762 113.781 146.989 113.955 147.275C114.128 147.562 114.215 147.885 114.215 148.245C114.215 148.659 114.105 149.012 113.885 149.305C113.665 149.599 113.401 149.795 113.095 149.895V149.935C113.488 150.055 113.795 150.275 114.015 150.595C114.235 150.909 114.345 151.312 114.345 151.805C114.345 152.199 114.255 152.549 114.075 152.855C113.895 153.162 113.628 153.405 113.275 153.585C112.921 153.759 112.498 153.845 112.005 153.845C111.285 153.845 110.691 153.662 110.225 153.295C109.765 152.922 109.518 152.389 109.485 151.695H110.585C110.611 152.049 110.748 152.339 110.995 152.565C111.241 152.785 111.575 152.895 111.995 152.895C112.401 152.895 112.715 152.785 112.935 152.565C113.155 152.339 113.265 152.049 113.265 151.695C113.265 151.229 113.115 150.899 112.815 150.705C112.521 150.505 112.068 150.405 111.455 150.405H111.195V149.465H111.465C112.005 149.459 112.415 149.369 112.695 149.195C112.981 149.022 113.125 148.749 113.125 148.375C113.125 148.055 113.021 147.802 112.815 147.615C112.608 147.422 112.315 147.325 111.935 147.325C111.561 147.325 111.271 147.422 111.065 147.615C110.858 147.802 110.735 148.035 110.695 148.315H109.585Z" fill="white"/>
<path d="M108.928 132.548V131.688L112.288 126.868H113.668V131.558H114.598V132.548H113.668V134.068H112.548V132.548H108.928ZM112.598 128.028L110.238 131.558H112.598V128.028Z" fill="white"/>
<path d="M113.856 111.503H110.506V113.493C110.646 113.307 110.852 113.15 111.126 113.023C111.406 112.897 111.702 112.833 112.016 112.833C112.576 112.833 113.029 112.953 113.376 113.193C113.729 113.433 113.979 113.737 114.126 114.103C114.279 114.47 114.356 114.857 114.356 115.263C114.356 115.757 114.259 116.197 114.066 116.583C113.879 116.963 113.596 117.263 113.216 117.483C112.842 117.703 112.382 117.813 111.836 117.813C111.109 117.813 110.526 117.633 110.086 117.273C109.646 116.913 109.382 116.437 109.296 115.843H110.406C110.479 116.157 110.642 116.407 110.896 116.593C111.149 116.773 111.466 116.863 111.846 116.863C112.319 116.863 112.672 116.72 112.906 116.433C113.146 116.147 113.266 115.767 113.266 115.293C113.266 114.813 113.146 114.447 112.906 114.193C112.666 113.933 112.312 113.803 111.846 113.803C111.519 113.803 111.242 113.887 111.016 114.053C110.796 114.213 110.636 114.433 110.536 114.713H109.456V110.503H113.856V111.503Z" fill="white"/>
<path d="M113.046 93.6373C112.973 93.3306 112.84 93.1006 112.646 92.9473C112.453 92.794 112.183 92.7173 111.836 92.7173C111.31 92.7173 110.916 92.9206 110.656 93.3273C110.396 93.7273 110.26 94.394 110.246 95.3273C110.42 95.034 110.673 94.8073 111.006 94.6473C111.34 94.4873 111.7 94.4073 112.086 94.4073C112.526 94.4073 112.913 94.504 113.246 94.6973C113.586 94.884 113.85 95.1573 114.036 95.5173C114.23 95.8773 114.326 96.3073 114.326 96.8073C114.326 97.274 114.233 97.6906 114.046 98.0573C113.866 98.424 113.596 98.714 113.236 98.9273C112.876 99.134 112.443 99.2373 111.936 99.2373C111.25 99.2373 110.71 99.0873 110.316 98.7873C109.93 98.4806 109.656 98.0506 109.496 97.4973C109.343 96.944 109.266 96.254 109.266 95.4273C109.266 92.9873 110.126 91.7673 111.846 91.7673C112.513 91.7673 113.036 91.9473 113.416 92.3073C113.803 92.6673 114.03 93.1106 114.096 93.6373H113.046ZM111.836 95.3673C111.43 95.3673 111.083 95.4906 110.796 95.7373C110.516 95.9773 110.376 96.3273 110.376 96.7873C110.376 97.2473 110.506 97.614 110.766 97.8873C111.033 98.154 111.403 98.2873 111.876 98.2873C112.296 98.2873 112.626 98.1573 112.866 97.8973C113.113 97.6373 113.236 97.2906 113.236 96.8573C113.236 96.404 113.116 96.044 112.876 95.7773C112.643 95.504 112.296 95.3673 111.836 95.3673Z" fill="white"/>
<path d="M114.567 76.5729L111.787 82.9829H110.637L113.447 76.6929H109.747V75.7229H114.567V76.5729Z" fill="white"/>
<path d="M110.395 61.7579C109.702 61.4112 109.355 60.8645 109.355 60.1179C109.355 59.7579 109.445 59.4279 109.625 59.1279C109.805 58.8279 110.075 58.5912 110.435 58.4179C110.795 58.2379 111.235 58.1479 111.755 58.1479C112.269 58.1479 112.705 58.2379 113.065 58.4179C113.432 58.5912 113.705 58.8279 113.885 59.1279C114.065 59.4279 114.155 59.7579 114.155 60.1179C114.155 60.4912 114.059 60.8212 113.865 61.1079C113.679 61.3879 113.429 61.6045 113.115 61.7579C113.495 61.8979 113.795 62.1279 114.015 62.4479C114.235 62.7612 114.345 63.1312 114.345 63.5579C114.345 63.9912 114.235 64.3745 114.015 64.7079C113.795 65.0412 113.489 65.2979 113.095 65.4779C112.702 65.6579 112.255 65.7479 111.755 65.7479C111.255 65.7479 110.809 65.6579 110.415 65.4779C110.029 65.2979 109.725 65.0412 109.505 64.7079C109.285 64.3745 109.175 63.9912 109.175 63.5579C109.175 63.1245 109.285 62.7512 109.505 62.4379C109.725 62.1245 110.022 61.8979 110.395 61.7579ZM113.065 60.2579C113.065 59.8845 112.949 59.5979 112.715 59.3979C112.482 59.1979 112.162 59.0979 111.755 59.0979C111.355 59.0979 111.039 59.1979 110.805 59.3979C110.572 59.5979 110.455 59.8879 110.455 60.2679C110.455 60.6012 110.575 60.8745 110.815 61.0879C111.062 61.2945 111.375 61.3979 111.755 61.3979C112.135 61.3979 112.449 61.2912 112.695 61.0779C112.942 60.8645 113.065 60.5912 113.065 60.2579ZM111.755 62.2579C111.315 62.2579 110.955 62.3679 110.675 62.5879C110.402 62.8012 110.265 63.1112 110.265 63.5179C110.265 63.8979 110.399 64.2079 110.665 64.4479C110.932 64.6812 111.295 64.7979 111.755 64.7979C112.209 64.7979 112.565 64.6779 112.825 64.4379C113.092 64.1979 113.225 63.8912 113.225 63.5179C113.225 63.1179 113.089 62.8079 112.815 62.5879C112.549 62.3679 112.195 62.2579 111.755 62.2579Z" fill="white"/>
<path d="M110.615 46.1723C110.681 46.5057 110.825 46.759 111.045 46.9323C111.265 47.1057 111.561 47.1923 111.935 47.1923C112.408 47.1923 112.755 47.0057 112.975 46.6323C113.195 46.259 113.305 45.6223 113.305 44.7223C113.145 44.949 112.918 45.1257 112.625 45.2523C112.338 45.3723 112.025 45.4323 111.685 45.4323C111.251 45.4323 110.858 45.3457 110.505 45.1723C110.151 44.9923 109.871 44.729 109.665 44.3823C109.465 44.029 109.365 43.6023 109.365 43.1023C109.365 42.369 109.578 41.7857 110.005 41.3523C110.438 40.9123 111.031 40.6923 111.785 40.6923C112.691 40.6923 113.335 40.9957 113.715 41.6023C114.101 42.2023 114.295 43.1257 114.295 44.3723C114.295 45.2323 114.221 45.9357 114.075 46.4823C113.935 47.029 113.688 47.4423 113.335 47.7223C112.981 48.0023 112.491 48.1423 111.865 48.1423C111.151 48.1423 110.601 47.9557 110.215 47.5823C109.828 47.209 109.611 46.739 109.565 46.1723H110.615ZM111.885 44.4723C112.285 44.4723 112.598 44.349 112.825 44.1023C113.058 43.849 113.175 43.5157 113.175 43.1023C113.175 42.6423 113.051 42.2857 112.805 42.0323C112.565 41.7723 112.235 41.6423 111.815 41.6423C111.395 41.6423 111.061 41.7757 110.815 42.0423C110.575 42.3023 110.455 42.6457 110.455 43.0723C110.455 43.479 110.571 43.8157 110.805 44.0823C111.045 44.3423 111.405 44.4723 111.885 44.4723Z" fill="white"/>
<path d="M105.489 24.4873V23.4473H107.569V30.7373H106.419V24.4873H105.489ZM109.135 26.9973C109.135 25.844 109.329 24.944 109.715 24.2973C110.109 23.644 110.782 23.3173 111.735 23.3173C112.689 23.3173 113.359 23.644 113.745 24.2973C114.139 24.944 114.335 25.844 114.335 26.9973C114.335 28.164 114.139 29.0773 113.745 29.7373C113.359 30.3906 112.689 30.7173 111.735 30.7173C110.782 30.7173 110.109 30.3906 109.715 29.7373C109.329 29.0773 109.135 28.164 109.135 26.9973ZM113.215 26.9973C113.215 26.4573 113.179 26.0006 113.105 25.6273C113.039 25.254 112.899 24.9506 112.685 24.7173C112.472 24.4773 112.155 24.3573 111.735 24.3573C111.315 24.3573 110.999 24.4773 110.785 24.7173C110.572 24.9506 110.429 25.254 110.355 25.6273C110.289 26.0006 110.255 26.4573 110.255 26.9973C110.255 27.5573 110.289 28.0273 110.355 28.4073C110.422 28.7873 110.562 29.094 110.775 29.3273C110.995 29.5606 111.315 29.6773 111.735 29.6773C112.155 29.6773 112.472 29.5606 112.685 29.3273C112.905 29.094 113.049 28.7873 113.115 28.4073C113.182 28.0273 113.215 27.5573 113.215 26.9973Z" fill="white"/>
<defs>
<filter id="filter0_d_1177_16648" x="155.898" y="0" width="124.102" height="206.056" filterUnits="userSpaceOnUse" color-interpolation-filters="sRGB">
<feFlood flood-opacity="0" result="BackgroundImageFix"/>
<feColorMatrix in="SourceAlpha" type="matrix" values="0 0 0 0 0 0 0 0 0 0 0 0 0 0 0 0 0 0 127 0" result="hardAlpha"/>
<feOffset dx="2" dy="4"/>
<feGaussianBlur stdDeviation="2"/>
<feComposite in2="hardAlpha" operator="out"/>
<feColorMatrix type="matrix" values="0 0 0 0 0 0 0 0 0 0 0 0 0 0 0 0 0 0 0.25 0"/>
<feBlend mode="normal" in2="BackgroundImageFix" result="effect1_dropShadow_1177_16648"/>
<feBlend mode="normal" in="SourceGraphic" in2="effect1_dropShadow_1177_16648" result="shape"/>
</filter>
<clipPath id="clip0_1177_16648">
<rect width="116.102" height="198.056" fill="white" transform="translate(157.898)"/>
</clipPath>
</defs>
</svg>
