<svg width="108" height="192" viewBox="0 0 108 192" fill="none" xmlns="http://www.w3.org/2000/svg">
<rect x="0.610352" y="36.5945" width="106.78" height="118.811" rx="12" fill="#D97EB9"/>
<rect x="3.61816" y="39.6024" width="100.764" height="112.795" rx="12" fill="#000033"/>
<rect opacity="0.5" x="9.63379" y="45.6182" width="88.7323" height="100.764" rx="12" fill="#784BA6"/>
<g filter="url(#filter0_i_828_11200)">
<path fill-rule="evenodd" clip-rule="evenodd" d="M11.1377 41.1063C11.6821 40.8114 12.265 40.4312 12.8684 39.9687C12.152 40.3093 11.5684 40.6872 11.1377 41.1063ZM53.9617 0.556389C45.9758 0.0696431 24.4888 2.77708 23.5324 7.01417C23.3012 8.09701 23.2382 9.78872 23.1598 11.8938C23.0227 15.5748 22.8386 20.5198 21.6255 25.6837C20.0156 32.5368 16.1402 37.4613 12.8684 39.9687C19.2078 36.9548 35.9514 36.8589 49.2753 36.9667C49.2753 36.9931 49.2753 37.0194 49.2753 37.0457C50.9068 37.0457 52.6637 37.0324 54.5062 37.0153C56.3432 37.0324 58.0585 37.0457 59.6042 37.0457C59.6042 37.0196 59.6042 36.9934 59.6042 36.9673C72.5235 36.8592 87.6245 36.9486 93.6221 39.9185C94.2279 40.4037 94.813 40.8008 95.3582 41.1063C94.9212 40.6665 94.3362 40.2721 93.6221 39.9185C90.4728 37.3959 86.7659 32.4913 85.2199 25.6837C84.0473 20.5198 83.8693 15.5748 83.7368 11.8938C83.661 9.78872 83.6002 8.09701 83.3766 7.01417C82.4521 2.77708 61.6813 0.0696434 53.9617 0.556389Z" fill="#D97EB9"/>
</g>
<g filter="url(#filter1_i_828_11200)">
<path fill-rule="evenodd" clip-rule="evenodd" d="M12.6421 149.39C13.1865 149.696 13.7694 150.09 14.3728 150.569C13.6564 150.216 13.0728 149.824 12.6421 149.39ZM54.6004 191.482C46.034 191.752 25.9604 188.988 25.0368 184.745C24.8055 183.622 24.7426 181.867 24.6642 179.684C24.5271 175.867 24.343 170.739 23.1299 165.384C21.52 158.277 17.6446 153.17 14.3728 150.569C20.4449 153.563 36.0623 153.781 49.0771 153.695C49.0771 153.664 49.0771 153.632 49.0771 153.601C50.9582 153.601 53.0058 153.619 55.1594 153.641C57.3189 153.619 59.3265 153.601 61.1086 153.601C61.1086 153.632 61.1086 153.664 61.1085 153.695C73.6257 153.78 87.688 153.567 93.4239 150.622C94.0297 150.118 94.6148 149.707 95.16 149.39C94.723 149.846 94.138 150.255 93.4239 150.622C90.2746 153.238 86.5677 158.324 85.0217 165.384C83.8491 170.739 83.6711 175.867 83.5386 179.684C83.4629 181.867 83.402 183.622 83.1784 184.745C82.2856 188.988 62.8812 191.752 54.6004 191.482Z" fill="#D97EB9"/>
</g>
<defs>
<filter id="filter0_i_828_11200" x="11.1377" y="-3.5" width="84.2207" height="44.6063" filterUnits="userSpaceOnUse" color-interpolation-filters="sRGB">
<feFlood flood-opacity="0" result="BackgroundImageFix"/>
<feBlend mode="normal" in="SourceGraphic" in2="BackgroundImageFix" result="shape"/>
<feColorMatrix in="SourceAlpha" type="matrix" values="0 0 0 0 0 0 0 0 0 0 0 0 0 0 0 0 0 0 127 0" result="hardAlpha"/>
<feOffset dy="-4"/>
<feGaussianBlur stdDeviation="2"/>
<feComposite in2="hardAlpha" operator="arithmetic" k2="-1" k3="1"/>
<feColorMatrix type="matrix" values="0 0 0 0 0 0 0 0 0 0 0 0 0 0 0 0 0 0 0.25 0"/>
<feBlend mode="normal" in2="shape" result="effect1_innerShadow_828_11200"/>
</filter>
<filter id="filter1_i_828_11200" x="12.6421" y="149.39" width="82.5181" height="46.1102" filterUnits="userSpaceOnUse" color-interpolation-filters="sRGB">
<feFlood flood-opacity="0" result="BackgroundImageFix"/>
<feBlend mode="normal" in="SourceGraphic" in2="BackgroundImageFix" result="shape"/>
<feColorMatrix in="SourceAlpha" type="matrix" values="0 0 0 0 0 0 0 0 0 0 0 0 0 0 0 0 0 0 127 0" result="hardAlpha"/>
<feOffset dy="4"/>
<feGaussianBlur stdDeviation="2"/>
<feComposite in2="hardAlpha" operator="arithmetic" k2="-1" k3="1"/>
<feColorMatrix type="matrix" values="0 0 0 0 0 0 0 0 0 0 0 0 0 0 0 0 0 0 0.25 0"/>
<feBlend mode="normal" in2="shape" result="effect1_innerShadow_828_11200"/>
</filter>
</defs>
</svg>
