<svg width="141" height="133" viewBox="0 0 141 133" fill="none" xmlns="http://www.w3.org/2000/svg">
<g filter="url(#filter0_d_414_3699)">
<g filter="url(#filter1_f_414_3699)">
<path d="M42.2779 -20.0417C30.4293 -15.5775 10.2868 -4.38267 24.505 4.68312C42.2779 16.0153 51.6871 17.0456 48.5507 27.8627C46.0416 36.5164 40.524 44.3459 40.524 46.4063" stroke="url(#paint0_linear_414_3699)" stroke-width="8" stroke-linecap="round"/>
</g>
<path d="M44.7167 39.023C44.7167 42.6928 42.4029 45.6678 39.5486 45.6678C36.6942 45.6678 34.3804 42.6928 34.3804 39.023C34.3804 35.3532 39.5486 25.7334 39.5486 25.7334C39.5486 25.7334 44.7167 35.3532 44.7167 39.023Z" fill="url(#paint1_linear_414_3699)"/>
<circle cx="18.3077" cy="18.3077" r="18.3077" transform="matrix(0.988037 0.154218 -0.988037 0.154218 38.0723 47.1445)" fill="#D8B449"/>
<path d="M12.4917 52.7915C12.4917 53.8941 15.355 54.8923 19.9843 55.6149V112.082C15.355 111.36 12.4917 110.362 12.4917 109.259V52.7915Z" fill="#FCDF87"/>
<path d="M19.9839 55.6147C29.974 57.1741 46.1711 57.1741 56.1612 55.6147V112.082C46.1711 113.642 29.974 113.642 19.9839 112.082V55.6147Z" fill="#FFCC33"/>
<g filter="url(#filter2_f_414_3699)">
<circle cx="60.0047" cy="99.0042" r="2.82842" fill="#FFCC33"/>
</g>
<g filter="url(#filter3_f_414_3699)">
<circle cx="60.0049" cy="99.0044" r="1.36476" fill="#FFCC33"/>
</g>
<ellipse cx="0.454985" cy="5.00483" rx="0.454985" ry="5.00483" transform="matrix(-1 0 0 1 60.46 94)" fill="url(#paint2_linear_414_3699)"/>
<ellipse cx="0.454985" cy="5.00483" rx="0.454985" ry="5.00483" transform="matrix(1.19249e-08 -1 -1 -1.19249e-08 65.0098 99.46)" fill="url(#paint3_linear_414_3699)"/>
<ellipse cx="0.454921" cy="3.18445" rx="0.454921" ry="3.18445" transform="matrix(-0.707107 0.707107 0.707107 0.707107 58.0747 96.4312)" fill="url(#paint4_linear_414_3699)"/>
<ellipse cx="0.454921" cy="3.18445" rx="0.454921" ry="3.18445" transform="matrix(-0.707107 -0.707107 -0.707107 0.707107 62.5791 97.0747)" fill="url(#paint5_linear_414_3699)"/>
<g filter="url(#filter4_f_414_3699)">
<circle cx="33.0048" cy="71.0048" r="1.69815" fill="#FFCC33"/>
</g>
<g filter="url(#filter5_f_414_3699)">
<circle cx="33.0049" cy="71.0049" r="0.819385" fill="#FFCC33"/>
</g>
<ellipse cx="0.273166" cy="3.00483" rx="0.273166" ry="3.00483" transform="matrix(-1 0 0 1 33.2783 68)" fill="url(#paint6_linear_414_3699)"/>
<ellipse cx="0.273166" cy="3.00483" rx="0.273166" ry="3.00483" transform="matrix(1.19249e-08 -1 -1 -1.19249e-08 36.0098 71.2778)" fill="url(#paint7_linear_414_3699)"/>
<ellipse cx="0.273128" cy="1.9119" rx="0.273128" ry="1.9119" transform="matrix(-0.707107 0.707107 0.707107 0.707107 31.8462 69.4595)" fill="url(#paint8_linear_414_3699)"/>
<ellipse cx="0.273128" cy="1.9119" rx="0.273128" ry="1.9119" transform="matrix(-0.707107 -0.707107 -0.707107 0.707107 34.5503 69.8457)" fill="url(#paint9_linear_414_3699)"/>
<g filter="url(#filter6_f_414_3699)">
<circle cx="25.0048" cy="107.005" r="1.69815" fill="#FFCC33"/>
</g>
<g filter="url(#filter7_f_414_3699)">
<circle cx="25.0049" cy="107.005" r="0.819385" fill="#FFCC33"/>
</g>
<ellipse cx="0.273166" cy="3.00483" rx="0.273166" ry="3.00483" transform="matrix(-1 0 0 1 25.2783 104)" fill="url(#paint10_linear_414_3699)"/>
<ellipse cx="0.273166" cy="3.00483" rx="0.273166" ry="3.00483" transform="matrix(1.19249e-08 -1 -1 -1.19249e-08 28.0098 107.278)" fill="url(#paint11_linear_414_3699)"/>
<ellipse cx="0.273128" cy="1.9119" rx="0.273128" ry="1.9119" transform="matrix(-0.707107 0.707107 0.707107 0.707107 23.8462 105.459)" fill="url(#paint12_linear_414_3699)"/>
<ellipse cx="0.273128" cy="1.9119" rx="0.273128" ry="1.9119" transform="matrix(-0.707107 -0.707107 -0.707107 0.707107 26.5503 105.846)" fill="url(#paint13_linear_414_3699)"/>
<g filter="url(#filter8_i_414_3699)">
<path d="M63.6537 52.7915C63.6537 53.8941 60.7904 54.8923 56.1611 55.6149V112.082C60.7904 111.36 63.6537 110.362 63.6537 109.259V52.7915Z" fill="#EAAF00"/>
</g>
<line x1="39.7871" y1="53.0513" x2="39.7871" y2="38.285" stroke="black"/>
<path d="M14.6351 58.3718C14.5274 59.1119 14.5584 60.0404 14.3709 60.8072C14.6761 61.6419 15.0461 62.4594 15.3213 63.2847C15.7786 64.6568 17.8852 68.1895 15.4448 68.8153C13.5191 69.309 11.6225 69.2812 10.5867 67.2096C10.0241 66.0844 10.8455 63.8046 11.9241 61.981C12.5591 60.9074 13.2832 59.9919 13.8666 59.5631V59.0442C13.8666 59.0013 13.8651 58.9533 13.8626 58.9011C13.8616 58.8939 13.8607 58.8867 13.8597 58.8795C13.7602 58.133 13.5976 57.6317 13.6813 56.8279C13.7605 56.0677 13.7979 55.3014 13.894 54.543C13.9365 54.2082 13.8868 53.9363 14.1205 54.2479C14.5026 54.7575 14.9659 55.2942 15.4064 55.7733C16.1592 55.1357 17.0764 56.1479 17.9287 56.574C18.8955 57.0574 19.9209 57.467 20.9363 57.8358C22.5929 57.8987 24.2395 58.0699 25.9088 58.0699C26.1261 58.0699 26.3433 58.0681 26.5603 58.065C26.931 57.8652 27.353 57.8228 27.8301 57.8228H31.7207H33.8135C33.9159 57.8228 33.9993 57.8507 34.0732 57.8917C35.1383 57.8586 36.2034 57.8228 37.2718 57.8228C38.231 57.8228 39.2253 58.2182 40.1811 58.3306C40.4827 58.3661 40.7457 58.4838 40.9949 58.6321C41.0568 58.6176 41.1213 58.6038 41.1898 58.5914C41.8726 58.4672 42.5765 58.5696 43.262 58.413C44.1947 58.1998 45.2873 58.2782 46.2537 58.3169C47.2612 58.3572 47.8904 60.3348 47.9623 61.089C47.9912 61.3922 48.2224 61.5835 48.326 61.8575C48.4898 62.2912 48.4036 62.7539 48.5181 63.1955C48.5411 63.2844 48.5635 63.3747 48.5851 63.4661C48.636 62.3385 48.8493 61.178 49.6846 60.444C50.1116 60.0687 50.2847 59.5901 50.7962 59.2775C50.9824 59.1637 51.2273 58.9135 51.3863 58.7835C52.1446 58.163 53.1462 57.9159 54.1279 57.6583C54.3787 57.5924 54.6282 57.5259 54.872 57.4523C55.7507 57.187 56.798 57.099 57.7128 57.0818C58.2148 57.0723 58.6753 56.8348 59.1674 56.8348C59.2395 56.8348 59.3085 56.8385 59.3747 56.8457C59.8438 56.7265 60.3025 56.5686 60.7456 56.3407C61.2719 56.0701 61.7942 55.7967 62.3101 55.5036C62.4274 55.437 63.2162 54.8589 63.2707 54.9135C63.419 55.0618 63.5177 55.6379 63.5177 55.8467C63.5177 57.9288 63.3925 59.9532 63.2776 62.0222C63.2353 62.7831 63.2109 63.5626 62.8316 64.2522C62.6272 64.6238 62.2176 65.7275 61.7268 65.7275C61.2626 65.7275 61.757 62.824 61.7817 62.4408C61.8642 61.1618 61.9896 58.6666 60.8691 57.7062C60.3834 57.2898 60.0015 56.9138 59.3747 56.8457C58.5862 57.0461 57.7681 57.137 56.9442 57.2671C56.0156 57.4137 55.0737 57.5474 54.1279 57.6583C53.1462 57.9159 52.1446 58.163 51.3863 58.7835C51.2273 58.9135 50.9824 59.1637 50.7962 59.2775C50.2847 59.5901 50.1116 60.0687 49.6846 60.444C48.8493 61.178 48.636 62.3385 48.5851 63.4661C48.8023 64.3862 48.9435 65.4266 48.9435 66.3519C48.9435 67.0158 48.9983 67.7366 49.0071 68.4542C49.1018 69.1735 49.274 69.8796 49.3209 70.6062C49.3808 71.5339 49.2887 72.6627 49.5062 73.5636C49.7259 74.4738 49.869 75.3359 49.9384 76.2739C50.0494 77.7713 50.3297 79.6557 49.7395 81.1045C49.3699 82.0117 48.0271 83.319 46.9673 83.266C46.467 83.241 46.3589 82.1493 46.3498 81.7838C46.2878 79.3024 46.7171 76.8237 47.5574 74.4967C47.9931 73.2903 48.2673 72.018 48.7033 70.8189C48.9665 70.0952 49.0171 69.2768 49.0071 68.4542C48.9691 68.1657 48.9435 67.8751 48.9435 67.5802C48.9435 66.6943 48.573 65.8525 48.573 64.9864C48.573 64.5187 48.5611 63.9961 48.5851 63.4661C48.5635 63.3747 48.5411 63.2844 48.5181 63.1955C48.4036 62.7539 48.4898 62.2912 48.326 61.8575C48.2224 61.5835 47.9912 61.3922 47.9623 61.089C47.8904 60.3348 47.2612 58.3572 46.2537 58.3169C45.2873 58.2782 44.1947 58.1998 43.262 58.413C42.5765 58.5696 41.8726 58.4672 41.1898 58.5914C41.1213 58.6038 41.0568 58.6176 40.9949 58.6321C41.2347 58.7747 41.4616 58.9457 41.6976 59.0991C41.9555 59.2668 41.221 59.1815 41.0937 59.1815C40.4215 59.1815 39.0627 58.7206 39.0627 59.7373C39.0627 60.8248 39.5543 62.1659 39.9273 63.175C40.4583 64.6118 40.3738 66.3888 40.0233 67.8546C39.7857 68.8483 39.0197 69.1962 38.102 69.2819C37.148 69.3709 37.1734 68.6062 36.9356 67.8546C36.3295 65.9395 36.1302 63.6817 36.0984 61.6791C36.0892 61.0971 35.874 59.879 35.5289 59.3805C35.4481 59.2637 35.3077 59.0322 35.148 58.8042C32.573 58.7628 30.0088 58.598 27.4459 58.4473C27.0132 58.4218 26.579 58.4021 26.1443 58.3829C26.1064 58.4222 26.069 58.4642 26.0323 58.509C25.2556 59.4583 24.4542 60.2502 24.0905 61.4321C23.6479 62.8706 24.2181 64.499 24.2414 65.9471C24.2506 66.514 24.471 67.0388 24.4885 67.6076C24.5095 68.2914 24.5889 68.9873 24.6737 69.6661C24.8161 70.8049 25.0388 71.9989 25.0992 73.145C25.2182 75.4061 24.8739 77.5788 24.7423 79.8145C24.6331 81.671 24.632 83.688 25.2021 85.4617C25.3531 85.9315 25.4234 86.5096 25.3256 86.9987C25.2149 87.5523 24.8767 87.9374 24.5571 88.3848C24.3994 88.6055 24.0335 89.387 23.7474 89.4415C21.7244 89.8268 21.0302 87.1557 21.0302 85.7362C21.0302 85.0138 21.1142 84.4216 21.4007 83.7532C21.7063 83.0401 21.7221 82.3329 21.8947 81.5917C22.1758 80.3849 22.3874 79.2166 22.5397 77.9825C22.8928 75.1226 23.0907 72.2291 23.617 69.3779C23.9766 67.4303 23.9786 65.285 23.8572 63.3122C23.7678 61.8592 23.5619 59.8918 22.6358 58.7011C22.3748 58.3656 21.8494 58.1586 21.4019 58.0006C19.7967 57.8447 18.1772 57.7691 16.5907 57.5141C15.9576 57.4123 15.349 57.3478 14.7897 57.0627C14.7131 57.5107 14.6905 57.9905 14.6351 58.3718Z" fill="white"/>
<path d="M13.3725 54.1175C13.3725 55.2084 12.9634 56.2904 12.851 57.3837C12.7685 58.1871 11.9563 60.8706 11.9204 61.6791C11.8808 62.5693 12.1541 61.4587 12.0414 62.3378C11.8206 64.0599 12.3677 69.2557 12.508 67.5253C12.5582 66.9051 12.8098 66.2819 13.0638 65.7206C13.3688 65.0463 13.2701 64.3309 13.5235 63.6553C13.821 62.862 13.9138 62.0142 14.2371 61.2262C14.5753 60.402 14.5069 59.2532 14.6351 58.3718C14.7288 57.7275 14.7287 56.8018 15.0536 56.2241C15.8595 54.7914 16.938 56.0787 17.9287 56.574C18.9384 57.0789 20.0119 57.5032 21.0713 57.8846C21.5547 58.0586 22.3062 58.2773 22.6358 58.7011C23.5619 59.8918 23.7678 61.8592 23.8572 63.3122C23.9786 65.285 23.9766 67.4303 23.617 69.3779C23.0907 72.2291 22.8928 75.1226 22.5397 77.9825C22.3874 79.2166 22.1758 80.3849 21.8947 81.5917C21.7221 82.3329 21.7063 83.0401 21.4007 83.7532C21.1142 84.4216 21.0302 85.0138 21.0302 85.7362C21.0302 87.1557 21.7244 89.8268 23.7474 89.4415C24.0335 89.387 24.3994 88.6055 24.5571 88.3848C24.8767 87.9374 25.2149 87.5523 25.3256 86.9987C25.4234 86.5096 25.3531 85.9315 25.2021 85.4617C24.632 83.688 24.6331 81.671 24.7423 79.8145C24.8739 77.5788 25.2182 75.4061 25.0992 73.145C25.0388 71.9989 24.8161 70.8049 24.6737 69.6661C24.5889 68.9873 24.5095 68.2914 24.4885 67.6076C24.471 67.0388 24.2506 66.514 24.2414 65.9471C24.2181 64.499 23.6479 62.8706 24.0905 61.4321C24.4542 60.2502 25.2556 59.4583 26.0323 58.509C26.5148 57.9194 27.1096 57.8228 27.8301 57.8228C29.127 57.8228 30.4238 57.8228 31.7207 57.8228C32.4183 57.8228 33.1159 57.8228 33.8135 57.8228C34.1501 57.8228 34.2808 58.124 34.5477 58.2002C34.8751 58.2938 35.3492 59.1208 35.5289 59.3805C35.874 59.879 36.0892 61.0971 36.0984 61.6791C36.1302 63.6817 36.3295 65.9395 36.9356 67.8546C37.1734 68.6062 37.148 69.3709 38.102 69.2819C39.0197 69.1962 39.7857 68.8483 40.0233 67.8546C40.3738 66.3888 40.4583 64.6118 39.9273 63.175C39.5543 62.1659 39.0627 60.8248 39.0627 59.7373C39.0627 58.7206 40.4215 59.1815 41.0937 59.1815C41.221 59.1815 41.9555 59.2668 41.6976 59.0991C41.2162 58.7863 40.7727 58.4002 40.1811 58.3306C39.2253 58.2182 38.231 57.8228 37.2718 57.8228C35.2868 57.8228 33.3133 57.9464 31.3296 57.9464C29.5203 57.9464 27.7198 58.0699 25.9088 58.0699C24.1052 58.0699 22.328 57.87 20.5361 57.8228C19.1296 57.7858 18.0049 57.27 16.7073 56.8622C16.1587 56.6898 15.8636 56.2661 15.4997 55.8741C15.0319 55.3704 14.5297 54.7935 14.1205 54.2479C13.8868 53.9363 13.9365 54.2082 13.894 54.543C13.7979 55.3014 13.7605 56.0677 13.6813 56.8279C13.5976 57.6317 13.7602 58.133 13.8597 58.8795C14.0643 60.4138 14.8388 61.8373 15.3213 63.2847C15.7786 64.6568 17.8852 68.1895 15.4448 68.8153C13.5191 69.309 11.6225 69.2812 10.5867 67.2096C9.6331 65.3025 12.6558 60.0781 14.1674 59.3805C14.7864 59.0948 13.8666 62.5345 13.8666 61.8781C13.8666 60.9335 13.8666 59.9889 13.8666 59.0442C13.8666 58.5057 13.6327 57.1694 14.1685 56.7867C14.2261 56.7456 14.4862 56.8823 14.539 56.9171C15.1652 57.3291 15.8617 57.3969 16.5907 57.5141C18.544 57.828 20.5473 57.87 22.5123 58.1248C24.144 58.3363 25.8056 58.3508 27.4459 58.4473C30.1829 58.6083 32.9215 58.7852 35.673 58.8109C37.1136 58.8244 38.5552 58.8109 39.9959 58.8109C40.4673 58.8109 40.7434 58.6725 41.1898 58.5914C41.8726 58.4672 42.5765 58.5696 43.262 58.413C44.1947 58.1998 45.2873 58.2782 46.2537 58.3169C47.2611 58.3572 47.8905 60.3348 47.9623 61.089C47.9912 61.3922 48.2224 61.5835 48.326 61.8575C48.4898 62.2912 48.4036 62.7539 48.5181 63.1955C48.7728 64.1782 48.9435 65.3346 48.9435 66.3519C48.9435 67.7767 49.1961 69.4639 48.7033 70.8189C48.2673 72.018 47.9931 73.2903 47.5574 74.4967C46.7171 76.8237 46.2878 79.3024 46.3498 81.7838C46.3589 82.1493 46.467 83.241 46.9673 83.266C48.0271 83.319 49.3699 82.0117 49.7395 81.1045C50.3297 79.6557 50.0494 77.7713 49.9384 76.2739C49.869 75.3359 49.7259 74.4738 49.5062 73.5636C49.2887 72.6627 49.3808 71.5339 49.3209 70.6062C49.2552 69.5882 48.9435 68.6104 48.9435 67.5802C48.9435 66.6943 48.573 65.8525 48.573 64.9864C48.573 63.5236 48.4568 61.523 49.6846 60.444C50.1116 60.0687 50.2847 59.5901 50.7962 59.2775C50.9824 59.1637 51.2273 58.9135 51.3863 58.7835C52.3384 58.0045 53.6738 57.814 54.872 57.4523C55.7507 57.187 56.798 57.099 57.7128 57.0818C58.2148 57.0723 58.6753 56.8348 59.1674 56.8348C59.922 56.8348 60.332 57.2458 60.8691 57.7062C61.9896 58.6666 61.8642 61.1618 61.7817 62.4408C61.757 62.8241 61.2626 65.7275 61.7268 65.7275C62.2176 65.7275 62.6272 64.6238 62.8316 64.2522C63.2109 63.5626 63.2353 62.7831 63.2776 62.0222C63.3925 59.9532 63.5177 57.9288 63.5177 55.8467C63.5177 55.6379 63.419 55.0618 63.2707 54.9135C63.2162 54.8589 62.4274 55.437 62.3101 55.5036C61.7942 55.7967 61.2719 56.0701 60.7456 56.3407C59.5575 56.9518 58.2582 57.0596 56.9442 57.2671C54.91 57.5882 52.8119 57.8478 50.7481 57.9395C49.4514 57.9971 48.1418 57.9464 46.8438 57.9464C46.5313 57.9464 45.2718 58.1371 45.1147 57.8228" stroke="#D8B449" stroke-width="3" stroke-linecap="round"/>
<g filter="url(#filter9_f_414_3699)">
<path d="M108.725 -20.0417C96.8766 -15.5775 76.734 -4.38267 90.9523 4.68312C108.725 16.0153 118.134 17.0456 114.998 27.8627C112.489 36.5164 106.971 44.3459 106.971 46.4063" stroke="url(#paint14_linear_414_3699)" stroke-width="8" stroke-linecap="round"/>
</g>
<path d="M111.165 39.023C111.165 42.6928 108.851 45.6678 105.997 45.6678C103.142 45.6678 100.829 42.6928 100.829 39.023C100.829 35.3532 105.997 25.7334 105.997 25.7334C105.997 25.7334 111.165 35.3532 111.165 39.023Z" fill="url(#paint15_linear_414_3699)"/>
<circle cx="18.3077" cy="18.3077" r="18.3077" transform="matrix(0.988037 0.154218 -0.988037 0.154218 104.52 47.1445)" fill="#AC4A8A"/>
<path d="M78.939 52.7915C78.939 53.8941 81.8022 54.8923 86.4315 55.6149V112.082C81.8022 111.36 78.939 110.362 78.939 109.259V52.7915Z" fill="#C296B2"/>
<path d="M86.4312 55.6147C96.4212 57.1741 112.618 57.1741 122.608 55.6147V112.082C112.618 113.642 96.4212 113.642 86.4312 112.082V55.6147Z" fill="#D97EB9"/>
<g filter="url(#filter10_f_414_3699)">
<circle cx="116.005" cy="103.004" r="2.82842" fill="#FFCC33"/>
</g>
<g filter="url(#filter11_f_414_3699)">
<circle cx="116.005" cy="103.004" r="1.36476" fill="#FFCC33"/>
</g>
<ellipse cx="0.454985" cy="5.00483" rx="0.454985" ry="5.00483" transform="matrix(-1 0 0 1 116.46 98)" fill="url(#paint16_linear_414_3699)"/>
<ellipse cx="0.454985" cy="5.00483" rx="0.454985" ry="5.00483" transform="matrix(1.19249e-08 -1 -1 -1.19249e-08 121.01 103.46)" fill="url(#paint17_linear_414_3699)"/>
<ellipse cx="0.454921" cy="3.18445" rx="0.454921" ry="3.18445" transform="matrix(-0.707107 0.707107 0.707107 0.707107 114.075 100.431)" fill="url(#paint18_linear_414_3699)"/>
<ellipse cx="0.454921" cy="3.18445" rx="0.454921" ry="3.18445" transform="matrix(-0.707107 -0.707107 -0.707107 0.707107 118.579 101.075)" fill="url(#paint19_linear_414_3699)"/>
<g filter="url(#filter12_f_414_3699)">
<circle cx="89.0048" cy="75.0048" r="1.69815" fill="#FFCC33"/>
</g>
<g filter="url(#filter13_f_414_3699)">
<circle cx="89.0049" cy="75.0049" r="0.819385" fill="#FFCC33"/>
</g>
<ellipse cx="0.273166" cy="3.00483" rx="0.273166" ry="3.00483" transform="matrix(-1 0 0 1 89.2783 72)" fill="url(#paint20_linear_414_3699)"/>
<ellipse cx="0.273166" cy="3.00483" rx="0.273166" ry="3.00483" transform="matrix(1.19249e-08 -1 -1 -1.19249e-08 92.0098 75.2778)" fill="url(#paint21_linear_414_3699)"/>
<ellipse cx="0.273128" cy="1.9119" rx="0.273128" ry="1.9119" transform="matrix(-0.707107 0.707107 0.707107 0.707107 87.8462 73.4595)" fill="url(#paint22_linear_414_3699)"/>
<ellipse cx="0.273128" cy="1.9119" rx="0.273128" ry="1.9119" transform="matrix(-0.707107 -0.707107 -0.707107 0.707107 90.5503 73.8457)" fill="url(#paint23_linear_414_3699)"/>
<g filter="url(#filter14_f_414_3699)">
<circle cx="81.0048" cy="111.005" r="1.69815" fill="#FFCC33"/>
</g>
<g filter="url(#filter15_f_414_3699)">
<circle cx="81.0049" cy="111.005" r="0.819385" fill="#FFCC33"/>
</g>
<ellipse cx="0.273166" cy="3.00483" rx="0.273166" ry="3.00483" transform="matrix(-1 0 0 1 81.2783 108)" fill="url(#paint24_linear_414_3699)"/>
<ellipse cx="0.273166" cy="3.00483" rx="0.273166" ry="3.00483" transform="matrix(1.19249e-08 -1 -1 -1.19249e-08 84.0098 111.278)" fill="url(#paint25_linear_414_3699)"/>
<ellipse cx="0.273128" cy="1.9119" rx="0.273128" ry="1.9119" transform="matrix(-0.707107 0.707107 0.707107 0.707107 79.8462 109.459)" fill="url(#paint26_linear_414_3699)"/>
<ellipse cx="0.273128" cy="1.9119" rx="0.273128" ry="1.9119" transform="matrix(-0.707107 -0.707107 -0.707107 0.707107 82.5503 109.846)" fill="url(#paint27_linear_414_3699)"/>
<g filter="url(#filter16_i_414_3699)">
<path d="M130.101 52.7915C130.101 53.8941 127.238 54.8923 122.608 55.6149V112.082C127.238 111.36 130.101 110.362 130.101 109.259V52.7915Z" fill="#DF41A7"/>
</g>
<line x1="106.235" y1="53.0513" x2="106.235" y2="38.285" stroke="black"/>
<path d="M81.0828 58.3718C80.9752 59.1119 81.0062 60.0404 80.8187 60.8072C81.1239 61.6419 81.4939 62.4594 81.769 63.2847C82.2264 64.6568 84.3329 68.1895 81.8925 68.8153C79.9669 69.309 78.0702 69.2812 77.0344 67.2096C76.4719 66.0844 77.2933 63.8046 78.3719 61.981C79.0069 60.9074 79.731 59.9919 80.3143 59.5631V59.0442C80.3143 59.0013 80.3128 58.9533 80.3104 58.9011C80.3094 58.8939 80.3084 58.8867 80.3075 58.8795C80.2079 58.133 80.0453 57.6317 80.1291 56.8279C80.2083 56.0677 80.2456 55.3014 80.3418 54.543C80.3842 54.2082 80.3345 53.9363 80.5682 54.2479C80.9504 54.7575 81.4136 55.2942 81.8542 55.7733C82.6069 55.1357 83.5242 56.1479 84.3764 56.574C85.3433 57.0574 86.3686 57.467 87.3841 57.8358C89.0406 57.8987 90.6873 58.0699 92.3566 58.0699C92.5739 58.0699 92.791 58.0681 93.008 58.065C93.3788 57.8652 93.8008 57.8228 94.2779 57.8228H98.1684H100.261C100.364 57.8228 100.447 57.8507 100.521 57.8917C101.586 57.8586 102.651 57.8228 103.72 57.8228C104.679 57.8228 105.673 58.2182 106.629 58.3306C106.93 58.3661 107.193 58.4838 107.443 58.6321C107.505 58.6176 107.569 58.6038 107.638 58.5914C108.32 58.4672 109.024 58.5696 109.71 58.413C110.642 58.1998 111.735 58.2782 112.701 58.3169C113.709 58.3572 114.338 60.3348 114.41 61.089C114.439 61.3922 114.67 61.5835 114.774 61.8575C114.938 62.2912 114.851 62.7539 114.966 63.1955C114.989 63.2844 115.011 63.3747 115.033 63.4661C115.084 62.3385 115.297 61.178 116.132 60.444C116.559 60.0687 116.732 59.5901 117.244 59.2775C117.43 59.1637 117.675 58.9135 117.834 58.7835C118.592 58.163 119.594 57.9159 120.576 57.6583C120.826 57.5924 121.076 57.5259 121.32 57.4523C122.198 57.187 123.246 57.099 124.161 57.0818C124.663 57.0723 125.123 56.8348 125.615 56.8348C125.687 56.8348 125.756 56.8385 125.822 56.8457C126.292 56.7265 126.75 56.5686 127.193 56.3407C127.72 56.0701 128.242 55.7967 128.758 55.5036C128.875 55.437 129.664 54.8589 129.718 54.9135C129.867 55.0618 129.965 55.6379 129.965 55.8467C129.965 57.9288 129.84 59.9532 129.725 62.0222C129.683 62.7831 129.659 63.5626 129.279 64.2522C129.075 64.6238 128.665 65.7275 128.175 65.7275C127.71 65.7275 128.205 62.824 128.229 62.4408C128.312 61.1618 128.437 58.6666 127.317 57.7062C126.831 57.2898 126.449 56.9138 125.822 56.8457C125.034 57.0461 124.216 57.137 123.392 57.2671C122.463 57.4137 121.521 57.5474 120.576 57.6583C119.594 57.9159 118.592 58.163 117.834 58.7835C117.675 58.9135 117.43 59.1637 117.244 59.2775C116.732 59.5901 116.559 60.0687 116.132 60.444C115.297 61.178 115.084 62.3385 115.033 63.4661C115.25 64.3862 115.391 65.4266 115.391 66.3519C115.391 67.0158 115.446 67.7366 115.455 68.4542C115.55 69.1735 115.722 69.8796 115.769 70.6062C115.829 71.5339 115.736 72.6627 115.954 73.5636C116.174 74.4738 116.317 75.3359 116.386 76.2739C116.497 77.7713 116.777 79.6557 116.187 81.1045C115.818 82.0117 114.475 83.319 113.415 83.266C112.915 83.241 112.807 82.1493 112.798 81.7838C112.736 79.3024 113.165 76.8237 114.005 74.4967C114.441 73.2903 114.715 72.018 115.151 70.8189C115.414 70.0952 115.465 69.2768 115.455 68.4542C115.417 68.1657 115.391 67.8751 115.391 67.5802C115.391 66.6943 115.021 65.8525 115.021 64.9864C115.021 64.5187 115.009 63.9961 115.033 63.4661C115.011 63.3747 114.989 63.2844 114.966 63.1955C114.851 62.7539 114.938 62.2912 114.774 61.8575C114.67 61.5835 114.439 61.3922 114.41 61.089C114.338 60.3348 113.709 58.3572 112.701 58.3169C111.735 58.2782 110.642 58.1998 109.71 58.413C109.024 58.5696 108.32 58.4672 107.638 58.5914C107.569 58.6038 107.505 58.6176 107.443 58.6321C107.682 58.7747 107.909 58.9457 108.145 59.0991C108.403 59.2668 107.669 59.1815 107.541 59.1815C106.869 59.1815 105.51 58.7206 105.51 59.7373C105.51 60.8248 106.002 62.1659 106.375 63.175C106.906 64.6118 106.822 66.3888 106.471 67.8546C106.233 68.8483 105.467 69.1962 104.55 69.2819C103.596 69.3709 103.621 68.6062 103.383 67.8546C102.777 65.9395 102.578 63.6817 102.546 61.6791C102.537 61.0971 102.322 59.879 101.977 59.3805C101.896 59.2637 101.755 59.0322 101.596 58.8042C99.0208 58.7628 96.4565 58.598 93.8936 58.4473C93.4609 58.4218 93.0268 58.4021 92.5921 58.3829C92.5541 58.4222 92.5168 58.4642 92.4801 58.509C91.7034 59.4583 90.9019 60.2502 90.5382 61.4321C90.0956 62.8706 90.6658 64.499 90.6892 65.9471C90.6983 66.514 90.9187 67.0388 90.9362 67.6076C90.9573 68.2914 91.0366 68.9873 91.1215 69.6661C91.2638 70.8049 91.4866 71.9989 91.5469 73.145C91.6659 75.4061 91.3216 77.5788 91.1901 79.8145C91.0809 81.671 91.0797 83.688 91.6498 85.4617C91.8008 85.9315 91.8712 86.5096 91.7733 86.9987C91.6626 87.5523 91.3244 87.9374 91.0048 88.3848C90.8472 88.6055 90.4812 89.387 90.1952 89.4415C88.1721 89.8268 87.4779 87.1557 87.4779 85.7362C87.4779 85.0138 87.562 84.4216 87.8485 83.7532C88.154 83.0401 88.1699 82.3329 88.3425 81.5917C88.6235 80.3849 88.8351 79.2166 88.9875 77.9825C89.3406 75.1226 89.5384 72.2291 90.0648 69.3779C90.4243 67.4303 90.4263 65.285 90.3049 63.3122C90.2155 61.8592 90.0097 59.8918 89.0836 58.7011C88.8226 58.3656 88.2971 58.1586 87.8497 58.0006C86.2445 57.8447 84.625 57.7691 83.0384 57.5141C82.4053 57.4123 81.7968 57.3478 81.2374 57.0627C81.1609 57.5107 81.1383 57.9905 81.0828 58.3718Z" fill="white"/>
<path d="M79.8203 54.1175C79.8203 55.2084 79.4112 56.2904 79.2988 57.3837C79.2162 58.1871 78.4041 60.8706 78.3681 61.6791C78.3286 62.5693 78.6018 61.4587 78.4891 62.3378C78.2684 64.0599 78.8154 69.2557 78.9557 67.5253C79.006 66.9051 79.2576 66.2819 79.5115 65.7206C79.8166 65.0463 79.7179 64.3309 79.9712 63.6553C80.2687 62.862 80.3616 62.0142 80.6849 61.2262C81.023 60.402 80.9546 59.2532 81.0828 58.3718C81.1766 57.7275 81.1764 56.8018 81.5014 56.2241C82.3073 54.7914 83.3857 56.0787 84.3764 56.574C85.3861 57.0789 86.4597 57.5032 87.5191 57.8846C88.0024 58.0586 88.7539 58.2773 89.0836 58.7011C90.0097 59.8918 90.2155 61.8592 90.3049 63.3122C90.4263 65.285 90.4243 67.4303 90.0648 69.3779C89.5384 72.2291 89.3406 75.1226 88.9875 77.9825C88.8351 79.2166 88.6235 80.3849 88.3425 81.5917C88.1699 82.3329 88.154 83.0401 87.8485 83.7532C87.562 84.4216 87.4779 85.0138 87.4779 85.7362C87.4779 87.1557 88.1721 89.8268 90.1952 89.4415C90.4812 89.387 90.8472 88.6055 91.0048 88.3848C91.3244 87.9374 91.6626 87.5523 91.7733 86.9987C91.8712 86.5096 91.8008 85.9315 91.6498 85.4617C91.0797 83.688 91.0809 81.671 91.1901 79.8145C91.3216 77.5788 91.6659 75.4061 91.5469 73.145C91.4866 71.9989 91.2638 70.8049 91.1215 69.6661C91.0366 68.9873 90.9573 68.2914 90.9362 67.6076C90.9187 67.0388 90.6983 66.514 90.6892 65.9471C90.6658 64.499 90.0956 62.8706 90.5382 61.4321C90.9019 60.2502 91.7034 59.4583 92.4801 58.509C92.9625 57.9194 93.5574 57.8228 94.2779 57.8228C95.5747 57.8228 96.8716 57.8228 98.1684 57.8228C98.866 57.8228 99.5636 57.8228 100.261 57.8228C100.598 57.8228 100.729 58.124 100.995 58.2002C101.323 58.2938 101.797 59.1208 101.977 59.3805C102.322 59.879 102.537 61.0971 102.546 61.6791C102.578 63.6817 102.777 65.9395 103.383 67.8546C103.621 68.6062 103.596 69.3709 104.55 69.2819C105.467 69.1962 106.233 68.8483 106.471 67.8546C106.822 66.3888 106.906 64.6118 106.375 63.175C106.002 62.1659 105.51 60.8248 105.51 59.7373C105.51 58.7206 106.869 59.1815 107.541 59.1815C107.669 59.1815 108.403 59.2668 108.145 59.0991C107.664 58.7863 107.22 58.4002 106.629 58.3306C105.673 58.2182 104.679 57.8228 103.72 57.8228C101.735 57.8228 99.761 57.9464 97.7773 57.9464C95.9681 57.9464 94.1675 58.0699 92.3566 58.0699C90.5529 58.0699 88.7757 57.87 86.9839 57.8228C85.5774 57.7858 84.4526 57.27 83.1551 56.8622C82.6065 56.6898 82.3114 56.2661 81.9474 55.8741C81.4796 55.3704 80.9774 54.7935 80.5682 54.2479C80.3345 53.9363 80.3842 54.2082 80.3418 54.543C80.2456 55.3014 80.2083 56.0677 80.1291 56.8279C80.0453 57.6317 80.2079 58.133 80.3075 58.8795C80.512 60.4138 81.2865 61.8373 81.769 63.2847C82.2264 64.6568 84.3329 68.1895 81.8925 68.8153C79.9669 69.309 78.0702 69.2812 77.0344 67.2096C76.0809 65.3025 79.1035 60.0781 80.6151 59.3805C81.2341 59.0948 80.3143 62.5345 80.3143 61.8781C80.3143 60.9335 80.3143 59.9889 80.3143 59.0442C80.3143 58.5057 80.0805 57.1694 80.6162 56.7867C80.6738 56.7456 80.9339 56.8823 80.9868 56.9171C81.613 57.3291 82.3094 57.3969 83.0384 57.5141C84.9918 57.828 86.9951 57.87 88.9601 58.1248C90.5917 58.3363 92.2534 58.3508 93.8936 58.4473C96.6307 58.6083 99.3693 58.7852 102.121 58.8109C103.561 58.8244 105.003 58.8109 106.444 58.8109C106.915 58.8109 107.191 58.6725 107.638 58.5914C108.32 58.4672 109.024 58.5696 109.71 58.413C110.642 58.1998 111.735 58.2782 112.701 58.3169C113.709 58.3572 114.338 60.3348 114.41 61.089C114.439 61.3922 114.67 61.5835 114.774 61.8575C114.938 62.2912 114.851 62.7539 114.966 63.1955C115.221 64.1782 115.391 65.3346 115.391 66.3519C115.391 67.7767 115.644 69.4639 115.151 70.8189C114.715 72.018 114.441 73.2903 114.005 74.4967C113.165 76.8237 112.736 79.3024 112.798 81.7838C112.807 82.1493 112.915 83.241 113.415 83.266C114.475 83.319 115.818 82.0117 116.187 81.1045C116.777 79.6557 116.497 77.7713 116.386 76.2739C116.317 75.3359 116.174 74.4738 115.954 73.5636C115.736 72.6627 115.829 71.5339 115.769 70.6062C115.703 69.5882 115.391 68.6104 115.391 67.5802C115.391 66.6943 115.021 65.8525 115.021 64.9864C115.021 63.5236 114.905 61.523 116.132 60.444C116.559 60.0687 116.732 59.5901 117.244 59.2775C117.43 59.1637 117.675 58.9135 117.834 58.7835C118.786 58.0045 120.122 57.814 121.32 57.4523C122.198 57.187 123.246 57.099 124.161 57.0818C124.663 57.0723 125.123 56.8348 125.615 56.8348C126.37 56.8348 126.78 57.2458 127.317 57.7062C128.437 58.6666 128.312 61.1618 128.229 62.4408C128.205 62.8241 127.71 65.7275 128.175 65.7275C128.665 65.7275 129.075 64.6238 129.279 64.2522C129.659 63.5626 129.683 62.7831 129.725 62.0222C129.84 59.9532 129.965 57.9288 129.965 55.8467C129.965 55.6379 129.867 55.0618 129.718 54.9135C129.664 54.8589 128.875 55.437 128.758 55.5036C128.242 55.7967 127.72 56.0701 127.193 56.3407C126.005 56.9518 124.706 57.0596 123.392 57.2671C121.358 57.5882 119.26 57.8478 117.196 57.9395C115.899 57.9971 114.59 57.9464 113.292 57.9464C112.979 57.9464 111.72 58.1371 111.562 57.8228" stroke="#AD4A8A" stroke-width="3" stroke-linecap="round"/>
<g filter="url(#filter17_f_414_3699)">
<path d="M76.7888 -48.0977C61.3131 -42.2668 35.0045 -27.645 53.5753 -15.804C76.7888 -1.00268 89.0784 0.342895 84.9819 14.4714C81.7047 25.7742 74.498 36.0005 74.498 38.6917" stroke="url(#paint28_linear_414_3699)" stroke-width="10.449" stroke-linecap="round"/>
</g>
<path d="M79.9757 29.0483C79.9757 33.8415 76.9535 37.7272 73.2254 37.7272C69.4973 37.7272 66.4751 33.8415 66.4751 29.0483C66.4751 24.2551 73.2254 11.6904 73.2254 11.6904C73.2254 11.6904 79.9757 24.2551 79.9757 29.0483Z" fill="url(#paint29_linear_414_3699)"/>
<circle cx="23.912" cy="23.912" r="23.912" transform="matrix(0.988037 0.154218 -0.988037 0.154218 71.2964 39.6558)" fill="#906BB5"/>
<path d="M37.8848 47.0312C37.8848 48.4714 41.6246 49.7752 47.671 50.7189V124.472C41.6246 123.529 37.8848 122.225 37.8848 120.785V47.0312Z" fill="#AD8FCD"/>
<path d="M47.6704 50.7188C60.7187 52.7554 81.8741 52.7554 94.9224 50.7188V124.472C81.8741 126.509 60.7187 126.509 47.6704 124.472V50.7188Z" fill="#784BA6"/>
<g filter="url(#filter18_f_414_3699)">
<circle cx="89.0047" cy="110.004" r="2.82842" fill="#FFCC33"/>
</g>
<g filter="url(#filter19_f_414_3699)">
<circle cx="89.0049" cy="110.004" r="1.36476" fill="#FFCC33"/>
</g>
<ellipse cx="0.454985" cy="5.00483" rx="0.454985" ry="5.00483" transform="matrix(-1 0 0 1 89.46 105)" fill="url(#paint30_linear_414_3699)"/>
<ellipse cx="0.454985" cy="5.00483" rx="0.454985" ry="5.00483" transform="matrix(1.19249e-08 -1 -1 -1.19249e-08 94.0098 110.459)" fill="url(#paint31_linear_414_3699)"/>
<ellipse cx="0.454921" cy="3.18445" rx="0.454921" ry="3.18445" transform="matrix(-0.707107 0.707107 0.707107 0.707107 87.0747 107.431)" fill="url(#paint32_linear_414_3699)"/>
<ellipse cx="0.454921" cy="3.18445" rx="0.454921" ry="3.18445" transform="matrix(-0.707107 -0.707107 -0.707107 0.707107 91.5791 108.074)" fill="url(#paint33_linear_414_3699)"/>
<g filter="url(#filter20_f_414_3699)">
<circle cx="62.0048" cy="82.0043" r="1.69815" fill="#FFCC33"/>
</g>
<g filter="url(#filter21_f_414_3699)">
<circle cx="62.0049" cy="82.0044" r="0.819385" fill="#FFCC33"/>
</g>
<ellipse cx="0.273166" cy="3.00483" rx="0.273166" ry="3.00483" transform="matrix(-1 0 0 1 62.2783 78.9995)" fill="url(#paint34_linear_414_3699)"/>
<ellipse cx="0.273166" cy="3.00483" rx="0.273166" ry="3.00483" transform="matrix(1.19249e-08 -1 -1 -1.19249e-08 65.0098 82.2773)" fill="url(#paint35_linear_414_3699)"/>
<ellipse cx="0.273128" cy="1.9119" rx="0.273128" ry="1.9119" transform="matrix(-0.707107 0.707107 0.707107 0.707107 60.8462 80.459)" fill="url(#paint36_linear_414_3699)"/>
<ellipse cx="0.273128" cy="1.9119" rx="0.273128" ry="1.9119" transform="matrix(-0.707107 -0.707107 -0.707107 0.707107 63.5503 80.8452)" fill="url(#paint37_linear_414_3699)"/>
<g filter="url(#filter22_f_414_3699)">
<circle cx="54.0048" cy="118.004" r="1.69815" fill="#FFCC33"/>
</g>
<g filter="url(#filter23_f_414_3699)">
<circle cx="54.0049" cy="118.004" r="0.819385" fill="#FFCC33"/>
</g>
<ellipse cx="0.273166" cy="3.00483" rx="0.273166" ry="3.00483" transform="matrix(-1 0 0 1 54.2783 115)" fill="url(#paint38_linear_414_3699)"/>
<ellipse cx="0.273166" cy="3.00483" rx="0.273166" ry="3.00483" transform="matrix(1.19249e-08 -1 -1 -1.19249e-08 57.0098 118.277)" fill="url(#paint39_linear_414_3699)"/>
<ellipse cx="0.273128" cy="1.9119" rx="0.273128" ry="1.9119" transform="matrix(-0.707107 0.707107 0.707107 0.707107 52.8462 116.459)" fill="url(#paint40_linear_414_3699)"/>
<ellipse cx="0.273128" cy="1.9119" rx="0.273128" ry="1.9119" transform="matrix(-0.707107 -0.707107 -0.707107 0.707107 55.5503 116.845)" fill="url(#paint41_linear_414_3699)"/>
<g filter="url(#filter24_i_414_3699)">
<path d="M104.709 47.0312C104.709 48.4714 100.969 49.7752 94.9224 50.7189V124.472C100.969 123.529 104.709 122.225 104.709 120.785V47.0312Z" fill="#562885"/>
</g>
<line x1="73.5359" y1="47.3706" x2="73.5359" y2="28.0841" stroke="black" stroke-width="1.30612"/>
<path d="M40.6846 54.3197C40.544 55.2864 40.5845 56.4992 40.3396 57.5006C40.7382 58.5908 41.2215 59.6586 41.5808 60.7366C42.1782 62.5287 44.9296 67.1429 41.7422 67.9602C39.227 68.6051 36.7498 68.5687 35.3969 65.863C34.6621 64.3934 35.735 61.4157 37.1438 59.0338C37.9732 57.6315 38.9189 56.4358 39.6809 55.8757V55.198C39.6809 55.1419 39.6789 55.0792 39.6757 55.011C39.6744 55.0017 39.6731 54.9923 39.6719 54.9829C39.5419 54.0078 39.3295 53.3531 39.4389 52.3032C39.5423 51.3102 39.5911 50.3094 39.7167 49.3188C39.7721 48.8816 39.7072 48.5264 40.0125 48.9334C40.5116 49.599 41.1166 50.3 41.6921 50.9257C42.6753 50.093 43.8733 51.415 44.9865 51.9716C46.2492 52.603 47.5885 53.138 48.9148 53.6196C51.0785 53.7018 53.2292 53.9254 55.4095 53.9254C55.6933 53.9254 55.9769 53.923 56.2604 53.919C56.7446 53.658 57.2958 53.6027 57.9189 53.6027H63.0005H65.734C65.8678 53.6027 65.9766 53.6391 66.0732 53.6926C67.4644 53.6495 68.8555 53.6027 70.2509 53.6027C71.5038 53.6027 72.8024 54.1191 74.0509 54.2659C74.4447 54.3123 74.7883 54.466 75.1138 54.6597C75.1946 54.6408 75.2788 54.6228 75.3683 54.6065C76.2601 54.4443 77.1795 54.5781 78.0749 54.3735C79.2931 54.095 80.7202 54.1975 81.9824 54.248C83.2982 54.3006 84.1202 56.8836 84.214 57.8687C84.2517 58.2648 84.5538 58.5146 84.689 58.8725C84.903 59.4389 84.7904 60.0433 84.94 60.6201C84.97 60.7362 84.9992 60.8541 85.0274 60.9735C85.094 59.5008 85.3726 57.985 86.4635 57.0263C87.0213 56.5361 87.2474 55.9109 87.9154 55.5027C88.1587 55.354 88.4785 55.0273 88.6862 54.8574C89.6767 54.047 90.9848 53.7243 92.267 53.3878C92.5946 53.3018 92.9205 53.2149 93.239 53.1188C94.3867 52.7723 95.7546 52.6574 96.9493 52.6348C97.6051 52.6224 98.2065 52.3122 98.8493 52.3122C98.9435 52.3122 99.0336 52.3171 99.1201 52.3265C99.7328 52.1708 100.332 51.9646 100.911 51.6669C101.598 51.3134 102.28 50.9563 102.954 50.5735C103.107 50.4865 104.137 49.7315 104.209 49.8028C104.402 49.9965 104.531 50.749 104.531 51.0216C104.531 53.7411 104.368 56.3852 104.218 59.0876C104.162 60.0814 104.131 61.0996 103.635 62.0003C103.368 62.4856 102.833 63.9272 102.192 63.9272C101.586 63.9272 102.232 60.1349 102.264 59.6343C102.372 57.9638 102.535 54.7048 101.072 53.4504C100.437 52.9065 99.9387 52.4154 99.1201 52.3265C98.0901 52.5881 97.0216 52.7069 95.9455 52.8768C94.7327 53.0683 93.5024 53.243 92.267 53.3878C90.9848 53.7243 89.6767 54.047 88.6862 54.8574C88.4785 55.0273 88.1587 55.354 87.9154 55.5027C87.2474 55.9109 87.0213 56.5361 86.4635 57.0263C85.3726 57.985 85.094 59.5008 85.0274 60.9735C85.3112 62.1753 85.4956 63.5342 85.4956 64.7427C85.4956 65.6098 85.5672 66.5513 85.5786 67.4886C85.7024 68.4281 85.9273 69.3503 85.9885 70.2993C86.0667 71.5111 85.9465 72.9854 86.2305 74.162C86.5175 75.3509 86.7044 76.4769 86.7951 77.7021C86.94 79.6579 87.3062 82.1191 86.5352 84.0115C86.0525 85.1963 84.2987 86.9038 82.9145 86.8346C82.261 86.8019 82.1198 85.3761 82.1079 84.8987C82.0269 81.6577 82.5877 78.4202 83.6852 75.3809C84.2543 73.8051 84.6124 72.1433 85.1819 70.5771C85.5256 69.632 85.5917 68.563 85.5786 67.4886C85.529 67.1118 85.4956 66.7322 85.4956 66.347C85.4956 65.1899 85.0117 64.0905 85.0117 62.9593C85.0117 62.3484 84.9961 61.6657 85.0274 60.9735C84.9992 60.8541 84.97 60.7362 84.94 60.6201C84.7904 60.0433 84.903 59.4389 84.689 58.8725C84.5538 58.5146 84.2517 58.2648 84.214 57.8687C84.1202 56.8836 83.2982 54.3006 81.9824 54.248C80.7202 54.1975 79.2931 54.095 78.0749 54.3735C77.1795 54.5781 76.2601 54.4443 75.3683 54.6065C75.2788 54.6228 75.1946 54.6408 75.1138 54.6597C75.4269 54.846 75.7233 55.0693 76.0315 55.2697C76.3685 55.4887 75.409 55.3772 75.2429 55.3772C74.3649 55.3772 72.59 54.7753 72.59 56.1032C72.59 57.5236 73.2322 59.2753 73.7193 60.5932C74.4129 62.47 74.3026 64.791 73.8448 66.7055C73.5344 68.0033 72.5339 68.4577 71.3353 68.5696C70.0892 68.6859 70.1224 67.6871 69.8118 66.7055C69.0202 64.2041 68.7599 61.2551 68.7184 58.6395C68.7063 57.8794 68.4253 56.2883 67.9745 55.6372C67.8689 55.4847 67.6856 55.1823 67.4769 54.8845C64.1138 54.8304 60.7646 54.6152 57.417 54.4183C56.8519 54.385 56.2849 54.3593 55.7171 54.3342C55.6675 54.3856 55.6187 54.4404 55.5708 54.499C54.5564 55.7389 53.5095 56.7731 53.0345 58.3168C52.4564 60.1957 53.2012 62.3226 53.2317 64.214C53.2436 64.9545 53.5315 65.6399 53.5543 66.3828C53.5818 67.2759 53.6855 68.1849 53.7963 69.0715C53.9822 70.5589 54.2732 72.1184 54.352 73.6153C54.5074 76.5687 54.0577 79.4064 53.8859 82.3266C53.7433 84.7513 53.7418 87.3858 54.4864 89.7025C54.6836 90.3161 54.7755 91.0711 54.6477 91.71C54.5031 92.433 54.0614 92.936 53.644 93.5204C53.438 93.8087 52.9601 94.8294 52.5864 94.9005C49.9441 95.4038 49.0374 91.915 49.0374 90.061C49.0374 89.1174 49.1471 88.344 49.5213 87.4709C49.9205 86.5396 49.9412 85.6159 50.1666 84.6478C50.5337 83.0716 50.8101 81.5456 51.0091 79.9337C51.4702 76.1983 51.7286 72.419 52.4161 68.6951C52.8858 66.1512 52.8884 63.3492 52.7298 60.7725C52.613 58.8747 52.3441 56.3051 51.1345 54.7499C50.7937 54.3116 50.1073 54.0412 49.5229 53.8348C47.4264 53.6312 45.3111 53.5325 43.2388 53.1994C42.4119 53.0665 41.6171 52.9822 40.8866 52.6099C40.7866 53.195 40.7571 53.8217 40.6846 54.3197Z" fill="white"/>
<path d="M39.0356 48.7631C39.0356 50.188 38.5012 51.6012 38.3544 53.0292C38.2466 54.0786 37.1858 57.5834 37.1389 58.6395C37.0872 59.8022 37.4441 58.3516 37.2969 59.4999C37.0086 61.749 37.7231 68.5355 37.9063 66.2753C37.972 65.4653 38.3006 64.6513 38.6323 63.9182C39.0307 63.0374 38.9018 62.1031 39.2327 61.2206C39.6213 60.1845 39.7426 59.0772 40.1648 58.048C40.6065 56.9714 40.5172 55.471 40.6846 54.3197C40.807 53.4782 40.8068 52.2692 41.2313 51.5145C42.2839 49.6433 43.6925 51.3246 44.9865 51.9716C46.3052 52.631 47.7074 53.1852 49.0912 53.6834C49.7225 53.9107 50.704 54.1964 51.1345 54.7499C52.3441 56.3051 52.613 58.8747 52.7298 60.7725C52.8884 63.3492 52.8858 66.1512 52.4161 68.6951C51.7286 72.419 51.4702 76.1983 51.0091 79.9337C50.8101 81.5456 50.5337 83.0716 50.1666 84.6478C49.9412 85.6159 49.9205 86.5396 49.5213 87.4709C49.1471 88.344 49.0374 89.1174 49.0374 90.061C49.0374 91.915 49.9441 95.4038 52.5864 94.9005C52.9601 94.8294 53.438 93.8087 53.644 93.5204C54.0614 92.936 54.5031 92.433 54.6477 91.71C54.7755 91.0711 54.6836 90.3161 54.4864 89.7025C53.7418 87.3858 53.7433 84.7513 53.8859 82.3266C54.0577 79.4064 54.5074 76.5687 54.352 73.6153C54.2732 72.1184 53.9822 70.5589 53.7963 69.0715C53.6855 68.1849 53.5818 67.2759 53.5543 66.3828C53.5315 65.6399 53.2436 64.9545 53.2317 64.214C53.2012 62.3226 52.4564 60.1957 53.0345 58.3168C53.5095 56.7731 54.5564 55.7389 55.5708 54.499C56.201 53.7288 56.9779 53.6027 57.9189 53.6027C59.6128 53.6027 61.3066 53.6027 63.0005 53.6027C63.9117 53.6027 64.8228 53.6027 65.734 53.6027C66.1737 53.6027 66.3443 53.996 66.6929 54.0957C67.1206 54.2179 67.7398 55.2981 67.9745 55.6372C68.4253 56.2883 68.7063 57.8794 68.7184 58.6395C68.7599 61.2551 69.0202 64.2041 69.8118 66.7055C70.1224 67.6871 70.0892 68.6859 71.3353 68.5696C72.5339 68.4577 73.5344 68.0033 73.8448 66.7055C74.3026 64.791 74.4129 62.47 73.7193 60.5932C73.2322 59.2753 72.59 57.5236 72.59 56.1032C72.59 54.7753 74.3649 55.3772 75.2429 55.3772C75.409 55.3772 76.3685 55.4887 76.0315 55.2697C75.4029 54.8611 74.8236 54.3568 74.0509 54.2659C72.8024 54.1191 71.5038 53.6027 70.2509 53.6027C67.6583 53.6027 65.0806 53.7641 62.4897 53.7641C60.1266 53.7641 57.7748 53.9254 55.4095 53.9254C53.0537 53.9254 50.7325 53.6643 48.3921 53.6027C46.555 53.5544 45.086 52.8807 43.3912 52.348C42.6746 52.1228 42.2892 51.5694 41.8139 51.0575C41.2029 50.3995 40.5469 49.6461 40.0125 48.9334C39.7072 48.5264 39.7721 48.8816 39.7167 49.3188C39.5911 50.3094 39.5423 51.3102 39.4389 52.3032C39.3295 53.3531 39.5419 54.0078 39.6719 54.9829C39.9391 56.9868 40.9506 58.8461 41.5808 60.7366C42.1782 62.5287 44.9296 67.1429 41.7422 67.9602C39.227 68.6051 36.7498 68.5687 35.3969 65.863C34.1514 63.372 38.0994 56.5484 40.0737 55.6372C40.8822 55.264 39.6809 59.7567 39.6809 58.8994C39.6809 57.6656 39.6809 56.4318 39.6809 55.198C39.6809 54.4947 39.3754 52.7493 40.0752 52.2494C40.1504 52.1957 40.4901 52.3743 40.5591 52.4197C41.377 52.9578 42.2867 53.0464 43.2388 53.1994C45.7902 53.6095 48.4067 53.6644 50.9732 53.9971C53.1044 54.2733 55.2747 54.2923 57.417 54.4183C60.992 54.6286 64.5689 54.8597 68.1627 54.8933C70.0443 54.9109 71.9272 54.8933 73.8089 54.8933C74.4247 54.8933 74.7852 54.7125 75.3683 54.6065C76.2601 54.4443 77.1795 54.5781 78.0749 54.3735C79.2931 54.095 80.7202 54.1975 81.9824 54.248C83.2982 54.3006 84.1202 56.8836 84.214 57.8687C84.2517 58.2648 84.5538 58.5146 84.689 58.8725C84.903 59.4389 84.7904 60.0433 84.94 60.6201C85.2727 61.9036 85.4956 63.414 85.4956 64.7427C85.4956 66.6037 85.8255 68.8074 85.1819 70.5771C84.6124 72.1433 84.2543 73.8051 83.6852 75.3809C82.5877 78.4202 82.0269 81.6577 82.1079 84.8987C82.1198 85.3761 82.261 86.8019 82.9145 86.8346C84.2987 86.9038 86.0525 85.1963 86.5352 84.0115C87.3062 82.1191 86.94 79.6579 86.7951 77.7021C86.7044 76.4769 86.5175 75.3509 86.2305 74.162C85.9465 72.9854 86.0667 71.5111 85.9885 70.2993C85.9028 68.9697 85.4956 67.6926 85.4956 66.347C85.4956 65.1899 85.0116 64.0905 85.0116 62.9593C85.0116 61.0486 84.8599 58.4356 86.4635 57.0263C87.0213 56.5361 87.2474 55.9109 87.9154 55.5027C88.1587 55.354 88.4785 55.0273 88.6862 54.8574C89.9298 53.8399 91.6739 53.5912 93.239 53.1188C94.3867 52.7723 95.7546 52.6574 96.9493 52.6348C97.6051 52.6224 98.2065 52.3122 98.8493 52.3122C99.8349 52.3122 100.37 52.8491 101.072 53.4504C102.535 54.7048 102.372 57.9638 102.264 59.6343C102.232 60.1349 101.586 63.9272 102.192 63.9272C102.833 63.9272 103.368 62.4856 103.635 62.0003C104.131 61.0996 104.162 60.0814 104.218 59.0876C104.368 56.3852 104.531 53.7411 104.531 51.0216C104.531 50.749 104.402 49.9965 104.209 49.8028C104.137 49.7315 103.107 50.4865 102.954 50.5735C102.28 50.9563 101.598 51.3134 100.911 51.6669C99.3588 52.465 97.6617 52.6058 95.9455 52.8768C93.2886 53.2963 90.5482 53.6353 87.8527 53.7551C86.1589 53.8304 84.4484 53.7641 82.7532 53.7641C82.345 53.7641 80.6999 54.0131 80.4947 53.6027" stroke="#906BB5" stroke-width="3.91837" stroke-linecap="round"/>
</g>
<defs>
<filter id="filter0_d_414_3699" x="0.904297" y="-53.3235" width="138.561" height="195.323" filterUnits="userSpaceOnUse" color-interpolation-filters="sRGB">
<feFlood flood-opacity="0" result="BackgroundImageFix"/>
<feColorMatrix in="SourceAlpha" type="matrix" values="0 0 0 0 0 0 0 0 0 0 0 0 0 0 0 0 0 0 127 0" result="hardAlpha"/>
<feOffset dy="8"/>
<feGaussianBlur stdDeviation="4"/>
<feComposite in2="hardAlpha" operator="out"/>
<feColorMatrix type="matrix" values="0 0 0 0 0 0 0 0 0 0 0 0 0 0 0 0 0 0 0.25 0"/>
<feBlend mode="normal" in2="BackgroundImageFix" result="effect1_dropShadow_414_3699"/>
<feBlend mode="normal" in="SourceGraphic" in2="effect1_dropShadow_414_3699" result="shape"/>
</filter>
<filter id="filter1_f_414_3699" x="11.6147" y="-28.0427" width="45.5327" height="82.449" filterUnits="userSpaceOnUse" color-interpolation-filters="sRGB">
<feFlood flood-opacity="0" result="BackgroundImageFix"/>
<feBlend mode="normal" in="SourceGraphic" in2="BackgroundImageFix" result="shape"/>
<feGaussianBlur stdDeviation="2" result="effect1_foregroundBlur_414_3699"/>
</filter>
<filter id="filter2_f_414_3699" x="49.1763" y="88.1758" width="21.6567" height="21.6567" filterUnits="userSpaceOnUse" color-interpolation-filters="sRGB">
<feFlood flood-opacity="0" result="BackgroundImageFix"/>
<feBlend mode="normal" in="SourceGraphic" in2="BackgroundImageFix" result="shape"/>
<feGaussianBlur stdDeviation="4" result="effect1_foregroundBlur_414_3699"/>
</filter>
<filter id="filter3_f_414_3699" x="56.6401" y="95.6396" width="6.72949" height="6.72949" filterUnits="userSpaceOnUse" color-interpolation-filters="sRGB">
<feFlood flood-opacity="0" result="BackgroundImageFix"/>
<feBlend mode="normal" in="SourceGraphic" in2="BackgroundImageFix" result="shape"/>
<feGaussianBlur stdDeviation="1" result="effect1_foregroundBlur_414_3699"/>
</filter>
<filter id="filter4_f_414_3699" x="23.3066" y="61.3066" width="19.3965" height="19.3965" filterUnits="userSpaceOnUse" color-interpolation-filters="sRGB">
<feFlood flood-opacity="0" result="BackgroundImageFix"/>
<feBlend mode="normal" in="SourceGraphic" in2="BackgroundImageFix" result="shape"/>
<feGaussianBlur stdDeviation="4" result="effect1_foregroundBlur_414_3699"/>
</filter>
<filter id="filter5_f_414_3699" x="30.1855" y="68.1855" width="5.63867" height="5.63867" filterUnits="userSpaceOnUse" color-interpolation-filters="sRGB">
<feFlood flood-opacity="0" result="BackgroundImageFix"/>
<feBlend mode="normal" in="SourceGraphic" in2="BackgroundImageFix" result="shape"/>
<feGaussianBlur stdDeviation="1" result="effect1_foregroundBlur_414_3699"/>
</filter>
<filter id="filter6_f_414_3699" x="15.3066" y="97.3066" width="19.3965" height="19.3965" filterUnits="userSpaceOnUse" color-interpolation-filters="sRGB">
<feFlood flood-opacity="0" result="BackgroundImageFix"/>
<feBlend mode="normal" in="SourceGraphic" in2="BackgroundImageFix" result="shape"/>
<feGaussianBlur stdDeviation="4" result="effect1_foregroundBlur_414_3699"/>
</filter>
<filter id="filter7_f_414_3699" x="22.1855" y="104.186" width="5.63867" height="5.63867" filterUnits="userSpaceOnUse" color-interpolation-filters="sRGB">
<feFlood flood-opacity="0" result="BackgroundImageFix"/>
<feBlend mode="normal" in="SourceGraphic" in2="BackgroundImageFix" result="shape"/>
<feGaussianBlur stdDeviation="1" result="effect1_foregroundBlur_414_3699"/>
</filter>
<filter id="filter8_i_414_3699" x="52.1611" y="52.7915" width="11.4927" height="63.291" filterUnits="userSpaceOnUse" color-interpolation-filters="sRGB">
<feFlood flood-opacity="0" result="BackgroundImageFix"/>
<feBlend mode="normal" in="SourceGraphic" in2="BackgroundImageFix" result="shape"/>
<feColorMatrix in="SourceAlpha" type="matrix" values="0 0 0 0 0 0 0 0 0 0 0 0 0 0 0 0 0 0 127 0" result="hardAlpha"/>
<feOffset dx="-4" dy="4"/>
<feGaussianBlur stdDeviation="3"/>
<feComposite in2="hardAlpha" operator="arithmetic" k2="-1" k3="1"/>
<feColorMatrix type="matrix" values="0 0 0 0 0 0 0 0 0 0 0 0 0 0 0 0 0 0 0.25 0"/>
<feBlend mode="normal" in2="shape" result="effect1_innerShadow_414_3699"/>
</filter>
<filter id="filter9_f_414_3699" x="78.062" y="-28.0427" width="45.5327" height="82.449" filterUnits="userSpaceOnUse" color-interpolation-filters="sRGB">
<feFlood flood-opacity="0" result="BackgroundImageFix"/>
<feBlend mode="normal" in="SourceGraphic" in2="BackgroundImageFix" result="shape"/>
<feGaussianBlur stdDeviation="2" result="effect1_foregroundBlur_414_3699"/>
</filter>
<filter id="filter10_f_414_3699" x="105.176" y="92.1758" width="21.6567" height="21.6567" filterUnits="userSpaceOnUse" color-interpolation-filters="sRGB">
<feFlood flood-opacity="0" result="BackgroundImageFix"/>
<feBlend mode="normal" in="SourceGraphic" in2="BackgroundImageFix" result="shape"/>
<feGaussianBlur stdDeviation="4" result="effect1_foregroundBlur_414_3699"/>
</filter>
<filter id="filter11_f_414_3699" x="112.64" y="99.6396" width="6.72949" height="6.72949" filterUnits="userSpaceOnUse" color-interpolation-filters="sRGB">
<feFlood flood-opacity="0" result="BackgroundImageFix"/>
<feBlend mode="normal" in="SourceGraphic" in2="BackgroundImageFix" result="shape"/>
<feGaussianBlur stdDeviation="1" result="effect1_foregroundBlur_414_3699"/>
</filter>
<filter id="filter12_f_414_3699" x="79.3066" y="65.3066" width="19.3965" height="19.3965" filterUnits="userSpaceOnUse" color-interpolation-filters="sRGB">
<feFlood flood-opacity="0" result="BackgroundImageFix"/>
<feBlend mode="normal" in="SourceGraphic" in2="BackgroundImageFix" result="shape"/>
<feGaussianBlur stdDeviation="4" result="effect1_foregroundBlur_414_3699"/>
</filter>
<filter id="filter13_f_414_3699" x="86.1855" y="72.1855" width="5.63867" height="5.63867" filterUnits="userSpaceOnUse" color-interpolation-filters="sRGB">
<feFlood flood-opacity="0" result="BackgroundImageFix"/>
<feBlend mode="normal" in="SourceGraphic" in2="BackgroundImageFix" result="shape"/>
<feGaussianBlur stdDeviation="1" result="effect1_foregroundBlur_414_3699"/>
</filter>
<filter id="filter14_f_414_3699" x="71.3066" y="101.307" width="19.3965" height="19.3965" filterUnits="userSpaceOnUse" color-interpolation-filters="sRGB">
<feFlood flood-opacity="0" result="BackgroundImageFix"/>
<feBlend mode="normal" in="SourceGraphic" in2="BackgroundImageFix" result="shape"/>
<feGaussianBlur stdDeviation="4" result="effect1_foregroundBlur_414_3699"/>
</filter>
<filter id="filter15_f_414_3699" x="78.1855" y="108.186" width="5.63867" height="5.63867" filterUnits="userSpaceOnUse" color-interpolation-filters="sRGB">
<feFlood flood-opacity="0" result="BackgroundImageFix"/>
<feBlend mode="normal" in="SourceGraphic" in2="BackgroundImageFix" result="shape"/>
<feGaussianBlur stdDeviation="1" result="effect1_foregroundBlur_414_3699"/>
</filter>
<filter id="filter16_i_414_3699" x="118.608" y="52.7915" width="11.4927" height="63.291" filterUnits="userSpaceOnUse" color-interpolation-filters="sRGB">
<feFlood flood-opacity="0" result="BackgroundImageFix"/>
<feBlend mode="normal" in="SourceGraphic" in2="BackgroundImageFix" result="shape"/>
<feColorMatrix in="SourceAlpha" type="matrix" values="0 0 0 0 0 0 0 0 0 0 0 0 0 0 0 0 0 0 127 0" result="hardAlpha"/>
<feOffset dx="-4" dy="4"/>
<feGaussianBlur stdDeviation="3"/>
<feComposite in2="hardAlpha" operator="arithmetic" k2="-1" k3="1"/>
<feColorMatrix type="matrix" values="0 0 0 0 0 0 0 0 0 0 0 0 0 0 0 0 0 0 0.25 0"/>
<feBlend mode="normal" in2="shape" result="effect1_innerShadow_414_3699"/>
</filter>
<filter id="filter17_f_414_3699" x="36.7389" y="-58.548" width="59.471" height="107.688" filterUnits="userSpaceOnUse" color-interpolation-filters="sRGB">
<feFlood flood-opacity="0" result="BackgroundImageFix"/>
<feBlend mode="normal" in="SourceGraphic" in2="BackgroundImageFix" result="shape"/>
<feGaussianBlur stdDeviation="2.61224" result="effect1_foregroundBlur_414_3699"/>
</filter>
<filter id="filter18_f_414_3699" x="78.1763" y="99.1753" width="21.6567" height="21.6567" filterUnits="userSpaceOnUse" color-interpolation-filters="sRGB">
<feFlood flood-opacity="0" result="BackgroundImageFix"/>
<feBlend mode="normal" in="SourceGraphic" in2="BackgroundImageFix" result="shape"/>
<feGaussianBlur stdDeviation="4" result="effect1_foregroundBlur_414_3699"/>
</filter>
<filter id="filter19_f_414_3699" x="85.6401" y="106.639" width="6.72949" height="6.72949" filterUnits="userSpaceOnUse" color-interpolation-filters="sRGB">
<feFlood flood-opacity="0" result="BackgroundImageFix"/>
<feBlend mode="normal" in="SourceGraphic" in2="BackgroundImageFix" result="shape"/>
<feGaussianBlur stdDeviation="1" result="effect1_foregroundBlur_414_3699"/>
</filter>
<filter id="filter20_f_414_3699" x="52.3066" y="72.3062" width="19.3965" height="19.3965" filterUnits="userSpaceOnUse" color-interpolation-filters="sRGB">
<feFlood flood-opacity="0" result="BackgroundImageFix"/>
<feBlend mode="normal" in="SourceGraphic" in2="BackgroundImageFix" result="shape"/>
<feGaussianBlur stdDeviation="4" result="effect1_foregroundBlur_414_3699"/>
</filter>
<filter id="filter21_f_414_3699" x="59.1855" y="79.1851" width="5.63867" height="5.63867" filterUnits="userSpaceOnUse" color-interpolation-filters="sRGB">
<feFlood flood-opacity="0" result="BackgroundImageFix"/>
<feBlend mode="normal" in="SourceGraphic" in2="BackgroundImageFix" result="shape"/>
<feGaussianBlur stdDeviation="1" result="effect1_foregroundBlur_414_3699"/>
</filter>
<filter id="filter22_f_414_3699" x="44.3066" y="108.306" width="19.3965" height="19.3965" filterUnits="userSpaceOnUse" color-interpolation-filters="sRGB">
<feFlood flood-opacity="0" result="BackgroundImageFix"/>
<feBlend mode="normal" in="SourceGraphic" in2="BackgroundImageFix" result="shape"/>
<feGaussianBlur stdDeviation="4" result="effect1_foregroundBlur_414_3699"/>
</filter>
<filter id="filter23_f_414_3699" x="51.1855" y="115.185" width="5.63867" height="5.63867" filterUnits="userSpaceOnUse" color-interpolation-filters="sRGB">
<feFlood flood-opacity="0" result="BackgroundImageFix"/>
<feBlend mode="normal" in="SourceGraphic" in2="BackgroundImageFix" result="shape"/>
<feGaussianBlur stdDeviation="1" result="effect1_foregroundBlur_414_3699"/>
</filter>
<filter id="filter24_i_414_3699" x="90.9224" y="47.0312" width="13.7861" height="81.4409" filterUnits="userSpaceOnUse" color-interpolation-filters="sRGB">
<feFlood flood-opacity="0" result="BackgroundImageFix"/>
<feBlend mode="normal" in="SourceGraphic" in2="BackgroundImageFix" result="shape"/>
<feColorMatrix in="SourceAlpha" type="matrix" values="0 0 0 0 0 0 0 0 0 0 0 0 0 0 0 0 0 0 127 0" result="hardAlpha"/>
<feOffset dx="-4" dy="4"/>
<feGaussianBlur stdDeviation="3"/>
<feComposite in2="hardAlpha" operator="arithmetic" k2="-1" k3="1"/>
<feColorMatrix type="matrix" values="0 0 0 0 0 0 0 0 0 0 0 0 0 0 0 0 0 0 0.25 0"/>
<feBlend mode="normal" in2="shape" result="effect1_innerShadow_414_3699"/>
</filter>
<linearGradient id="paint0_linear_414_3699" x1="45.4557" y1="-42.1911" x2="34.381" y2="46.4063" gradientUnits="userSpaceOnUse">
<stop stop-color="white" stop-opacity="0.4"/>
<stop offset="1" stop-color="#666666" stop-opacity="0"/>
</linearGradient>
<linearGradient id="paint1_linear_414_3699" x1="39.5486" y1="25.7334" x2="39.5486" y2="45.6678" gradientUnits="userSpaceOnUse">
<stop stop-color="#FFCC33"/>
<stop offset="1" stop-color="#D6492A"/>
</linearGradient>
<linearGradient id="paint2_linear_414_3699" x1="0.454985" y1="0" x2="0.454985" y2="10.0097" gradientUnits="userSpaceOnUse">
<stop stop-color="white" stop-opacity="0"/>
<stop offset="0.49" stop-color="white" stop-opacity="0.5"/>
<stop offset="1" stop-color="white" stop-opacity="0"/>
</linearGradient>
<linearGradient id="paint3_linear_414_3699" x1="0.454985" y1="0" x2="0.454985" y2="10.0097" gradientUnits="userSpaceOnUse">
<stop stop-color="white" stop-opacity="0"/>
<stop offset="0.49" stop-color="white" stop-opacity="0.5"/>
<stop offset="1" stop-color="white" stop-opacity="0"/>
</linearGradient>
<linearGradient id="paint4_linear_414_3699" x1="0.454921" y1="0" x2="0.454921" y2="6.3689" gradientUnits="userSpaceOnUse">
<stop stop-color="white" stop-opacity="0"/>
<stop offset="0.49" stop-color="white" stop-opacity="0.5"/>
<stop offset="1" stop-color="white" stop-opacity="0"/>
</linearGradient>
<linearGradient id="paint5_linear_414_3699" x1="0.454921" y1="0" x2="0.454921" y2="6.3689" gradientUnits="userSpaceOnUse">
<stop stop-color="white" stop-opacity="0"/>
<stop offset="0.49" stop-color="white" stop-opacity="0.5"/>
<stop offset="1" stop-color="white" stop-opacity="0"/>
</linearGradient>
<linearGradient id="paint6_linear_414_3699" x1="0.273166" y1="0" x2="0.273166" y2="6.00966" gradientUnits="userSpaceOnUse">
<stop stop-color="white" stop-opacity="0"/>
<stop offset="0.49" stop-color="white" stop-opacity="0.5"/>
<stop offset="1" stop-color="white" stop-opacity="0"/>
</linearGradient>
<linearGradient id="paint7_linear_414_3699" x1="0.273166" y1="0" x2="0.273166" y2="6.00966" gradientUnits="userSpaceOnUse">
<stop stop-color="white" stop-opacity="0"/>
<stop offset="0.49" stop-color="white" stop-opacity="0.5"/>
<stop offset="1" stop-color="white" stop-opacity="0"/>
</linearGradient>
<linearGradient id="paint8_linear_414_3699" x1="0.273128" y1="0" x2="0.273128" y2="3.8238" gradientUnits="userSpaceOnUse">
<stop stop-color="white" stop-opacity="0"/>
<stop offset="0.49" stop-color="white" stop-opacity="0.5"/>
<stop offset="1" stop-color="white" stop-opacity="0"/>
</linearGradient>
<linearGradient id="paint9_linear_414_3699" x1="0.273128" y1="0" x2="0.273128" y2="3.8238" gradientUnits="userSpaceOnUse">
<stop stop-color="white" stop-opacity="0"/>
<stop offset="0.49" stop-color="white" stop-opacity="0.5"/>
<stop offset="1" stop-color="white" stop-opacity="0"/>
</linearGradient>
<linearGradient id="paint10_linear_414_3699" x1="0.273166" y1="0" x2="0.273166" y2="6.00966" gradientUnits="userSpaceOnUse">
<stop stop-color="white" stop-opacity="0"/>
<stop offset="0.49" stop-color="white" stop-opacity="0.5"/>
<stop offset="1" stop-color="white" stop-opacity="0"/>
</linearGradient>
<linearGradient id="paint11_linear_414_3699" x1="0.273166" y1="0" x2="0.273166" y2="6.00966" gradientUnits="userSpaceOnUse">
<stop stop-color="white" stop-opacity="0"/>
<stop offset="0.49" stop-color="white" stop-opacity="0.5"/>
<stop offset="1" stop-color="white" stop-opacity="0"/>
</linearGradient>
<linearGradient id="paint12_linear_414_3699" x1="0.273128" y1="0" x2="0.273128" y2="3.8238" gradientUnits="userSpaceOnUse">
<stop stop-color="white" stop-opacity="0"/>
<stop offset="0.49" stop-color="white" stop-opacity="0.5"/>
<stop offset="1" stop-color="white" stop-opacity="0"/>
</linearGradient>
<linearGradient id="paint13_linear_414_3699" x1="0.273128" y1="0" x2="0.273128" y2="3.8238" gradientUnits="userSpaceOnUse">
<stop stop-color="white" stop-opacity="0"/>
<stop offset="0.49" stop-color="white" stop-opacity="0.5"/>
<stop offset="1" stop-color="white" stop-opacity="0"/>
</linearGradient>
<linearGradient id="paint14_linear_414_3699" x1="111.903" y1="-42.1911" x2="100.828" y2="46.4063" gradientUnits="userSpaceOnUse">
<stop stop-color="white" stop-opacity="0.4"/>
<stop offset="1" stop-color="#666666" stop-opacity="0"/>
</linearGradient>
<linearGradient id="paint15_linear_414_3699" x1="105.997" y1="25.7334" x2="105.997" y2="45.6678" gradientUnits="userSpaceOnUse">
<stop stop-color="#FFCC33"/>
<stop offset="1" stop-color="#D6492A"/>
</linearGradient>
<linearGradient id="paint16_linear_414_3699" x1="0.454985" y1="0" x2="0.454985" y2="10.0097" gradientUnits="userSpaceOnUse">
<stop stop-color="white" stop-opacity="0"/>
<stop offset="0.49" stop-color="white" stop-opacity="0.5"/>
<stop offset="1" stop-color="white" stop-opacity="0"/>
</linearGradient>
<linearGradient id="paint17_linear_414_3699" x1="0.454985" y1="0" x2="0.454985" y2="10.0097" gradientUnits="userSpaceOnUse">
<stop stop-color="white" stop-opacity="0"/>
<stop offset="0.49" stop-color="white" stop-opacity="0.5"/>
<stop offset="1" stop-color="white" stop-opacity="0"/>
</linearGradient>
<linearGradient id="paint18_linear_414_3699" x1="0.454921" y1="0" x2="0.454921" y2="6.3689" gradientUnits="userSpaceOnUse">
<stop stop-color="white" stop-opacity="0"/>
<stop offset="0.49" stop-color="white" stop-opacity="0.5"/>
<stop offset="1" stop-color="white" stop-opacity="0"/>
</linearGradient>
<linearGradient id="paint19_linear_414_3699" x1="0.454921" y1="0" x2="0.454921" y2="6.3689" gradientUnits="userSpaceOnUse">
<stop stop-color="white" stop-opacity="0"/>
<stop offset="0.49" stop-color="white" stop-opacity="0.5"/>
<stop offset="1" stop-color="white" stop-opacity="0"/>
</linearGradient>
<linearGradient id="paint20_linear_414_3699" x1="0.273166" y1="0" x2="0.273166" y2="6.00966" gradientUnits="userSpaceOnUse">
<stop stop-color="white" stop-opacity="0"/>
<stop offset="0.49" stop-color="white" stop-opacity="0.5"/>
<stop offset="1" stop-color="white" stop-opacity="0"/>
</linearGradient>
<linearGradient id="paint21_linear_414_3699" x1="0.273166" y1="0" x2="0.273166" y2="6.00966" gradientUnits="userSpaceOnUse">
<stop stop-color="white" stop-opacity="0"/>
<stop offset="0.49" stop-color="white" stop-opacity="0.5"/>
<stop offset="1" stop-color="white" stop-opacity="0"/>
</linearGradient>
<linearGradient id="paint22_linear_414_3699" x1="0.273128" y1="0" x2="0.273128" y2="3.8238" gradientUnits="userSpaceOnUse">
<stop stop-color="white" stop-opacity="0"/>
<stop offset="0.49" stop-color="white" stop-opacity="0.5"/>
<stop offset="1" stop-color="white" stop-opacity="0"/>
</linearGradient>
<linearGradient id="paint23_linear_414_3699" x1="0.273128" y1="0" x2="0.273128" y2="3.8238" gradientUnits="userSpaceOnUse">
<stop stop-color="white" stop-opacity="0"/>
<stop offset="0.49" stop-color="white" stop-opacity="0.5"/>
<stop offset="1" stop-color="white" stop-opacity="0"/>
</linearGradient>
<linearGradient id="paint24_linear_414_3699" x1="0.273166" y1="0" x2="0.273166" y2="6.00966" gradientUnits="userSpaceOnUse">
<stop stop-color="white" stop-opacity="0"/>
<stop offset="0.49" stop-color="white" stop-opacity="0.5"/>
<stop offset="1" stop-color="white" stop-opacity="0"/>
</linearGradient>
<linearGradient id="paint25_linear_414_3699" x1="0.273166" y1="0" x2="0.273166" y2="6.00966" gradientUnits="userSpaceOnUse">
<stop stop-color="white" stop-opacity="0"/>
<stop offset="0.49" stop-color="white" stop-opacity="0.5"/>
<stop offset="1" stop-color="white" stop-opacity="0"/>
</linearGradient>
<linearGradient id="paint26_linear_414_3699" x1="0.273128" y1="0" x2="0.273128" y2="3.8238" gradientUnits="userSpaceOnUse">
<stop stop-color="white" stop-opacity="0"/>
<stop offset="0.49" stop-color="white" stop-opacity="0.5"/>
<stop offset="1" stop-color="white" stop-opacity="0"/>
</linearGradient>
<linearGradient id="paint27_linear_414_3699" x1="0.273128" y1="0" x2="0.273128" y2="3.8238" gradientUnits="userSpaceOnUse">
<stop stop-color="white" stop-opacity="0"/>
<stop offset="0.49" stop-color="white" stop-opacity="0.5"/>
<stop offset="1" stop-color="white" stop-opacity="0"/>
</linearGradient>
<linearGradient id="paint28_linear_414_3699" x1="80.9394" y1="-77.0274" x2="66.4745" y2="38.6917" gradientUnits="userSpaceOnUse">
<stop stop-color="white" stop-opacity="0.4"/>
<stop offset="1" stop-color="#666666" stop-opacity="0"/>
</linearGradient>
<linearGradient id="paint29_linear_414_3699" x1="73.2254" y1="11.6904" x2="73.2254" y2="37.7272" gradientUnits="userSpaceOnUse">
<stop stop-color="#FFCC33"/>
<stop offset="1" stop-color="#D6492A"/>
</linearGradient>
<linearGradient id="paint30_linear_414_3699" x1="0.454985" y1="0" x2="0.454985" y2="10.0097" gradientUnits="userSpaceOnUse">
<stop stop-color="white" stop-opacity="0"/>
<stop offset="0.49" stop-color="white" stop-opacity="0.5"/>
<stop offset="1" stop-color="white" stop-opacity="0"/>
</linearGradient>
<linearGradient id="paint31_linear_414_3699" x1="0.454985" y1="0" x2="0.454985" y2="10.0097" gradientUnits="userSpaceOnUse">
<stop stop-color="white" stop-opacity="0"/>
<stop offset="0.49" stop-color="white" stop-opacity="0.5"/>
<stop offset="1" stop-color="white" stop-opacity="0"/>
</linearGradient>
<linearGradient id="paint32_linear_414_3699" x1="0.454921" y1="0" x2="0.454921" y2="6.3689" gradientUnits="userSpaceOnUse">
<stop stop-color="white" stop-opacity="0"/>
<stop offset="0.49" stop-color="white" stop-opacity="0.5"/>
<stop offset="1" stop-color="white" stop-opacity="0"/>
</linearGradient>
<linearGradient id="paint33_linear_414_3699" x1="0.454921" y1="0" x2="0.454921" y2="6.3689" gradientUnits="userSpaceOnUse">
<stop stop-color="white" stop-opacity="0"/>
<stop offset="0.49" stop-color="white" stop-opacity="0.5"/>
<stop offset="1" stop-color="white" stop-opacity="0"/>
</linearGradient>
<linearGradient id="paint34_linear_414_3699" x1="0.273166" y1="0" x2="0.273166" y2="6.00966" gradientUnits="userSpaceOnUse">
<stop stop-color="white" stop-opacity="0"/>
<stop offset="0.49" stop-color="white" stop-opacity="0.5"/>
<stop offset="1" stop-color="white" stop-opacity="0"/>
</linearGradient>
<linearGradient id="paint35_linear_414_3699" x1="0.273166" y1="0" x2="0.273166" y2="6.00966" gradientUnits="userSpaceOnUse">
<stop stop-color="white" stop-opacity="0"/>
<stop offset="0.49" stop-color="white" stop-opacity="0.5"/>
<stop offset="1" stop-color="white" stop-opacity="0"/>
</linearGradient>
<linearGradient id="paint36_linear_414_3699" x1="0.273128" y1="0" x2="0.273128" y2="3.8238" gradientUnits="userSpaceOnUse">
<stop stop-color="white" stop-opacity="0"/>
<stop offset="0.49" stop-color="white" stop-opacity="0.5"/>
<stop offset="1" stop-color="white" stop-opacity="0"/>
</linearGradient>
<linearGradient id="paint37_linear_414_3699" x1="0.273128" y1="0" x2="0.273128" y2="3.8238" gradientUnits="userSpaceOnUse">
<stop stop-color="white" stop-opacity="0"/>
<stop offset="0.49" stop-color="white" stop-opacity="0.5"/>
<stop offset="1" stop-color="white" stop-opacity="0"/>
</linearGradient>
<linearGradient id="paint38_linear_414_3699" x1="0.273166" y1="0" x2="0.273166" y2="6.00966" gradientUnits="userSpaceOnUse">
<stop stop-color="white" stop-opacity="0"/>
<stop offset="0.49" stop-color="white" stop-opacity="0.5"/>
<stop offset="1" stop-color="white" stop-opacity="0"/>
</linearGradient>
<linearGradient id="paint39_linear_414_3699" x1="0.273166" y1="0" x2="0.273166" y2="6.00966" gradientUnits="userSpaceOnUse">
<stop stop-color="white" stop-opacity="0"/>
<stop offset="0.49" stop-color="white" stop-opacity="0.5"/>
<stop offset="1" stop-color="white" stop-opacity="0"/>
</linearGradient>
<linearGradient id="paint40_linear_414_3699" x1="0.273128" y1="0" x2="0.273128" y2="3.8238" gradientUnits="userSpaceOnUse">
<stop stop-color="white" stop-opacity="0"/>
<stop offset="0.49" stop-color="white" stop-opacity="0.5"/>
<stop offset="1" stop-color="white" stop-opacity="0"/>
</linearGradient>
<linearGradient id="paint41_linear_414_3699" x1="0.273128" y1="0" x2="0.273128" y2="3.8238" gradientUnits="userSpaceOnUse">
<stop stop-color="white" stop-opacity="0"/>
<stop offset="0.49" stop-color="white" stop-opacity="0.5"/>
<stop offset="1" stop-color="white" stop-opacity="0"/>
</linearGradient>
</defs>
</svg>
