<svg width="150" height="113" viewBox="0 0 150 113" fill="none" xmlns="http://www.w3.org/2000/svg">
<g filter="url(#filter0_d_430_10366)">
<g filter="url(#filter1_i_430_10366)">
<path d="M91 13C98.5 3.05176e-05 97 -6.85208e-06 100.5 0C135 30 10.5879 57.7803 8.49873 40.0001C7.5 31.5001 9.20475 23.3972 18.9991 18.5001C31.9994 12.0001 80.2728 31.5938 91 13Z" fill="#FFCC33"/>
</g>
<path d="M31.7869 21.1107C20.6998 18.5102 10.5 24 9.5 29C12.7408 25.5357 25.0353 27.7868 30.7742 29.2302C47.147 33.5607 83.413 38.4498 100.148 26.5237C118.377 13.5325 106.899 3.78911 100.654 0C100.654 0 103.692 11.3673 98.1223 16.7803C93.6662 21.1107 82.3363 26.5237 71 26.5237C53.5 26.5237 50.5 25.5 31.7869 21.1107Z" fill="#3D308C"/>
<g filter="url(#filter2_i_430_10366)">
<path d="M65 68C77 67.6 86.5 55.7998 86.5 55.7998C86.5 55.7998 92.4715 46.2998 96.6937 55.7998C99.3006 61.6652 109.229 52.9777 113.529 42C116.193 35.1976 115.387 25.9652 114.529 21.5C112.029 8.5 105.862 2.5 100.529 0C105.661 3.5 109 6 108.5 13C108 20 97.8282 26.3676 88.029 29C75 32.5 68.5212 31.5308 56 31C41.5786 30.3887 26.0288 26 19.5288 25C13.0288 24 8.52902 23 8.02902 39C7.52902 55 13.529 57.5 23.029 62C32.529 66.5 50 68.5 65 68Z" fill="url(#paint0_linear_430_10366)"/>
</g>
<path d="M23.44 49.058C24.1218 46.3119 26.9705 44.7009 29.6852 45.4988C32.6507 46.3704 36.3944 47.436 39.3348 48.1583C41.9239 48.7944 45.2367 49.4951 47.9749 50.0505C50.8248 50.6286 52.6601 53.4357 52.0105 56.2701C51.4355 58.7785 49.0897 60.4708 46.5361 60.1521C43.691 59.7969 40.035 59.2731 37.2717 58.644C33.684 57.827 29.1476 55.9488 26.0529 54.557C23.9532 53.6127 22.8852 51.2925 23.44 49.058Z" fill="#3D308C"/>
<path d="M39.7378 51.9092C39.7429 51.8176 39.714 51.7411 39.6512 51.6799C39.5884 51.6187 39.4963 51.5783 39.3749 51.5589C39.2925 51.5457 39.2211 51.5457 39.1607 51.559C39.1004 51.5715 39.052 51.5946 39.0155 51.6285C38.9797 51.6625 38.9579 51.7041 38.95 51.7532C38.9419 51.7939 38.9451 51.8311 38.9597 51.8647C38.975 51.8985 38.9984 51.9294 39.0299 51.9573C39.0614 51.9845 39.0988 52.01 39.1421 52.0337C39.1855 52.0567 39.2324 52.078 39.2827 52.0975L39.4896 52.181C39.5902 52.2201 39.6811 52.2652 39.7623 52.3164C39.8435 52.3675 39.9116 52.4254 39.9667 52.49C40.0218 52.5546 40.0609 52.6265 40.0841 52.7059C40.1081 52.7853 40.1129 52.8728 40.0984 52.9682C40.0752 53.1081 40.0184 53.2235 39.928 53.3144C39.8386 53.4047 39.7201 53.4671 39.5725 53.5015C39.4259 53.5353 39.2553 53.5366 39.0608 53.5054C38.8679 53.4745 38.7044 53.4193 38.5703 53.3398C38.437 53.2604 38.3391 53.1588 38.2768 53.035C38.2153 52.9106 38.1958 52.7658 38.2183 52.6006L38.7072 52.679C38.7004 52.7565 38.7131 52.8242 38.7453 52.8821C38.7784 52.9393 38.8271 52.9865 38.8914 53.0235C38.9566 53.0599 39.0328 53.0851 39.1199 53.099C39.2055 53.1128 39.2817 53.1127 39.3485 53.099C39.4161 53.0854 39.4708 53.0602 39.5126 53.0233C39.5545 52.9865 39.5798 52.9405 39.5886 52.8854C39.5968 52.834 39.5878 52.7883 39.5615 52.7482C39.536 52.7082 39.4949 52.6711 39.4381 52.6368C39.3821 52.6026 39.3122 52.5685 39.2283 52.5344L38.9781 52.4302C38.7841 52.351 38.6367 52.2522 38.536 52.1337C38.4353 52.0152 38.3989 51.8715 38.4267 51.7026C38.4481 51.564 38.506 51.4492 38.6004 51.3581C38.6955 51.2672 38.8162 51.2036 38.9625 51.1675C39.1087 51.1313 39.2689 51.1272 39.4432 51.1551C39.6206 51.1835 39.7707 51.2374 39.8937 51.3166C40.0174 51.396 40.108 51.4934 40.1653 51.6087C40.2226 51.7241 40.2415 51.8501 40.2221 51.9867L39.7378 51.9092Z" fill="#D97EB9"/>
<path d="M41.1878 51.4666L40.8214 53.7542L40.3243 53.6746L40.6906 51.387L41.1878 51.4666Z" fill="#D97EB9"/>
<path d="M42.0311 53.9823C41.8468 53.9528 41.6938 53.8916 41.5722 53.7988C41.4515 53.7054 41.3659 53.5871 41.3155 53.4438C41.2651 53.2998 41.2544 53.1373 41.2834 52.9563C41.3117 52.7799 41.3723 52.6307 41.4652 52.5089C41.5581 52.387 41.6755 52.2993 41.8174 52.2456C41.96 52.1921 42.1192 52.1794 42.295 52.2076C42.4133 52.2265 42.5204 52.2624 42.6165 52.3152C42.7135 52.3674 42.7943 52.4357 42.859 52.5201C42.9244 52.6047 42.9698 52.7052 42.995 52.8215C43.0204 52.937 43.0214 53.0678 42.998 53.2138L42.9771 53.3445L41.4636 53.1021L41.5108 52.8072L42.5564 52.9746C42.5674 52.9061 42.5615 52.8429 42.5389 52.7851C42.5162 52.7272 42.4797 52.679 42.4292 52.6403C42.3796 52.6011 42.3187 52.5757 42.2463 52.5641C42.1708 52.552 42.1013 52.558 42.0375 52.5822C41.9747 52.6058 41.9225 52.6428 41.8809 52.6934C41.8394 52.7433 41.8128 52.8021 41.8012 52.8697L41.7563 53.1501C41.7427 53.235 41.7473 53.3109 41.7701 53.378C41.7936 53.4451 41.833 53.5003 41.8884 53.5436C41.9437 53.5868 42.013 53.6151 42.0962 53.6284C42.1514 53.6372 42.2032 53.6379 42.2515 53.6304C42.2998 53.6228 42.3426 53.6068 42.3801 53.5822C42.4175 53.5577 42.4483 53.5252 42.4723 53.4847L42.9274 53.5874C42.8872 53.6894 42.8245 53.7741 42.7395 53.8414C42.6554 53.9081 42.5531 53.9544 42.4325 53.9801C42.3127 54.0052 42.179 54.006 42.0311 53.9823Z" fill="#D97EB9"/>
<path d="M43.9952 54.2968C43.8108 54.2673 43.6578 54.2061 43.5362 54.1134C43.4155 54.0199 43.3299 53.9016 43.2795 53.7583C43.2291 53.6143 43.2185 53.4518 43.2474 53.2709C43.2757 53.0944 43.3363 52.9452 43.4292 52.8234C43.5221 52.7016 43.6395 52.6138 43.7814 52.5602C43.924 52.5066 44.0832 52.494 44.259 52.5221C44.3773 52.5411 44.4845 52.5769 44.5805 52.6297C44.6775 52.6819 44.7583 52.7502 44.823 52.8347C44.8884 52.9193 44.9338 53.0197 44.9591 53.136C44.9844 53.2516 44.9854 53.3824 44.9621 53.5283L44.9411 53.659L43.4276 53.4166L43.4748 53.1217L44.5204 53.2892C44.5314 53.2207 44.5255 53.1575 44.5029 53.0996C44.4802 53.0418 44.4437 52.9935 44.3932 52.9549C44.3436 52.9156 44.2827 52.8902 44.2103 52.8786C44.1349 52.8665 44.0653 52.8726 44.0016 52.8967C43.9387 52.9203 43.8865 52.9574 43.8449 53.008C43.8034 53.0579 43.7768 53.1166 43.7652 53.1843L43.7203 53.4646C43.7067 53.5495 43.7113 53.6255 43.7341 53.6925C43.7576 53.7597 43.7971 53.8149 43.8524 53.8581C43.9077 53.9013 43.977 53.9296 44.0602 53.9429C44.1155 53.9518 44.1672 53.9524 44.2155 53.9449C44.2638 53.9374 44.3067 53.9213 44.3441 53.8968C44.3815 53.8722 44.4123 53.8397 44.4363 53.7993L44.8915 53.9019C44.8512 54.0039 44.7885 54.0886 44.7036 54.156C44.6195 54.2227 44.5171 54.2689 44.3965 54.2947C44.2767 54.3198 44.143 54.3205 43.9952 54.2968Z" fill="#D97EB9"/>
<path d="M45.0446 55.0904L45.4224 52.7313L45.9126 52.8098L45.8664 53.098L45.8886 53.1016C45.9178 53.0589 45.9568 53.017 46.0056 52.976C46.0554 52.9343 46.1163 52.9028 46.1883 52.8815C46.2613 52.8596 46.3479 52.8567 46.4483 52.8727C46.579 52.8937 46.6943 52.9457 46.7943 53.029C46.8944 53.1114 46.967 53.2235 47.0122 53.3652C47.0574 53.5061 47.0643 53.6748 47.0328 53.8714C47.0022 54.0628 46.944 54.2192 46.8583 54.3407C46.7735 54.4615 46.6705 54.547 46.5492 54.597C46.4287 54.6465 46.3004 54.6603 46.1643 54.6385C46.0678 54.623 45.9882 54.5946 45.9254 54.5533C45.8634 54.512 45.8147 54.4649 45.7793 54.4119C45.744 54.3581 45.7189 54.3056 45.704 54.2543L45.6888 54.2519L45.5418 55.17L45.0446 55.0904ZM45.7717 53.6671C45.7553 53.7691 45.7559 53.8605 45.7733 53.9412C45.7907 54.0219 45.824 54.0879 45.8732 54.1394C45.9225 54.19 45.9873 54.2218 46.0674 54.2346C46.1483 54.2476 46.2202 54.2373 46.283 54.2038C46.3459 54.1696 46.3978 54.1168 46.4388 54.0455C46.4806 53.9735 46.5096 53.8876 46.5255 53.7879C46.5414 53.6888 46.541 53.5994 46.5242 53.5196C46.5075 53.4398 46.4745 53.3741 46.4253 53.3227C46.3761 53.2713 46.3106 53.2391 46.2289 53.226C46.148 53.213 46.0763 53.2225 46.0137 53.2545C45.9519 53.2866 45.9002 53.3379 45.8586 53.4084C45.817 53.4789 45.788 53.5651 45.7717 53.6671Z" fill="#D97EB9"/>
<path d="M37.1577 56.3019L37.0002 56.2726L37.6849 55.1231L37.8401 55.1519L38.0668 56.4706L37.9092 56.4413L37.7311 55.3337L37.7214 55.3319L37.1577 56.3019ZM37.3054 55.8306L37.9405 55.9485L37.9159 56.081L37.2808 55.9632L37.3054 55.8306Z" fill="white"/>
<path d="M38.2507 56.5047L38.4225 55.5792L38.5655 55.6057L38.3938 56.5312L38.2507 56.5047ZM38.5239 55.4384C38.496 55.4332 38.4737 55.4193 38.457 55.3967C38.4407 55.3741 38.435 55.3496 38.4399 55.3231C38.4448 55.2966 38.459 55.2757 38.4823 55.2605C38.506 55.2454 38.5318 55.2404 38.5596 55.2456C38.5875 55.2508 38.6096 55.2646 38.6259 55.2872C38.6426 55.3098 38.6485 55.3344 38.6436 55.3609C38.6386 55.3874 38.6243 55.4082 38.6006 55.4234C38.5773 55.4386 38.5517 55.4436 38.5239 55.4384Z" fill="white"/>
<path d="M38.6557 56.5799L38.8275 55.6543L38.9657 55.68L38.9397 55.8198L38.9494 55.8216C38.9749 55.7789 39.0125 55.7475 39.0622 55.7272C39.112 55.7069 39.1647 55.7019 39.2205 55.7123C39.231 55.7142 39.2441 55.7169 39.2597 55.7202C39.2754 55.7235 39.2872 55.7263 39.2952 55.7286L39.2683 55.8733C39.2637 55.8712 39.2529 55.8673 39.236 55.8617C39.2196 55.8557 39.2018 55.8509 39.1829 55.8474C39.1376 55.839 39.0954 55.841 39.0564 55.8533C39.0178 55.8652 38.9852 55.8857 38.9584 55.9149C38.9322 55.9436 38.9152 55.9789 38.9074 56.0207L38.7988 56.6064L38.6557 56.5799Z" fill="white"/>
<path d="M42.1843 56.0421L42.3799 56.0685L42.6892 57.2497L42.7051 57.2518L43.3156 56.1943L43.5112 56.2207L43.3297 57.5691L43.1764 57.5485L43.3143 56.524L43.3011 56.5222L42.7403 57.4898L42.5923 57.4699L42.3072 56.3885L42.294 56.3867L42.1562 57.4112L42.0029 57.3906L42.1843 56.0421Z" fill="white"/>
<path d="M44.3325 57.2831L44.4129 56.6852L44.5689 56.7062L44.4328 57.7175L44.2768 57.6965L44.2999 57.5254L44.2893 57.5239C44.2586 57.5721 44.2157 57.6108 44.1607 57.64C44.1057 57.6688 44.0398 57.6781 43.9632 57.6677C43.8997 57.6592 43.8452 57.6378 43.7996 57.6035C43.754 57.5688 43.7209 57.5214 43.7003 57.4614C43.6797 57.401 43.6752 57.3278 43.6868 57.2418L43.7733 56.5991L43.9292 56.6201L43.8442 57.2522C43.8342 57.326 43.847 57.3876 43.8825 57.437C43.9185 57.4866 43.9688 57.5157 44.0336 57.5244C44.0724 57.5296 44.1131 57.525 44.1559 57.5107C44.1991 57.4964 44.237 57.4706 44.2699 57.4335C44.3031 57.3964 44.324 57.3463 44.3325 57.2831Z" fill="white"/>
<path d="M45.543 57.0678L45.3976 57.0885C45.3919 57.064 45.3819 57.0397 45.3677 57.0154C45.354 56.9908 45.3336 56.9693 45.3064 56.9509C45.2793 56.9325 45.2431 56.9202 45.1977 56.9141C45.1356 56.9058 45.0819 56.9131 45.0366 56.936C44.9919 56.9586 44.9666 56.9916 44.9607 57.0351C44.9555 57.0737 44.9655 57.1061 44.9907 57.1323C45.0159 57.1585 45.0574 57.1831 45.1153 57.206L45.261 57.2632C45.3488 57.2973 45.4119 57.34 45.4504 57.3912C45.4888 57.442 45.5033 57.5027 45.4938 57.5734C45.486 57.6313 45.4623 57.6809 45.4227 57.722C45.3835 57.7632 45.3324 57.793 45.2694 57.8113C45.2064 57.8296 45.1354 57.8335 45.0566 57.8229C44.953 57.809 44.8704 57.7751 44.8086 57.7212C44.7467 57.6673 44.7126 57.5961 44.7061 57.5076L44.8591 57.4906C44.8659 57.547 44.887 57.5914 44.9226 57.6239C44.9585 57.6564 45.0085 57.677 45.0724 57.6856C45.145 57.6954 45.2048 57.6878 45.2517 57.6628C45.2991 57.6374 45.3257 57.603 45.3315 57.5596C45.3362 57.5245 45.3279 57.4934 45.3064 57.4664C45.2849 57.4389 45.2495 57.4158 45.2 57.3971L45.0361 57.3348C44.9461 57.3004 44.8824 57.2572 44.845 57.2052C44.8081 57.1529 44.7943 57.0918 44.8037 57.022C44.8114 56.9649 44.8343 56.9166 44.8723 56.8771C44.9108 56.8375 44.9597 56.809 45.0191 56.7916C45.0788 56.7741 45.1444 56.7702 45.2157 56.7798C45.3162 56.7933 45.3921 56.8259 45.4435 56.8775C45.4953 56.9291 45.5284 56.9926 45.543 57.0678Z" fill="white"/>
<path d="M45.6906 57.8868L45.8267 56.8754L45.9827 56.8964L45.8466 57.9077L45.6906 57.8868ZM45.9287 56.7175C45.8983 56.7134 45.8735 56.6996 45.8542 56.676C45.8354 56.6525 45.8279 56.6262 45.8318 56.5972C45.8357 56.5683 45.8499 56.5449 45.8742 56.5272C45.899 56.5095 45.9266 56.5027 45.957 56.5068C45.9874 56.5109 46.012 56.5247 46.0308 56.5483C46.0501 56.5719 46.0578 56.5981 46.0539 56.6271C46.05 56.6561 46.0356 56.6794 46.0108 56.6971C45.9865 56.7148 45.9591 56.7216 45.9287 56.7175Z" fill="white"/>
<path d="M46.5417 58.0227C46.4466 58.0099 46.3676 57.9765 46.3049 57.9225C46.2422 57.8685 46.1977 57.7997 46.1712 57.7161C46.1448 57.6326 46.1384 57.5403 46.152 57.4394C46.1658 57.3366 46.1969 57.2485 46.2454 57.1751C46.2943 57.1012 46.3559 57.0467 46.4302 57.0116C46.5049 56.976 46.5881 56.9644 46.6798 56.9768C46.7511 56.9864 46.8137 57.0082 46.8674 57.0422C46.9211 57.0763 46.9631 57.1195 46.9933 57.1718C47.0235 57.2241 47.0387 57.2825 47.039 57.3469L46.8831 57.3259C46.8774 57.2782 46.8564 57.2338 46.8202 57.1928C46.7846 57.1513 46.7323 57.126 46.6636 57.1167C46.6028 57.1085 46.5474 57.1172 46.4973 57.1426C46.4478 57.1677 46.4064 57.207 46.3731 57.2606C46.3404 57.3139 46.3189 57.3787 46.3086 57.4551C46.2981 57.5332 46.3013 57.6029 46.3182 57.6642C46.3355 57.7255 46.3647 57.7752 46.4057 57.8134C46.4472 57.8516 46.4988 57.8748 46.5605 57.8831C46.601 57.8886 46.6388 57.8865 46.6737 57.8769C46.7086 57.8673 46.7393 57.8509 46.7658 57.8276C46.7922 57.8044 46.8128 57.775 46.8274 57.7394L46.9834 57.7604C46.9665 57.8189 46.9375 57.8697 46.8963 57.9129C46.8555 57.9557 46.8048 57.9873 46.7442 58.0077C46.6841 58.0278 46.6166 58.0328 46.5417 58.0227Z" fill="white"/>
<path fill-rule="evenodd" clip-rule="evenodd" d="M29.2645 45.38C26.6018 44.59 23.8125 46.1762 23.1433 48.8718C22.5952 51.0792 23.654 53.37 25.7306 54.2977C27.8881 55.2615 30.756 56.4655 33.5154 57.3851L36.0077 47.3467C33.7597 46.7061 31.3237 45.991 29.2645 45.38Z" fill="#000033"/>
<circle cx="20.5" cy="46.5" r="1.5" fill="#FFCC33"/>
<circle cx="29.8406" cy="51.0172" r="3" transform="rotate(19.851 29.8406 51.0172)" fill="#3D308C"/>
<path d="M30.1802 50.0767L29.501 51.9578" stroke="black" stroke-linecap="round"/>
<path d="M90.9946 51.1939C90.9946 51.1939 91.3361 45.1586 90.4978 40.6464C89.6784 36.2359 86.9999 29.9999 86.9999 29.9999" stroke="#3D308C" stroke-linecap="round"/>
<g filter="url(#filter3_i_430_10366)">
<path d="M117 41C124.5 28 123 28 126.5 28C161 58 36.5879 85.7803 34.4987 68.0001C33.5 59.5001 35.2047 51.3972 44.9991 46.5001C57.9994 40.0001 106.273 59.5938 117 41Z" fill="#FFCC33"/>
</g>
<path d="M57.7869 49.1107C46.6998 46.5102 36.5 52 35.5 57C38.7408 53.5357 51.0353 55.7868 56.7742 57.2302C73.147 61.5607 109.413 66.4498 126.148 54.5237C144.377 41.5325 132.899 31.7891 126.654 28C126.654 28 129.692 39.3673 124.122 44.7803C119.666 49.1107 108.336 54.5237 97 54.5237C79.5 54.5237 76.5 53.5 57.7869 49.1107Z" fill="#010B40"/>
<g filter="url(#filter4_i_430_10366)">
<path d="M91 96C103 95.6 112.5 83.7998 112.5 83.7998C112.5 83.7998 118.471 74.2998 122.694 83.7998C125.301 89.6652 135.229 80.9777 139.529 70C142.193 63.1976 141.387 53.9652 140.529 49.5C138.029 36.5 131.862 30.5 126.529 28C131.661 31.5 135 34 134.5 41C134 48 123.828 54.3676 114.029 57C101 60.5 94.5212 59.5308 82 59C67.5786 58.3887 52.0288 54 45.5288 53C39.0288 52 34.529 51 34.029 67C33.529 83 39.529 85.5 49.029 90C58.529 94.5 76 96.5 91 96Z" fill="#3D308C"/>
</g>
<path d="M49.44 77.058C50.1218 74.3119 52.9705 72.7009 55.6852 73.4988C58.6507 74.3704 62.3944 75.436 65.3348 76.1583C67.9239 76.7944 71.2367 77.4951 73.9749 78.0505C76.8248 78.6286 78.6601 81.4357 78.0105 84.2701C77.4355 86.7785 75.0897 88.4708 72.5361 88.1521C69.691 87.7969 66.035 87.2731 63.2717 86.644C59.684 85.827 55.1476 83.9488 52.0529 82.557C49.9532 81.6127 48.8852 79.2925 49.44 77.058Z" fill="#010B40"/>
<path d="M65.7378 79.9092C65.7429 79.8176 65.714 79.7411 65.6512 79.6799C65.5884 79.6187 65.4963 79.5783 65.3749 79.5589C65.2925 79.5457 65.2211 79.5457 65.1607 79.559C65.1004 79.5715 65.052 79.5946 65.0155 79.6285C64.9797 79.6625 64.9579 79.7041 64.95 79.7532C64.9419 79.7939 64.9451 79.8311 64.9597 79.8647C64.975 79.8985 64.9984 79.9294 65.0299 79.9573C65.0614 79.9845 65.0988 80.01 65.1421 80.0337C65.1855 80.0567 65.2324 80.078 65.2827 80.0975L65.4896 80.181C65.5902 80.2201 65.6811 80.2652 65.7623 80.3164C65.8435 80.3675 65.9116 80.4254 65.9667 80.49C66.0218 80.5546 66.0609 80.6265 66.0841 80.7059C66.1081 80.7853 66.1129 80.8728 66.0984 80.9682C66.0752 81.1081 66.0184 81.2235 65.928 81.3144C65.8386 81.4047 65.7201 81.4671 65.5725 81.5015C65.4259 81.5353 65.2553 81.5366 65.0608 81.5054C64.8679 81.4745 64.7044 81.4193 64.5703 81.3398C64.437 81.2604 64.3391 81.1588 64.2768 81.035C64.2153 80.9106 64.1958 80.7658 64.2183 80.6006L64.7072 80.679C64.7004 80.7565 64.7131 80.8242 64.7453 80.8821C64.7784 80.9393 64.8271 80.9865 64.8914 81.0235C64.9566 81.0599 65.0328 81.0851 65.1199 81.099C65.2055 81.1128 65.2817 81.1127 65.3485 81.099C65.4161 81.0854 65.4708 81.0602 65.5126 81.0233C65.5545 80.9865 65.5798 80.9405 65.5886 80.8854C65.5968 80.834 65.5878 80.7883 65.5615 80.7482C65.536 80.7082 65.4949 80.6711 65.4381 80.6368C65.3821 80.6026 65.3122 80.5685 65.2283 80.5344L64.9781 80.4302C64.7841 80.351 64.6367 80.2522 64.536 80.1337C64.4353 80.0152 64.3989 79.8715 64.4267 79.7026C64.4481 79.564 64.506 79.4492 64.6004 79.3581C64.6955 79.2672 64.8162 79.2036 64.9625 79.1675C65.1087 79.1313 65.2689 79.1272 65.4432 79.1551C65.6206 79.1835 65.7707 79.2374 65.8937 79.3166C66.0174 79.396 66.108 79.4934 66.1653 79.6087C66.2226 79.7241 66.2415 79.8501 66.2221 79.9867L65.7378 79.9092Z" fill="#D97EB9"/>
<path d="M67.1878 79.4666L66.8214 81.7542L66.3243 81.6746L66.6906 79.387L67.1878 79.4666Z" fill="#D97EB9"/>
<path d="M68.0311 81.9823C67.8468 81.9528 67.6938 81.8916 67.5722 81.7988C67.4515 81.7054 67.3659 81.5871 67.3155 81.4438C67.2651 81.2998 67.2544 81.1373 67.2834 80.9563C67.3117 80.7799 67.3723 80.6307 67.4652 80.5089C67.5581 80.387 67.6755 80.2993 67.8174 80.2456C67.96 80.1921 68.1192 80.1794 68.295 80.2076C68.4133 80.2265 68.5204 80.2624 68.6165 80.3152C68.7135 80.3674 68.7943 80.4357 68.859 80.5201C68.9244 80.6047 68.9698 80.7052 68.995 80.8215C69.0204 80.937 69.0214 81.0678 68.998 81.2138L68.9771 81.3445L67.4636 81.1021L67.5108 80.8072L68.5564 80.9746C68.5674 80.9061 68.5615 80.8429 68.5389 80.7851C68.5162 80.7272 68.4797 80.679 68.4292 80.6403C68.3796 80.6011 68.3187 80.5757 68.2463 80.5641C68.1708 80.552 68.1013 80.558 68.0375 80.5822C67.9747 80.6058 67.9225 80.6428 67.8809 80.6934C67.8394 80.7433 67.8128 80.8021 67.8012 80.8697L67.7563 81.1501C67.7427 81.235 67.7473 81.3109 67.7701 81.378C67.7936 81.4451 67.833 81.5003 67.8884 81.5436C67.9437 81.5868 68.013 81.6151 68.0962 81.6284C68.1514 81.6372 68.2032 81.6379 68.2515 81.6304C68.2998 81.6228 68.3426 81.6068 68.3801 81.5822C68.4175 81.5577 68.4483 81.5252 68.4723 81.4847L68.9274 81.5874C68.8872 81.6894 68.8245 81.7741 68.7395 81.8414C68.6554 81.9081 68.5531 81.9544 68.4325 81.9801C68.3127 82.0052 68.179 82.006 68.0311 81.9823Z" fill="#D97EB9"/>
<path d="M69.9952 82.2968C69.8108 82.2673 69.6578 82.2061 69.5362 82.1134C69.4155 82.0199 69.3299 81.9016 69.2795 81.7583C69.2291 81.6143 69.2185 81.4518 69.2474 81.2709C69.2757 81.0944 69.3363 80.9452 69.4292 80.8234C69.5221 80.7016 69.6395 80.6138 69.7814 80.5602C69.924 80.5066 70.0832 80.494 70.259 80.5221C70.3773 80.5411 70.4845 80.5769 70.5805 80.6297C70.6775 80.6819 70.7583 80.7502 70.823 80.8347C70.8884 80.9193 70.9338 81.0197 70.9591 81.136C70.9844 81.2516 70.9854 81.3824 70.9621 81.5283L70.9411 81.659L69.4276 81.4166L69.4748 81.1217L70.5204 81.2892C70.5314 81.2207 70.5255 81.1575 70.5029 81.0996C70.4802 81.0418 70.4437 80.9935 70.3932 80.9549C70.3436 80.9156 70.2827 80.8902 70.2103 80.8786C70.1349 80.8665 70.0653 80.8726 70.0016 80.8967C69.9387 80.9203 69.8865 80.9574 69.8449 81.008C69.8034 81.0579 69.7768 81.1166 69.7652 81.1843L69.7203 81.4646C69.7067 81.5495 69.7113 81.6255 69.7341 81.6925C69.7576 81.7597 69.7971 81.8149 69.8524 81.8581C69.9077 81.9013 69.977 81.9296 70.0602 81.9429C70.1155 81.9518 70.1672 81.9524 70.2155 81.9449C70.2638 81.9374 70.3067 81.9213 70.3441 81.8968C70.3815 81.8722 70.4123 81.8397 70.4363 81.7993L70.8915 81.9019C70.8512 82.0039 70.7885 82.0886 70.7036 82.156C70.6195 82.2227 70.5171 82.2689 70.3965 82.2947C70.2767 82.3198 70.143 82.3205 69.9952 82.2968Z" fill="#D97EB9"/>
<path d="M71.0446 83.0904L71.4224 80.7313L71.9126 80.8098L71.8664 81.098L71.8886 81.1016C71.9178 81.0589 71.9568 81.017 72.0056 80.976C72.0554 80.9343 72.1163 80.9028 72.1883 80.8815C72.2613 80.8596 72.3479 80.8567 72.4483 80.8727C72.579 80.8937 72.6943 80.9457 72.7943 81.029C72.8944 81.1114 72.967 81.2235 73.0122 81.3652C73.0574 81.5061 73.0643 81.6748 73.0328 81.8714C73.0022 82.0628 72.944 82.2192 72.8583 82.3407C72.7735 82.4615 72.6705 82.547 72.5492 82.597C72.4287 82.6465 72.3004 82.6603 72.1643 82.6385C72.0678 82.623 71.9882 82.5946 71.9254 82.5533C71.8634 82.512 71.8147 82.4649 71.7793 82.4119C71.744 82.3581 71.7189 82.3056 71.704 82.2543L71.6888 82.2519L71.5418 83.17L71.0446 83.0904ZM71.7717 81.6671C71.7553 81.7691 71.7559 81.8605 71.7733 81.9412C71.7907 82.0219 71.824 82.0879 71.8732 82.1394C71.9225 82.19 71.9873 82.2218 72.0674 82.2346C72.1483 82.2476 72.2202 82.2373 72.283 82.2038C72.3459 82.1696 72.3978 82.1168 72.4388 82.0455C72.4806 81.9735 72.5096 81.8876 72.5255 81.7879C72.5414 81.6888 72.541 81.5994 72.5242 81.5196C72.5075 81.4398 72.4745 81.3741 72.4253 81.3227C72.3761 81.2713 72.3106 81.2391 72.2289 81.226C72.148 81.213 72.0763 81.2225 72.0137 81.2545C71.9519 81.2866 71.9002 81.3379 71.8586 81.4084C71.817 81.4789 71.788 81.5651 71.7717 81.6671Z" fill="#D97EB9"/>
<path d="M63.1577 84.3019L63.0002 84.2726L63.6849 83.1231L63.8401 83.1519L64.0668 84.4706L63.9092 84.4413L63.7311 83.3337L63.7214 83.3319L63.1577 84.3019ZM63.3054 83.8306L63.9405 83.9485L63.9159 84.081L63.2808 83.9632L63.3054 83.8306Z" fill="white"/>
<path d="M64.2507 84.5047L64.4225 83.5792L64.5655 83.6057L64.3938 84.5312L64.2507 84.5047ZM64.5239 83.4384C64.496 83.4332 64.4737 83.4193 64.457 83.3967C64.4407 83.3741 64.435 83.3496 64.4399 83.3231C64.4448 83.2966 64.459 83.2757 64.4823 83.2605C64.506 83.2454 64.5318 83.2404 64.5596 83.2456C64.5875 83.2508 64.6096 83.2646 64.6259 83.2872C64.6426 83.3098 64.6485 83.3344 64.6436 83.3609C64.6386 83.3874 64.6243 83.4082 64.6006 83.4234C64.5773 83.4386 64.5517 83.4436 64.5239 83.4384Z" fill="white"/>
<path d="M64.6557 84.5799L64.8275 83.6543L64.9657 83.68L64.9397 83.8198L64.9494 83.8216C64.9749 83.7789 65.0125 83.7475 65.0622 83.7272C65.112 83.7069 65.1647 83.7019 65.2205 83.7123C65.231 83.7142 65.2441 83.7169 65.2597 83.7202C65.2754 83.7235 65.2872 83.7263 65.2952 83.7286L65.2683 83.8733C65.2637 83.8712 65.2529 83.8673 65.236 83.8617C65.2196 83.8557 65.2018 83.8509 65.1829 83.8474C65.1376 83.839 65.0954 83.841 65.0564 83.8533C65.0178 83.8652 64.9852 83.8857 64.9584 83.9149C64.9322 83.9436 64.9152 83.9789 64.9074 84.0207L64.7988 84.6064L64.6557 84.5799Z" fill="white"/>
<path d="M68.1843 84.0421L68.3799 84.0685L68.6892 85.2497L68.7051 85.2518L69.3156 84.1943L69.5112 84.2207L69.3297 85.5691L69.1764 85.5485L69.3143 84.524L69.3011 84.5222L68.7403 85.4898L68.5923 85.4699L68.3072 84.3885L68.294 84.3867L68.1562 85.4112L68.0029 85.3906L68.1843 84.0421Z" fill="white"/>
<path d="M70.3325 85.2831L70.4129 84.6852L70.5689 84.7062L70.4328 85.7175L70.2768 85.6965L70.2999 85.5254L70.2893 85.5239C70.2586 85.5721 70.2157 85.6108 70.1607 85.64C70.1057 85.6688 70.0398 85.6781 69.9632 85.6677C69.8997 85.6592 69.8452 85.6378 69.7996 85.6035C69.754 85.5688 69.7209 85.5214 69.7003 85.4614C69.6797 85.401 69.6752 85.3278 69.6868 85.2418L69.7733 84.5991L69.9292 84.6201L69.8442 85.2522C69.8342 85.326 69.847 85.3876 69.8825 85.437C69.9185 85.4866 69.9688 85.5157 70.0336 85.5244C70.0724 85.5296 70.1131 85.525 70.1559 85.5107C70.1991 85.4964 70.237 85.4706 70.2699 85.4335C70.3031 85.3964 70.324 85.3463 70.3325 85.2831Z" fill="white"/>
<path d="M71.543 85.0678L71.3976 85.0885C71.3919 85.064 71.3819 85.0397 71.3677 85.0154C71.354 84.9908 71.3336 84.9693 71.3064 84.9509C71.2793 84.9325 71.2431 84.9202 71.1977 84.9141C71.1356 84.9058 71.0819 84.9131 71.0366 84.936C70.9919 84.9586 70.9666 84.9916 70.9607 85.0351C70.9555 85.0737 70.9655 85.1061 70.9907 85.1323C71.0159 85.1585 71.0574 85.1831 71.1153 85.206L71.261 85.2632C71.3488 85.2973 71.4119 85.34 71.4504 85.3912C71.4888 85.442 71.5033 85.5027 71.4938 85.5734C71.486 85.6313 71.4623 85.6809 71.4227 85.722C71.3835 85.7632 71.3324 85.793 71.2694 85.8113C71.2064 85.8296 71.1354 85.8335 71.0566 85.8229C70.953 85.809 70.8704 85.7751 70.8086 85.7212C70.7467 85.6673 70.7126 85.5961 70.7061 85.5076L70.8591 85.4906C70.8659 85.547 70.887 85.5914 70.9226 85.6239C70.9585 85.6564 71.0085 85.677 71.0724 85.6856C71.145 85.6954 71.2048 85.6878 71.2517 85.6628C71.2991 85.6374 71.3257 85.603 71.3315 85.5596C71.3362 85.5245 71.3279 85.4934 71.3064 85.4664C71.2849 85.4389 71.2495 85.4158 71.2 85.3971L71.0361 85.3348C70.9461 85.3004 70.8824 85.2572 70.845 85.2052C70.8081 85.1529 70.7943 85.0918 70.8037 85.022C70.8114 84.9649 70.8343 84.9166 70.8723 84.8771C70.9108 84.8375 70.9597 84.809 71.0191 84.7916C71.0788 84.7741 71.1444 84.7702 71.2157 84.7798C71.3162 84.7933 71.3921 84.8259 71.4435 84.8775C71.4953 84.9291 71.5284 84.9926 71.543 85.0678Z" fill="white"/>
<path d="M71.6906 85.8868L71.8267 84.8754L71.9827 84.8964L71.8466 85.9077L71.6906 85.8868ZM71.9287 84.7175C71.8983 84.7134 71.8735 84.6996 71.8542 84.676C71.8354 84.6525 71.8279 84.6262 71.8318 84.5972C71.8357 84.5683 71.8499 84.5449 71.8742 84.5272C71.899 84.5095 71.9266 84.5027 71.957 84.5068C71.9874 84.5109 72.012 84.5247 72.0308 84.5483C72.0501 84.5719 72.0578 84.5981 72.0539 84.6271C72.05 84.6561 72.0356 84.6794 72.0108 84.6971C71.9865 84.7148 71.9591 84.7216 71.9287 84.7175Z" fill="white"/>
<path d="M72.5417 86.0227C72.4466 86.0099 72.3676 85.9765 72.3049 85.9225C72.2422 85.8685 72.1977 85.7997 72.1712 85.7161C72.1448 85.6326 72.1384 85.5403 72.152 85.4394C72.1658 85.3366 72.1969 85.2485 72.2454 85.1751C72.2943 85.1012 72.3559 85.0467 72.4302 85.0116C72.5049 84.976 72.5881 84.9644 72.6798 84.9768C72.7511 84.9864 72.8137 85.0082 72.8674 85.0422C72.9211 85.0763 72.9631 85.1195 72.9933 85.1718C73.0235 85.2241 73.0387 85.2825 73.039 85.3469L72.8831 85.3259C72.8774 85.2782 72.8564 85.2338 72.8202 85.1928C72.7846 85.1513 72.7323 85.126 72.6636 85.1167C72.6028 85.1085 72.5474 85.1172 72.4973 85.1426C72.4478 85.1677 72.4064 85.207 72.3731 85.2606C72.3404 85.3139 72.3189 85.3787 72.3086 85.4551C72.2981 85.5332 72.3013 85.6029 72.3182 85.6642C72.3355 85.7255 72.3647 85.7752 72.4057 85.8134C72.4472 85.8516 72.4988 85.8748 72.5605 85.8831C72.601 85.8886 72.6388 85.8865 72.6737 85.8769C72.7086 85.8673 72.7393 85.8509 72.7658 85.8276C72.7922 85.8044 72.8128 85.775 72.8274 85.7394L72.9834 85.7604C72.9665 85.8189 72.9375 85.8697 72.8963 85.9129C72.8555 85.9557 72.8048 85.9873 72.7442 86.0077C72.6841 86.0278 72.6166 86.0328 72.5417 86.0227Z" fill="white"/>
<path fill-rule="evenodd" clip-rule="evenodd" d="M55.2645 73.38C52.6018 72.59 49.8125 74.1762 49.1433 76.8718C48.5952 79.0792 49.654 81.37 51.7306 82.2977C53.8881 83.2615 56.756 84.4655 59.5154 85.3851L62.0077 75.3467C59.7597 74.7061 57.3237 73.991 55.2645 73.38Z" fill="#000033"/>
<circle cx="46.5" cy="74.5" r="1.5" fill="#FFCC33"/>
<circle cx="55.8406" cy="79.0172" r="3" transform="rotate(19.851 55.8406 79.0172)" fill="#3D308C"/>
<path d="M56.1802 78.0767L55.501 79.9578" stroke="black" stroke-linecap="round"/>
<path d="M116.995 79.1939C116.995 79.1939 117.336 73.1586 116.498 68.6464C115.678 64.2359 113 57.9999 113 57.9999" stroke="#3D308C" stroke-linecap="round"/>
</g>
<defs>
<filter id="filter0_d_430_10366" x="0" y="0" width="149.351" height="112.075" filterUnits="userSpaceOnUse" color-interpolation-filters="sRGB">
<feFlood flood-opacity="0" result="BackgroundImageFix"/>
<feColorMatrix in="SourceAlpha" type="matrix" values="0 0 0 0 0 0 0 0 0 0 0 0 0 0 0 0 0 0 127 0" result="hardAlpha"/>
<feOffset dy="8"/>
<feGaussianBlur stdDeviation="4"/>
<feComposite in2="hardAlpha" operator="out"/>
<feColorMatrix type="matrix" values="0 0 0 0 0 0 0 0 0 0 0 0 0 0 0 0 0 0 0.25 0"/>
<feBlend mode="normal" in2="BackgroundImageFix" result="effect1_dropShadow_430_10366"/>
<feBlend mode="normal" in="SourceGraphic" in2="effect1_dropShadow_430_10366" result="shape"/>
</filter>
<filter id="filter1_i_430_10366" x="8.24902" y="0" width="98.293" height="47.5815" filterUnits="userSpaceOnUse" color-interpolation-filters="sRGB">
<feFlood flood-opacity="0" result="BackgroundImageFix"/>
<feBlend mode="normal" in="SourceGraphic" in2="BackgroundImageFix" result="shape"/>
<feColorMatrix in="SourceAlpha" type="matrix" values="0 0 0 0 0 0 0 0 0 0 0 0 0 0 0 0 0 0 127 0" result="hardAlpha"/>
<feOffset dy="2"/>
<feGaussianBlur stdDeviation="2"/>
<feComposite in2="hardAlpha" operator="arithmetic" k2="-1" k3="1"/>
<feColorMatrix type="matrix" values="0 0 0 0 0 0 0 0 0 0 0 0 0 0 0 0 0 0 0.25 0"/>
<feBlend mode="normal" in2="shape" result="effect1_innerShadow_430_10366"/>
</filter>
<filter id="filter2_i_430_10366" x="8" y="0" width="111.351" height="72.0752" filterUnits="userSpaceOnUse" color-interpolation-filters="sRGB">
<feFlood flood-opacity="0" result="BackgroundImageFix"/>
<feBlend mode="normal" in="SourceGraphic" in2="BackgroundImageFix" result="shape"/>
<feColorMatrix in="SourceAlpha" type="matrix" values="0 0 0 0 0 0 0 0 0 0 0 0 0 0 0 0 0 0 127 0" result="hardAlpha"/>
<feOffset dx="4" dy="4"/>
<feGaussianBlur stdDeviation="2"/>
<feComposite in2="hardAlpha" operator="arithmetic" k2="-1" k3="1"/>
<feColorMatrix type="matrix" values="0 0 0 0 0 0 0 0 0 0 0 0 0 0 0 0 0 0 0.25 0"/>
<feBlend mode="normal" in2="shape" result="effect1_innerShadow_430_10366"/>
</filter>
<filter id="filter3_i_430_10366" x="34.249" y="28" width="98.293" height="47.5815" filterUnits="userSpaceOnUse" color-interpolation-filters="sRGB">
<feFlood flood-opacity="0" result="BackgroundImageFix"/>
<feBlend mode="normal" in="SourceGraphic" in2="BackgroundImageFix" result="shape"/>
<feColorMatrix in="SourceAlpha" type="matrix" values="0 0 0 0 0 0 0 0 0 0 0 0 0 0 0 0 0 0 127 0" result="hardAlpha"/>
<feOffset dy="2"/>
<feGaussianBlur stdDeviation="2"/>
<feComposite in2="hardAlpha" operator="arithmetic" k2="-1" k3="1"/>
<feColorMatrix type="matrix" values="0 0 0 0 0 0 0 0 0 0 0 0 0 0 0 0 0 0 0.25 0"/>
<feBlend mode="normal" in2="shape" result="effect1_innerShadow_430_10366"/>
</filter>
<filter id="filter4_i_430_10366" x="34" y="28" width="111.351" height="72.0752" filterUnits="userSpaceOnUse" color-interpolation-filters="sRGB">
<feFlood flood-opacity="0" result="BackgroundImageFix"/>
<feBlend mode="normal" in="SourceGraphic" in2="BackgroundImageFix" result="shape"/>
<feColorMatrix in="SourceAlpha" type="matrix" values="0 0 0 0 0 0 0 0 0 0 0 0 0 0 0 0 0 0 127 0" result="hardAlpha"/>
<feOffset dx="4" dy="4"/>
<feGaussianBlur stdDeviation="2"/>
<feComposite in2="hardAlpha" operator="arithmetic" k2="-1" k3="1"/>
<feColorMatrix type="matrix" values="0 0 0 0 0 0 0 0 0 0 0 0 0 0 0 0 0 0 0.25 0"/>
<feBlend mode="normal" in2="shape" result="effect1_innerShadow_430_10366"/>
</filter>
<linearGradient id="paint0_linear_430_10366" x1="-197.09" y1="95.7579" x2="-127.307" y2="-142.759" gradientUnits="userSpaceOnUse">
<stop offset="0.183536" stop-color="#D97EB9"/>
<stop offset="0.534" stop-color="#000033"/>
<stop offset="0.768961" stop-color="#784BA6"/>
</linearGradient>
</defs>
</svg>
