<svg width="161" height="86" viewBox="0 0 161 86" fill="none" xmlns="http://www.w3.org/2000/svg">
<g filter="url(#filter0_d_414_3694)">
<rect x="136.608" y="16.5688" width="16.5688" height="25.0043" rx="4" transform="rotate(8.38802 136.608 16.5688)" fill="url(#paint0_linear_414_3694)"/>
<rect width="16.5688" height="25.0043" rx="4" transform="matrix(-0.989303 0.145876 0.145876 0.989303 24.5332 16.5688)" fill="url(#paint1_linear_414_3694)"/>
<rect x="130.384" y="11.0459" width="16.5688" height="35.3469" rx="4" transform="rotate(8.38802 130.384 11.0459)" fill="url(#paint2_linear_414_3694)"/>
<rect width="16.5688" height="35.3469" rx="4" transform="matrix(-0.989303 0.145876 0.145876 0.989303 30.7568 11.0459)" fill="url(#paint3_linear_414_3694)"/>
<mask id="mask0_414_3694" style="mask-type:alpha" maskUnits="userSpaceOnUse" x="22" y="0" width="118" height="53">
<path fill-rule="evenodd" clip-rule="evenodd" d="M89.9217 43.0158C94.7225 46.6458 100.301 49.5098 106.053 50.9857C123.78 55.5343 135.378 44.3598 138.638 31.6554C141.898 18.9509 134.22 5.69755 113.233 2.38381C110.452 1.94479 107.804 1.63806 105.293 1.46583C84.5297 -1.09596 60.4029 0.0719465 50.315 2.13146C49.7583 2.21005 49.1961 2.29418 48.6284 2.38381C27.6411 5.69755 19.9631 18.9509 23.223 31.6554C26.4828 44.3598 38.0812 55.5343 55.8083 50.9857C61.3223 49.5708 66.6769 46.8803 71.3399 43.4623C71.517 43.4182 71.6745 43.349 71.8107 43.2536C76.8676 39.7138 85.1655 40.3411 89.9217 43.0158Z" fill="url(#paint4_linear_414_3694)"/>
</mask>
<g mask="url(#mask0_414_3694)">
<path fill-rule="evenodd" clip-rule="evenodd" d="M89.9217 43.0158C94.7225 46.6458 100.301 49.5098 106.053 50.9857C123.78 55.5343 135.378 44.3598 138.638 31.6554C141.898 18.9509 134.22 5.69755 113.233 2.38381C110.452 1.94479 107.804 1.63806 105.293 1.46583C84.5297 -1.09596 60.4029 0.0719467 50.315 2.13146C49.7583 2.21005 49.1961 2.29418 48.6284 2.38381C27.6411 5.69755 19.9631 18.9509 23.223 31.6554C26.4828 44.3598 38.0812 55.5343 55.8083 50.9857C61.3223 49.5708 66.6769 46.8803 71.3399 43.4623C71.517 43.4182 71.6745 43.349 71.8107 43.2536C76.8676 39.7138 85.1655 40.3411 89.9217 43.0158Z" fill="url(#paint5_linear_414_3694)"/>
<g filter="url(#filter1_f_414_3694)">
<circle cx="40.7277" cy="9.38881" r="7.17983" fill="white"/>
</g>
<g filter="url(#filter2_f_414_3694)">
<circle cx="40.7281" cy="9.38871" r="3.46439" fill="white"/>
</g>
<ellipse cx="1.1548" cy="12.7028" rx="1.1548" ry="12.7028" transform="matrix(-1 0 0 1 41.8828 -3.31396)" fill="url(#paint6_linear_414_3694)"/>
<ellipse cx="1.1548" cy="12.7028" rx="1.1548" ry="12.7028" transform="matrix(1.19249e-08 -1 -1 -1.19249e-08 53.4307 10.5435)" fill="url(#paint7_linear_414_3694)"/>
<ellipse cx="1.1548" cy="8.08358" rx="1.1548" ry="8.08358" transform="matrix(-0.707107 0.707107 0.707107 0.707107 35.8291 2.85645)" fill="url(#paint8_linear_414_3694)"/>
<ellipse cx="1.1548" cy="8.08358" rx="1.1548" ry="8.08358" transform="matrix(-0.707107 -0.707107 -0.707107 0.707107 47.2612 4.48926)" fill="url(#paint9_linear_414_3694)"/>
<g filter="url(#filter3_f_414_3694)">
<circle cx="77.731" cy="40.8702" r="4.99466" fill="white"/>
</g>
<g filter="url(#filter4_f_414_3694)">
<circle cx="77.7313" cy="40.87" r="2.41001" fill="white"/>
</g>
<ellipse cx="0.803338" cy="8.83671" rx="0.803338" ry="8.83671" transform="matrix(-1 0 0 1 78.5342 32.0332)" fill="url(#paint10_linear_414_3694)"/>
<ellipse cx="0.803338" cy="8.83671" rx="0.803338" ry="8.83671" transform="matrix(1.19249e-08 -1 -1 -1.19249e-08 86.5679 41.6733)" fill="url(#paint11_linear_414_3694)"/>
<ellipse cx="0.803338" cy="5.62336" rx="0.803338" ry="5.62336" transform="matrix(-0.707107 0.707107 0.707107 0.707107 74.3228 36.3257)" fill="url(#paint12_linear_414_3694)"/>
<ellipse cx="0.803338" cy="5.62336" rx="0.803338" ry="5.62336" transform="matrix(-0.707107 -0.707107 -0.707107 0.707107 82.2759 37.4614)" fill="url(#paint13_linear_414_3694)"/>
<g filter="url(#filter5_f_414_3694)">
<circle cx="96.509" cy="7.73215" r="4.37033" fill="white"/>
</g>
<g filter="url(#filter6_f_414_3694)">
<circle cx="96.5092" cy="7.7323" r="2.10876" fill="white"/>
</g>
<ellipse cx="0.70292" cy="7.73212" rx="0.70292" ry="7.73212" transform="matrix(-1 0 0 1 97.2119 0)" fill="url(#paint14_linear_414_3694)"/>
<ellipse cx="0.70292" cy="7.73212" rx="0.70292" ry="7.73212" transform="matrix(1.19249e-08 -1 -1 -1.19249e-08 104.241 8.43506)" fill="url(#paint15_linear_414_3694)"/>
<ellipse cx="0.70292" cy="4.92044" rx="0.70292" ry="4.92044" transform="matrix(-0.707107 0.707107 0.707107 0.707107 93.5269 3.75586)" fill="url(#paint16_linear_414_3694)"/>
<ellipse cx="0.70292" cy="4.92044" rx="0.70292" ry="4.92044" transform="matrix(-0.707107 -0.707107 -0.707107 0.707107 100.486 4.75)" fill="url(#paint17_linear_414_3694)"/>
<g filter="url(#filter7_f_414_3694)">
<circle cx="120.81" cy="25.4059" r="6.24333" fill="white"/>
</g>
<g filter="url(#filter8_f_414_3694)">
<circle cx="120.81" cy="25.4056" r="3.01252" fill="white"/>
</g>
<ellipse cx="1.00417" cy="11.0459" rx="1.00417" ry="11.0459" transform="matrix(-1 0 0 1 121.814 14.3599)" fill="url(#paint18_linear_414_3694)"/>
<ellipse cx="1.00417" cy="11.0459" rx="1.00417" ry="11.0459" transform="matrix(1.19249e-08 -1 -1 -1.19249e-08 131.856 26.4097)" fill="url(#paint19_linear_414_3694)"/>
<ellipse cx="1.00417" cy="7.0292" rx="1.00417" ry="7.0292" transform="matrix(-0.707107 0.707107 0.707107 0.707107 116.55 19.7251)" fill="url(#paint20_linear_414_3694)"/>
<ellipse cx="1.00417" cy="7.0292" rx="1.00417" ry="7.0292" transform="matrix(-0.707107 -0.707107 -0.707107 0.707107 126.492 21.1455)" fill="url(#paint21_linear_414_3694)"/>
<g filter="url(#filter9_f_414_3694)">
<circle cx="41.8321" cy="42.5264" r="4.05816" fill="white"/>
</g>
<g filter="url(#filter10_f_414_3694)">
<circle cx="41.8317" cy="42.5265" r="1.95814" fill="white"/>
</g>
<ellipse cx="0.652712" cy="7.17983" rx="0.652712" ry="7.17983" transform="matrix(-1 0 0 1 42.4844 35.3467)" fill="url(#paint22_linear_414_3694)"/>
<ellipse cx="0.652712" cy="7.17983" rx="0.652712" ry="7.17983" transform="matrix(1.19249e-08 -1 -1 -1.19249e-08 49.0117 43.1792)" fill="url(#paint23_linear_414_3694)"/>
<ellipse cx="0.652712" cy="4.56898" rx="0.652712" ry="4.56898" transform="matrix(-0.707107 0.707107 0.707107 0.707107 39.063 38.834)" fill="url(#paint24_linear_414_3694)"/>
<ellipse cx="0.652712" cy="4.56898" rx="0.652712" ry="4.56898" transform="matrix(-0.707107 -0.707107 -0.707107 0.707107 45.5249 39.7573)" fill="url(#paint25_linear_414_3694)"/>
</g>
</g>
<g filter="url(#filter11_d_414_3694)">
<rect x="125.776" y="41.3936" width="13.3663" height="20.1713" rx="4" transform="rotate(8.38802 125.776 41.3936)" fill="url(#paint26_linear_414_3694)"/>
<rect width="13.3663" height="20.1713" rx="4" transform="matrix(-0.989303 0.145876 0.145876 0.989303 35.3643 41.3936)" fill="url(#paint27_linear_414_3694)"/>
<rect x="120.756" y="36.938" width="13.3663" height="28.5148" rx="4" transform="rotate(8.38802 120.756 36.938)" fill="url(#paint28_linear_414_3694)"/>
<rect width="13.3663" height="28.5148" rx="4" transform="matrix(-0.989303 0.145876 0.145876 0.989303 40.3853 36.938)" fill="url(#paint29_linear_414_3694)"/>
<mask id="mask1_414_3694" style="mask-type:alpha" maskUnits="userSpaceOnUse" x="33" y="28" width="95" height="42">
<path fill-rule="evenodd" clip-rule="evenodd" d="M88.1154 62.7297C91.988 65.6576 96.4878 67.9677 101.127 69.1581C115.428 72.8276 124.785 63.813 127.414 53.5641C130.044 43.3153 123.85 32.6236 106.92 29.9504C104.676 29.5962 102.539 29.3487 100.513 29.2098C83.7631 27.1432 64.2997 28.0854 56.1621 29.7469C55.7132 29.8103 55.2599 29.8781 54.8021 29.9504C37.8714 32.6236 31.6774 43.3153 34.3072 53.5641C36.937 63.813 46.2935 72.8276 60.5943 69.1581C65.0425 68.0168 69.3622 65.8463 73.1239 63.0888C73.2666 63.0532 73.3935 62.9975 73.5034 62.9206C77.5834 60.0646 84.2788 60.5712 88.1154 62.7297Z" fill="url(#paint30_linear_414_3694)"/>
</mask>
<g mask="url(#mask1_414_3694)">
<path fill-rule="evenodd" clip-rule="evenodd" d="M88.1154 62.7297C91.988 65.6576 96.4878 67.9677 101.127 69.1581C115.428 72.8276 124.785 63.813 127.414 53.5641C130.044 43.3153 123.85 32.6236 106.92 29.9504C104.676 29.5962 102.539 29.3487 100.513 29.2098C83.7631 27.1432 64.2997 28.0854 56.1621 29.7469C55.7132 29.8103 55.2599 29.8781 54.8021 29.9504C37.8714 32.6236 31.6774 43.3153 34.3072 53.5641C36.937 63.813 46.2935 72.8276 60.5943 69.1581C65.0425 68.0168 69.3622 65.8463 73.1239 63.0888C73.2666 63.0532 73.3935 62.9975 73.5034 62.9206C77.5834 60.0646 84.2788 60.5712 88.1154 62.7297Z" fill="url(#paint31_linear_414_3694)"/>
<g filter="url(#filter12_f_414_3694)">
<circle cx="48.4283" cy="35.6016" r="5.79206" fill="white"/>
</g>
<g filter="url(#filter13_f_414_3694)">
<circle cx="48.4286" cy="35.6014" r="2.79477" fill="white"/>
</g>
<ellipse cx="0.93159" cy="10.2475" rx="0.93159" ry="10.2475" transform="matrix(-1 0 0 1 49.3604 25.354)" fill="url(#paint32_linear_414_3694)"/>
<ellipse cx="0.93159" cy="10.2475" rx="0.93159" ry="10.2475" transform="matrix(1.19249e-08 -1 -1 -1.19249e-08 58.6763 36.5332)" fill="url(#paint33_linear_414_3694)"/>
<ellipse cx="0.93159" cy="6.52113" rx="0.93159" ry="6.52113" transform="matrix(-0.707107 0.707107 0.707107 0.707107 44.4766 30.3315)" fill="url(#paint34_linear_414_3694)"/>
<ellipse cx="0.93159" cy="6.52113" rx="0.93159" ry="6.52113" transform="matrix(-0.707107 -0.707107 -0.707107 0.707107 53.6992 31.6489)" fill="url(#paint35_linear_414_3694)"/>
<g filter="url(#filter14_f_414_3694)">
<circle cx="78.2793" cy="60.9975" r="4.02926" fill="white"/>
</g>
<g filter="url(#filter15_f_414_3694)">
<circle cx="78.2796" cy="60.9974" r="1.94419" fill="white"/>
</g>
<ellipse cx="0.648063" cy="7.12869" rx="0.648063" ry="7.12869" transform="matrix(-1 0 0 1 78.9272 53.8687)" fill="url(#paint36_linear_414_3694)"/>
<ellipse cx="0.648063" cy="7.12869" rx="0.648063" ry="7.12869" transform="matrix(1.19249e-08 -1 -1 -1.19249e-08 85.4082 61.6455)" fill="url(#paint37_linear_414_3694)"/>
<ellipse cx="0.648063" cy="4.53644" rx="0.648063" ry="4.53644" transform="matrix(-0.707107 0.707107 0.707107 0.707107 75.5298 57.3315)" fill="url(#paint38_linear_414_3694)"/>
<ellipse cx="0.648063" cy="4.53644" rx="0.648063" ry="4.53644" transform="matrix(-0.707107 -0.707107 -0.707107 0.707107 81.9458 58.248)" fill="url(#paint39_linear_414_3694)"/>
<g filter="url(#filter16_f_414_3694)">
<circle cx="93.4279" cy="34.2649" r="3.5256" fill="white"/>
</g>
<g filter="url(#filter17_f_414_3694)">
<circle cx="93.4277" cy="34.2651" r="1.70116" fill="white"/>
</g>
<ellipse cx="0.567055" cy="6.2376" rx="0.567055" ry="6.2376" transform="matrix(-1 0 0 1 93.9946 28.0273)" fill="url(#paint40_linear_414_3694)"/>
<ellipse cx="0.567055" cy="6.2376" rx="0.567055" ry="6.2376" transform="matrix(1.19249e-08 -1 -1 -1.19249e-08 99.6655 34.832)" fill="url(#paint41_linear_414_3694)"/>
<ellipse cx="0.567055" cy="3.96938" rx="0.567055" ry="3.96938" transform="matrix(-0.707107 0.707107 0.707107 0.707107 91.022 31.0571)" fill="url(#paint42_linear_414_3694)"/>
<ellipse cx="0.567055" cy="3.96938" rx="0.567055" ry="3.96938" transform="matrix(-0.707107 -0.707107 -0.707107 0.707107 96.6362 31.8594)" fill="url(#paint43_linear_414_3694)"/>
<g filter="url(#filter18_f_414_3694)">
<circle cx="113.032" cy="48.5219" r="5.03657" fill="white"/>
</g>
<g filter="url(#filter19_f_414_3694)">
<circle cx="113.032" cy="48.522" r="2.43024" fill="white"/>
</g>
<ellipse cx="0.810078" cy="8.91086" rx="0.810078" ry="8.91086" transform="matrix(-1 0 0 1 113.842 39.6113)" fill="url(#paint44_linear_414_3694)"/>
<ellipse cx="0.810078" cy="8.91086" rx="0.810078" ry="8.91086" transform="matrix(1.19249e-08 -1 -1 -1.19249e-08 121.943 49.332)" fill="url(#paint45_linear_414_3694)"/>
<ellipse cx="0.810078" cy="5.67055" rx="0.810078" ry="5.67055" transform="matrix(-0.707107 0.707107 0.707107 0.707107 109.595 43.9395)" fill="url(#paint46_linear_414_3694)"/>
<ellipse cx="0.810078" cy="5.67055" rx="0.810078" ry="5.67055" transform="matrix(-0.707107 -0.707107 -0.707107 0.707107 117.615 45.0854)" fill="url(#paint47_linear_414_3694)"/>
<g filter="url(#filter20_f_414_3694)">
<circle cx="49.3192" cy="62.3338" r="3.27377" fill="white"/>
</g>
<g filter="url(#filter21_f_414_3694)">
<circle cx="49.3189" cy="62.334" r="1.57965" fill="white"/>
</g>
<ellipse cx="0.526551" cy="5.79206" rx="0.526551" ry="5.79206" transform="matrix(-1 0 0 1 49.8452 56.542)" fill="url(#paint48_linear_414_3694)"/>
<ellipse cx="0.526551" cy="5.79206" rx="0.526551" ry="5.79206" transform="matrix(1.19249e-08 -1 -1 -1.19249e-08 55.1108 62.8604)" fill="url(#paint49_linear_414_3694)"/>
<ellipse cx="0.526551" cy="3.68586" rx="0.526551" ry="3.68586" transform="matrix(-0.707107 0.707107 0.707107 0.707107 47.0854 59.3555)" fill="url(#paint50_linear_414_3694)"/>
<ellipse cx="0.526551" cy="3.68586" rx="0.526551" ry="3.68586" transform="matrix(-0.707107 -0.707107 -0.707107 0.707107 52.2983 60.1001)" fill="url(#paint51_linear_414_3694)"/>
</g>
</g>
<defs>
<filter id="filter0_d_414_3694" x="0.681641" y="0" width="159.778" height="68.0205" filterUnits="userSpaceOnUse" color-interpolation-filters="sRGB">
<feFlood flood-opacity="0" result="BackgroundImageFix"/>
<feColorMatrix in="SourceAlpha" type="matrix" values="0 0 0 0 0 0 0 0 0 0 0 0 0 0 0 0 0 0 127 0" result="hardAlpha"/>
<feOffset dy="8"/>
<feGaussianBlur stdDeviation="4"/>
<feComposite in2="hardAlpha" operator="out"/>
<feColorMatrix type="matrix" values="0 0 0 0 0 0 0 0 0 0 0 0 0 0 0 0 0 0 0.25 0"/>
<feBlend mode="normal" in2="BackgroundImageFix" result="effect1_dropShadow_414_3694"/>
<feBlend mode="normal" in="SourceGraphic" in2="effect1_dropShadow_414_3694" result="shape"/>
</filter>
<filter id="filter1_f_414_3694" x="25.5479" y="-5.79102" width="30.3599" height="30.3599" filterUnits="userSpaceOnUse" color-interpolation-filters="sRGB">
<feFlood flood-opacity="0" result="BackgroundImageFix"/>
<feBlend mode="normal" in="SourceGraphic" in2="BackgroundImageFix" result="shape"/>
<feGaussianBlur stdDeviation="4" result="effect1_foregroundBlur_414_3694"/>
</filter>
<filter id="filter2_f_414_3694" x="35.2637" y="3.92432" width="10.9287" height="10.9287" filterUnits="userSpaceOnUse" color-interpolation-filters="sRGB">
<feFlood flood-opacity="0" result="BackgroundImageFix"/>
<feBlend mode="normal" in="SourceGraphic" in2="BackgroundImageFix" result="shape"/>
<feGaussianBlur stdDeviation="1" result="effect1_foregroundBlur_414_3694"/>
</filter>
<filter id="filter3_f_414_3694" x="64.7363" y="27.8755" width="25.9893" height="25.9893" filterUnits="userSpaceOnUse" color-interpolation-filters="sRGB">
<feFlood flood-opacity="0" result="BackgroundImageFix"/>
<feBlend mode="normal" in="SourceGraphic" in2="BackgroundImageFix" result="shape"/>
<feGaussianBlur stdDeviation="4" result="effect1_foregroundBlur_414_3694"/>
</filter>
<filter id="filter4_f_414_3694" x="73.3213" y="36.46" width="8.81982" height="8.81982" filterUnits="userSpaceOnUse" color-interpolation-filters="sRGB">
<feFlood flood-opacity="0" result="BackgroundImageFix"/>
<feBlend mode="normal" in="SourceGraphic" in2="BackgroundImageFix" result="shape"/>
<feGaussianBlur stdDeviation="1" result="effect1_foregroundBlur_414_3694"/>
</filter>
<filter id="filter5_f_414_3694" x="84.1387" y="-4.63818" width="24.7407" height="24.7407" filterUnits="userSpaceOnUse" color-interpolation-filters="sRGB">
<feFlood flood-opacity="0" result="BackgroundImageFix"/>
<feBlend mode="normal" in="SourceGraphic" in2="BackgroundImageFix" result="shape"/>
<feGaussianBlur stdDeviation="4" result="effect1_foregroundBlur_414_3694"/>
</filter>
<filter id="filter6_f_414_3694" x="92.4004" y="3.62354" width="8.21729" height="8.21729" filterUnits="userSpaceOnUse" color-interpolation-filters="sRGB">
<feFlood flood-opacity="0" result="BackgroundImageFix"/>
<feBlend mode="normal" in="SourceGraphic" in2="BackgroundImageFix" result="shape"/>
<feGaussianBlur stdDeviation="1" result="effect1_foregroundBlur_414_3694"/>
</filter>
<filter id="filter7_f_414_3694" x="106.566" y="11.1626" width="28.4868" height="28.4868" filterUnits="userSpaceOnUse" color-interpolation-filters="sRGB">
<feFlood flood-opacity="0" result="BackgroundImageFix"/>
<feBlend mode="normal" in="SourceGraphic" in2="BackgroundImageFix" result="shape"/>
<feGaussianBlur stdDeviation="4" result="effect1_foregroundBlur_414_3694"/>
</filter>
<filter id="filter8_f_414_3694" x="115.797" y="20.3931" width="10.0249" height="10.0249" filterUnits="userSpaceOnUse" color-interpolation-filters="sRGB">
<feFlood flood-opacity="0" result="BackgroundImageFix"/>
<feBlend mode="normal" in="SourceGraphic" in2="BackgroundImageFix" result="shape"/>
<feGaussianBlur stdDeviation="1" result="effect1_foregroundBlur_414_3694"/>
</filter>
<filter id="filter9_f_414_3694" x="29.7739" y="30.4683" width="24.1162" height="24.1162" filterUnits="userSpaceOnUse" color-interpolation-filters="sRGB">
<feFlood flood-opacity="0" result="BackgroundImageFix"/>
<feBlend mode="normal" in="SourceGraphic" in2="BackgroundImageFix" result="shape"/>
<feGaussianBlur stdDeviation="4" result="effect1_foregroundBlur_414_3694"/>
</filter>
<filter id="filter10_f_414_3694" x="37.8735" y="38.5684" width="7.9165" height="7.9165" filterUnits="userSpaceOnUse" color-interpolation-filters="sRGB">
<feFlood flood-opacity="0" result="BackgroundImageFix"/>
<feBlend mode="normal" in="SourceGraphic" in2="BackgroundImageFix" result="shape"/>
<feGaussianBlur stdDeviation="1" result="effect1_foregroundBlur_414_3694"/>
</filter>
<filter id="filter11_d_414_3694" x="14.6812" y="28.0273" width="131.778" height="57.9653" filterUnits="userSpaceOnUse" color-interpolation-filters="sRGB">
<feFlood flood-opacity="0" result="BackgroundImageFix"/>
<feColorMatrix in="SourceAlpha" type="matrix" values="0 0 0 0 0 0 0 0 0 0 0 0 0 0 0 0 0 0 127 0" result="hardAlpha"/>
<feOffset dy="8"/>
<feGaussianBlur stdDeviation="4"/>
<feComposite in2="hardAlpha" operator="out"/>
<feColorMatrix type="matrix" values="0 0 0 0 0 0 0 0 0 0 0 0 0 0 0 0 0 0 0.25 0"/>
<feBlend mode="normal" in2="BackgroundImageFix" result="effect1_dropShadow_414_3694"/>
<feBlend mode="normal" in="SourceGraphic" in2="effect1_dropShadow_414_3694" result="shape"/>
</filter>
<filter id="filter12_f_414_3694" x="34.6362" y="21.8096" width="27.584" height="27.584" filterUnits="userSpaceOnUse" color-interpolation-filters="sRGB">
<feFlood flood-opacity="0" result="BackgroundImageFix"/>
<feBlend mode="normal" in="SourceGraphic" in2="BackgroundImageFix" result="shape"/>
<feGaussianBlur stdDeviation="4" result="effect1_foregroundBlur_414_3694"/>
</filter>
<filter id="filter13_f_414_3694" x="43.6338" y="30.8066" width="9.58936" height="9.58936" filterUnits="userSpaceOnUse" color-interpolation-filters="sRGB">
<feFlood flood-opacity="0" result="BackgroundImageFix"/>
<feBlend mode="normal" in="SourceGraphic" in2="BackgroundImageFix" result="shape"/>
<feGaussianBlur stdDeviation="1" result="effect1_foregroundBlur_414_3694"/>
</filter>
<filter id="filter14_f_414_3694" x="66.25" y="48.9683" width="24.0586" height="24.0586" filterUnits="userSpaceOnUse" color-interpolation-filters="sRGB">
<feFlood flood-opacity="0" result="BackgroundImageFix"/>
<feBlend mode="normal" in="SourceGraphic" in2="BackgroundImageFix" result="shape"/>
<feGaussianBlur stdDeviation="4" result="effect1_foregroundBlur_414_3694"/>
</filter>
<filter id="filter15_f_414_3694" x="74.3354" y="57.0532" width="7.88818" height="7.88818" filterUnits="userSpaceOnUse" color-interpolation-filters="sRGB">
<feFlood flood-opacity="0" result="BackgroundImageFix"/>
<feBlend mode="normal" in="SourceGraphic" in2="BackgroundImageFix" result="shape"/>
<feGaussianBlur stdDeviation="1" result="effect1_foregroundBlur_414_3694"/>
</filter>
<filter id="filter16_f_414_3694" x="81.9023" y="22.7393" width="23.0513" height="23.0513" filterUnits="userSpaceOnUse" color-interpolation-filters="sRGB">
<feFlood flood-opacity="0" result="BackgroundImageFix"/>
<feBlend mode="normal" in="SourceGraphic" in2="BackgroundImageFix" result="shape"/>
<feGaussianBlur stdDeviation="4" result="effect1_foregroundBlur_414_3694"/>
</filter>
<filter id="filter17_f_414_3694" x="89.7266" y="30.564" width="7.40234" height="7.40234" filterUnits="userSpaceOnUse" color-interpolation-filters="sRGB">
<feFlood flood-opacity="0" result="BackgroundImageFix"/>
<feBlend mode="normal" in="SourceGraphic" in2="BackgroundImageFix" result="shape"/>
<feGaussianBlur stdDeviation="1" result="effect1_foregroundBlur_414_3694"/>
</filter>
<filter id="filter18_f_414_3694" x="99.9951" y="35.4854" width="26.0732" height="26.0732" filterUnits="userSpaceOnUse" color-interpolation-filters="sRGB">
<feFlood flood-opacity="0" result="BackgroundImageFix"/>
<feBlend mode="normal" in="SourceGraphic" in2="BackgroundImageFix" result="shape"/>
<feGaussianBlur stdDeviation="4" result="effect1_foregroundBlur_414_3694"/>
</filter>
<filter id="filter19_f_414_3694" x="108.602" y="44.0918" width="8.86035" height="8.86035" filterUnits="userSpaceOnUse" color-interpolation-filters="sRGB">
<feFlood flood-opacity="0" result="BackgroundImageFix"/>
<feBlend mode="normal" in="SourceGraphic" in2="BackgroundImageFix" result="shape"/>
<feGaussianBlur stdDeviation="1" result="effect1_foregroundBlur_414_3694"/>
</filter>
<filter id="filter20_f_414_3694" x="38.0454" y="51.0601" width="22.5474" height="22.5474" filterUnits="userSpaceOnUse" color-interpolation-filters="sRGB">
<feFlood flood-opacity="0" result="BackgroundImageFix"/>
<feBlend mode="normal" in="SourceGraphic" in2="BackgroundImageFix" result="shape"/>
<feGaussianBlur stdDeviation="4" result="effect1_foregroundBlur_414_3694"/>
</filter>
<filter id="filter21_f_414_3694" x="45.7393" y="58.7544" width="7.15918" height="7.15918" filterUnits="userSpaceOnUse" color-interpolation-filters="sRGB">
<feFlood flood-opacity="0" result="BackgroundImageFix"/>
<feBlend mode="normal" in="SourceGraphic" in2="BackgroundImageFix" result="shape"/>
<feGaussianBlur stdDeviation="1" result="effect1_foregroundBlur_414_3694"/>
</filter>
<linearGradient id="paint0_linear_414_3694" x1="103.872" y1="33.5365" x2="180.061" y2="16.6787" gradientUnits="userSpaceOnUse">
<stop offset="0.448331" stop-color="#784BA6"/>
<stop offset="1" stop-color="#D97EB9"/>
</linearGradient>
<linearGradient id="paint1_linear_414_3694" x1="-32.7355" y1="16.9677" x2="43.4529" y2="0.109902" gradientUnits="userSpaceOnUse">
<stop offset="0.448331" stop-color="#784BA6"/>
<stop offset="1" stop-color="#D97EB9"/>
</linearGradient>
<linearGradient id="paint2_linear_414_3694" x1="97.6488" y1="35.0319" x2="175.656" y2="22.822" gradientUnits="userSpaceOnUse">
<stop offset="0.448331" stop-color="#784BA6"/>
<stop offset="1" stop-color="#D97EB9"/>
</linearGradient>
<linearGradient id="paint3_linear_414_3694" x1="-32.7355" y1="23.986" x2="45.2718" y2="11.7761" gradientUnits="userSpaceOnUse">
<stop offset="0.448331" stop-color="#784BA6"/>
<stop offset="1" stop-color="#D97EB9"/>
</linearGradient>
<linearGradient id="paint4_linear_414_3694" x1="-200.75" y1="73.1746" x2="-161.756" y2="-116.684" gradientUnits="userSpaceOnUse">
<stop offset="0.183536" stop-color="#D97EB9"/>
<stop offset="0.534" stop-color="#000033"/>
<stop offset="0.768961" stop-color="#784BA6"/>
</linearGradient>
<linearGradient id="paint5_linear_414_3694" x1="18" y1="46.5" x2="32.6739" y2="-59.975" gradientUnits="userSpaceOnUse">
<stop stop-color="#D97EB9"/>
<stop offset="0.583265" stop-color="#784BA6"/>
</linearGradient>
<linearGradient id="paint6_linear_414_3694" x1="1.1548" y1="0" x2="1.1548" y2="25.4056" gradientUnits="userSpaceOnUse">
<stop stop-color="white" stop-opacity="0"/>
<stop offset="0.49" stop-color="white" stop-opacity="0.5"/>
<stop offset="1" stop-color="white" stop-opacity="0"/>
</linearGradient>
<linearGradient id="paint7_linear_414_3694" x1="1.1548" y1="0" x2="1.1548" y2="25.4056" gradientUnits="userSpaceOnUse">
<stop stop-color="white" stop-opacity="0"/>
<stop offset="0.49" stop-color="white" stop-opacity="0.5"/>
<stop offset="1" stop-color="white" stop-opacity="0"/>
</linearGradient>
<linearGradient id="paint8_linear_414_3694" x1="1.1548" y1="0" x2="1.1548" y2="16.1672" gradientUnits="userSpaceOnUse">
<stop stop-color="white" stop-opacity="0"/>
<stop offset="0.49" stop-color="white" stop-opacity="0.5"/>
<stop offset="1" stop-color="white" stop-opacity="0"/>
</linearGradient>
<linearGradient id="paint9_linear_414_3694" x1="1.1548" y1="0" x2="1.1548" y2="16.1672" gradientUnits="userSpaceOnUse">
<stop stop-color="white" stop-opacity="0"/>
<stop offset="0.49" stop-color="white" stop-opacity="0.5"/>
<stop offset="1" stop-color="white" stop-opacity="0"/>
</linearGradient>
<linearGradient id="paint10_linear_414_3694" x1="0.803338" y1="0" x2="0.803338" y2="17.6734" gradientUnits="userSpaceOnUse">
<stop stop-color="white" stop-opacity="0"/>
<stop offset="0.49" stop-color="white" stop-opacity="0.5"/>
<stop offset="1" stop-color="white" stop-opacity="0"/>
</linearGradient>
<linearGradient id="paint11_linear_414_3694" x1="0.803338" y1="0" x2="0.803338" y2="17.6734" gradientUnits="userSpaceOnUse">
<stop stop-color="white" stop-opacity="0"/>
<stop offset="0.49" stop-color="white" stop-opacity="0.5"/>
<stop offset="1" stop-color="white" stop-opacity="0"/>
</linearGradient>
<linearGradient id="paint12_linear_414_3694" x1="0.803338" y1="0" x2="0.803338" y2="11.2467" gradientUnits="userSpaceOnUse">
<stop stop-color="white" stop-opacity="0"/>
<stop offset="0.49" stop-color="white" stop-opacity="0.5"/>
<stop offset="1" stop-color="white" stop-opacity="0"/>
</linearGradient>
<linearGradient id="paint13_linear_414_3694" x1="0.803338" y1="0" x2="0.803338" y2="11.2467" gradientUnits="userSpaceOnUse">
<stop stop-color="white" stop-opacity="0"/>
<stop offset="0.49" stop-color="white" stop-opacity="0.5"/>
<stop offset="1" stop-color="white" stop-opacity="0"/>
</linearGradient>
<linearGradient id="paint14_linear_414_3694" x1="0.70292" y1="0" x2="0.70292" y2="15.4642" gradientUnits="userSpaceOnUse">
<stop stop-color="white" stop-opacity="0"/>
<stop offset="0.49" stop-color="white" stop-opacity="0.5"/>
<stop offset="1" stop-color="white" stop-opacity="0"/>
</linearGradient>
<linearGradient id="paint15_linear_414_3694" x1="0.70292" y1="0" x2="0.70292" y2="15.4642" gradientUnits="userSpaceOnUse">
<stop stop-color="white" stop-opacity="0"/>
<stop offset="0.49" stop-color="white" stop-opacity="0.5"/>
<stop offset="1" stop-color="white" stop-opacity="0"/>
</linearGradient>
<linearGradient id="paint16_linear_414_3694" x1="0.70292" y1="0" x2="0.70292" y2="9.84089" gradientUnits="userSpaceOnUse">
<stop stop-color="white" stop-opacity="0"/>
<stop offset="0.49" stop-color="white" stop-opacity="0.5"/>
<stop offset="1" stop-color="white" stop-opacity="0"/>
</linearGradient>
<linearGradient id="paint17_linear_414_3694" x1="0.70292" y1="0" x2="0.70292" y2="9.84089" gradientUnits="userSpaceOnUse">
<stop stop-color="white" stop-opacity="0"/>
<stop offset="0.49" stop-color="white" stop-opacity="0.5"/>
<stop offset="1" stop-color="white" stop-opacity="0"/>
</linearGradient>
<linearGradient id="paint18_linear_414_3694" x1="1.00417" y1="0" x2="1.00417" y2="22.0918" gradientUnits="userSpaceOnUse">
<stop stop-color="white" stop-opacity="0"/>
<stop offset="0.49" stop-color="white" stop-opacity="0.5"/>
<stop offset="1" stop-color="white" stop-opacity="0"/>
</linearGradient>
<linearGradient id="paint19_linear_414_3694" x1="1.00417" y1="0" x2="1.00417" y2="22.0918" gradientUnits="userSpaceOnUse">
<stop stop-color="white" stop-opacity="0"/>
<stop offset="0.49" stop-color="white" stop-opacity="0.5"/>
<stop offset="1" stop-color="white" stop-opacity="0"/>
</linearGradient>
<linearGradient id="paint20_linear_414_3694" x1="1.00417" y1="0" x2="1.00417" y2="14.0584" gradientUnits="userSpaceOnUse">
<stop stop-color="white" stop-opacity="0"/>
<stop offset="0.49" stop-color="white" stop-opacity="0.5"/>
<stop offset="1" stop-color="white" stop-opacity="0"/>
</linearGradient>
<linearGradient id="paint21_linear_414_3694" x1="1.00417" y1="0" x2="1.00417" y2="14.0584" gradientUnits="userSpaceOnUse">
<stop stop-color="white" stop-opacity="0"/>
<stop offset="0.49" stop-color="white" stop-opacity="0.5"/>
<stop offset="1" stop-color="white" stop-opacity="0"/>
</linearGradient>
<linearGradient id="paint22_linear_414_3694" x1="0.652712" y1="0" x2="0.652712" y2="14.3597" gradientUnits="userSpaceOnUse">
<stop stop-color="white" stop-opacity="0"/>
<stop offset="0.49" stop-color="white" stop-opacity="0.5"/>
<stop offset="1" stop-color="white" stop-opacity="0"/>
</linearGradient>
<linearGradient id="paint23_linear_414_3694" x1="0.652712" y1="0" x2="0.652712" y2="14.3597" gradientUnits="userSpaceOnUse">
<stop stop-color="white" stop-opacity="0"/>
<stop offset="0.49" stop-color="white" stop-opacity="0.5"/>
<stop offset="1" stop-color="white" stop-opacity="0"/>
</linearGradient>
<linearGradient id="paint24_linear_414_3694" x1="0.652712" y1="0" x2="0.652712" y2="9.13797" gradientUnits="userSpaceOnUse">
<stop stop-color="white" stop-opacity="0"/>
<stop offset="0.49" stop-color="white" stop-opacity="0.5"/>
<stop offset="1" stop-color="white" stop-opacity="0"/>
</linearGradient>
<linearGradient id="paint25_linear_414_3694" x1="0.652712" y1="0" x2="0.652712" y2="9.13797" gradientUnits="userSpaceOnUse">
<stop stop-color="white" stop-opacity="0"/>
<stop offset="0.49" stop-color="white" stop-opacity="0.5"/>
<stop offset="1" stop-color="white" stop-opacity="0"/>
</linearGradient>
<linearGradient id="paint26_linear_414_3694" x1="100.241" y1="69.7676" x2="136.219" y2="18.0938" gradientUnits="userSpaceOnUse">
<stop offset="0.183536" stop-color="#D97EB9"/>
<stop offset="0.534" stop-color="#000033"/>
<stop offset="0.768961" stop-color="#784BA6"/>
</linearGradient>
<linearGradient id="paint27_linear_414_3694" x1="-25.5358" y1="28.374" x2="10.4429" y2="-23.2997" gradientUnits="userSpaceOnUse">
<stop offset="0.183536" stop-color="#D97EB9"/>
<stop offset="0.534" stop-color="#000033"/>
<stop offset="0.768961" stop-color="#784BA6"/>
</linearGradient>
<linearGradient id="paint28_linear_414_3694" x1="95.22" y1="77.0483" x2="168.668" y2="11.4409" gradientUnits="userSpaceOnUse">
<stop stop-color="#D97EB9"/>
<stop offset="0.534" stop-color="#000033"/>
<stop offset="1" stop-color="#784BA6"/>
</linearGradient>
<linearGradient id="paint29_linear_414_3694" x1="-25.5358" y1="40.1104" x2="47.9124" y2="-25.4971" gradientUnits="userSpaceOnUse">
<stop stop-color="#D97EB9"/>
<stop offset="0.534" stop-color="#000033"/>
<stop offset="1" stop-color="#784BA6"/>
</linearGradient>
<linearGradient id="paint30_linear_414_3694" x1="-146.375" y1="87.0583" x2="-114.917" y2="-66.103" gradientUnits="userSpaceOnUse">
<stop offset="0.183536" stop-color="#D97EB9"/>
<stop offset="0.534" stop-color="#000033"/>
<stop offset="0.768961" stop-color="#784BA6"/>
</linearGradient>
<linearGradient id="paint31_linear_414_3694" x1="-146.375" y1="87.0583" x2="-114.917" y2="-66.103" gradientUnits="userSpaceOnUse">
<stop offset="0.183536" stop-color="#D97EB9"/>
<stop offset="0.534" stop-color="#000033"/>
<stop offset="0.768961" stop-color="#784BA6"/>
</linearGradient>
<linearGradient id="paint32_linear_414_3694" x1="0.93159" y1="0" x2="0.93159" y2="20.495" gradientUnits="userSpaceOnUse">
<stop stop-color="white" stop-opacity="0"/>
<stop offset="0.49" stop-color="white" stop-opacity="0.5"/>
<stop offset="1" stop-color="white" stop-opacity="0"/>
</linearGradient>
<linearGradient id="paint33_linear_414_3694" x1="0.93159" y1="0" x2="0.93159" y2="20.495" gradientUnits="userSpaceOnUse">
<stop stop-color="white" stop-opacity="0"/>
<stop offset="0.49" stop-color="white" stop-opacity="0.5"/>
<stop offset="1" stop-color="white" stop-opacity="0"/>
</linearGradient>
<linearGradient id="paint34_linear_414_3694" x1="0.93159" y1="0" x2="0.93159" y2="13.0423" gradientUnits="userSpaceOnUse">
<stop stop-color="white" stop-opacity="0"/>
<stop offset="0.49" stop-color="white" stop-opacity="0.5"/>
<stop offset="1" stop-color="white" stop-opacity="0"/>
</linearGradient>
<linearGradient id="paint35_linear_414_3694" x1="0.93159" y1="0" x2="0.93159" y2="13.0423" gradientUnits="userSpaceOnUse">
<stop stop-color="white" stop-opacity="0"/>
<stop offset="0.49" stop-color="white" stop-opacity="0.5"/>
<stop offset="1" stop-color="white" stop-opacity="0"/>
</linearGradient>
<linearGradient id="paint36_linear_414_3694" x1="0.648063" y1="0" x2="0.648063" y2="14.2574" gradientUnits="userSpaceOnUse">
<stop stop-color="white" stop-opacity="0"/>
<stop offset="0.49" stop-color="white" stop-opacity="0.5"/>
<stop offset="1" stop-color="white" stop-opacity="0"/>
</linearGradient>
<linearGradient id="paint37_linear_414_3694" x1="0.648063" y1="0" x2="0.648063" y2="14.2574" gradientUnits="userSpaceOnUse">
<stop stop-color="white" stop-opacity="0"/>
<stop offset="0.49" stop-color="white" stop-opacity="0.5"/>
<stop offset="1" stop-color="white" stop-opacity="0"/>
</linearGradient>
<linearGradient id="paint38_linear_414_3694" x1="0.648063" y1="0" x2="0.648063" y2="9.07288" gradientUnits="userSpaceOnUse">
<stop stop-color="white" stop-opacity="0"/>
<stop offset="0.49" stop-color="white" stop-opacity="0.5"/>
<stop offset="1" stop-color="white" stop-opacity="0"/>
</linearGradient>
<linearGradient id="paint39_linear_414_3694" x1="0.648063" y1="0" x2="0.648063" y2="9.07288" gradientUnits="userSpaceOnUse">
<stop stop-color="white" stop-opacity="0"/>
<stop offset="0.49" stop-color="white" stop-opacity="0.5"/>
<stop offset="1" stop-color="white" stop-opacity="0"/>
</linearGradient>
<linearGradient id="paint40_linear_414_3694" x1="0.567055" y1="0" x2="0.567055" y2="12.4752" gradientUnits="userSpaceOnUse">
<stop stop-color="white" stop-opacity="0"/>
<stop offset="0.49" stop-color="white" stop-opacity="0.5"/>
<stop offset="1" stop-color="white" stop-opacity="0"/>
</linearGradient>
<linearGradient id="paint41_linear_414_3694" x1="0.567055" y1="0" x2="0.567055" y2="12.4752" gradientUnits="userSpaceOnUse">
<stop stop-color="white" stop-opacity="0"/>
<stop offset="0.49" stop-color="white" stop-opacity="0.5"/>
<stop offset="1" stop-color="white" stop-opacity="0"/>
</linearGradient>
<linearGradient id="paint42_linear_414_3694" x1="0.567055" y1="0" x2="0.567055" y2="7.93877" gradientUnits="userSpaceOnUse">
<stop stop-color="white" stop-opacity="0"/>
<stop offset="0.49" stop-color="white" stop-opacity="0.5"/>
<stop offset="1" stop-color="white" stop-opacity="0"/>
</linearGradient>
<linearGradient id="paint43_linear_414_3694" x1="0.567055" y1="0" x2="0.567055" y2="7.93877" gradientUnits="userSpaceOnUse">
<stop stop-color="white" stop-opacity="0"/>
<stop offset="0.49" stop-color="white" stop-opacity="0.5"/>
<stop offset="1" stop-color="white" stop-opacity="0"/>
</linearGradient>
<linearGradient id="paint44_linear_414_3694" x1="0.810078" y1="0" x2="0.810078" y2="17.8217" gradientUnits="userSpaceOnUse">
<stop stop-color="white" stop-opacity="0"/>
<stop offset="0.49" stop-color="white" stop-opacity="0.5"/>
<stop offset="1" stop-color="white" stop-opacity="0"/>
</linearGradient>
<linearGradient id="paint45_linear_414_3694" x1="0.810078" y1="0" x2="0.810078" y2="17.8217" gradientUnits="userSpaceOnUse">
<stop stop-color="white" stop-opacity="0"/>
<stop offset="0.49" stop-color="white" stop-opacity="0.5"/>
<stop offset="1" stop-color="white" stop-opacity="0"/>
</linearGradient>
<linearGradient id="paint46_linear_414_3694" x1="0.810078" y1="0" x2="0.810078" y2="11.3411" gradientUnits="userSpaceOnUse">
<stop stop-color="white" stop-opacity="0"/>
<stop offset="0.49" stop-color="white" stop-opacity="0.5"/>
<stop offset="1" stop-color="white" stop-opacity="0"/>
</linearGradient>
<linearGradient id="paint47_linear_414_3694" x1="0.810078" y1="0" x2="0.810078" y2="11.3411" gradientUnits="userSpaceOnUse">
<stop stop-color="white" stop-opacity="0"/>
<stop offset="0.49" stop-color="white" stop-opacity="0.5"/>
<stop offset="1" stop-color="white" stop-opacity="0"/>
</linearGradient>
<linearGradient id="paint48_linear_414_3694" x1="0.526551" y1="0" x2="0.526551" y2="11.5841" gradientUnits="userSpaceOnUse">
<stop stop-color="white" stop-opacity="0"/>
<stop offset="0.49" stop-color="white" stop-opacity="0.5"/>
<stop offset="1" stop-color="white" stop-opacity="0"/>
</linearGradient>
<linearGradient id="paint49_linear_414_3694" x1="0.526551" y1="0" x2="0.526551" y2="11.5841" gradientUnits="userSpaceOnUse">
<stop stop-color="white" stop-opacity="0"/>
<stop offset="0.49" stop-color="white" stop-opacity="0.5"/>
<stop offset="1" stop-color="white" stop-opacity="0"/>
</linearGradient>
<linearGradient id="paint50_linear_414_3694" x1="0.526551" y1="0" x2="0.526551" y2="7.37171" gradientUnits="userSpaceOnUse">
<stop stop-color="white" stop-opacity="0"/>
<stop offset="0.49" stop-color="white" stop-opacity="0.5"/>
<stop offset="1" stop-color="white" stop-opacity="0"/>
</linearGradient>
<linearGradient id="paint51_linear_414_3694" x1="0.526551" y1="0" x2="0.526551" y2="7.37171" gradientUnits="userSpaceOnUse">
<stop stop-color="white" stop-opacity="0"/>
<stop offset="0.49" stop-color="white" stop-opacity="0.5"/>
<stop offset="1" stop-color="white" stop-opacity="0"/>
</linearGradient>
</defs>
</svg>
