<svg width="38" height="38" viewBox="0 0 38 38" fill="none" xmlns="http://www.w3.org/2000/svg">
<path d="M20.0094 10.7437C20.0094 10.7437 20.3419 12.0262 18.9169 12.3587C17.67 12.6526 17.4088 11.3938 17.4088 11.3938C17.4088 11.3938 17.1327 10.1232 16.5627 9.99851C16.3459 9.95101 16.2984 10.0044 15.678 9.91241C14.6181 9.7521 14.3391 9.23851 14.25 8.77241C14.2203 8.62991 14.2084 8.49038 14.1995 8.36866C14.1847 8.19945 14.1698 8.06288 14.1105 7.9857C14.063 7.92335 13.4039 7.67101 13.493 7.35335C13.6117 6.93179 14.3895 6.59632 14.3569 6.20445C14.3599 6.10351 14.2945 5.77398 14.2856 5.72944C14.2233 5.35538 14.2441 4.83288 14.3628 4.31632C14.6894 2.89132 15.6186 1.81366 17.2128 1.66226C18.6408 1.53163 20.2736 2.59445 20.9416 3.8621C21.3691 4.67554 20.7486 6.77445 20.0183 7.88476C19.0683 9.33351 20.0094 10.7437 20.0094 10.7437Z" fill="#FFCA28"/>
<path d="M14.9862 8.61537C14.7606 8.76084 14.5053 8.8024 14.25 8.77271C14.2203 8.63021 14.2084 8.49068 14.1995 8.36896C14.4014 8.41053 14.6567 8.39865 14.8081 8.34818C15.0872 8.25318 15.2356 8.46099 14.9862 8.61537Z" fill="#795548"/>
<path d="M15.8261 6.51462C15.8372 6.22627 15.6948 5.98669 15.508 5.97951C15.3212 5.97233 15.1608 6.20027 15.1498 6.48863C15.1387 6.77698 15.2811 7.01656 15.4679 7.02374C15.6547 7.03092 15.8151 6.80298 15.8261 6.51462Z" fill="#404040"/>
<path d="M15.3009 5.77407C14.9744 5.88094 14.8883 5.66719 14.9952 5.4861C15.0723 5.35547 15.2683 5.23969 15.6572 5.30203C16.0223 5.36141 16.1797 5.56625 16.2806 5.69094C16.3816 5.81563 16.3756 5.94328 16.2925 5.95516C16.1767 5.97891 15.7047 5.64344 15.3009 5.77407Z" fill="#6D4C41"/>
<path d="M29.3491 24.5338L23.8361 25.6352L22.3012 20.3301L18.6111 22.803L21.3008 28.2062L21.3126 28.1973C21.5382 28.5974 21.9093 28.8951 22.3487 29.0285C22.4823 29.0701 22.6159 29.0938 22.7525 29.1027V29.1087L22.797 29.1057C22.9633 29.1146 23.1266 29.1027 23.2839 29.0701L30.0883 26.4843L29.3491 24.5338Z" fill="#616161"/>
<path d="M30.5306 23.4029C30.4356 23.2426 30.2308 23.1921 30.0705 23.2871L29.3669 23.7087C28.8889 23.9937 28.6306 24.8041 28.6306 24.8041L29.6756 26.5587L31.1392 27.8293C31.5162 28.1232 32.0358 28.1559 32.4484 27.9154L32.7661 27.7284C32.9056 27.6452 32.9531 27.4641 32.87 27.3246L30.5306 23.4029Z" fill="#325599"/>
<path d="M13.3178 33.7845L16.7052 27.3127C16.7052 27.3127 20.9238 23.8214 21.2919 23.575C22.6664 22.6547 22.9395 21.3752 22.803 20.4459C22.6961 19.7245 22.2181 18.7656 22.2181 18.7656L16.6814 20.4162L16.9427 21.4316C16.9427 21.4316 15.2475 23.6225 14.8527 24.0797C14.4578 24.5369 13.781 25.1752 13.2555 26.9772C12.7003 28.8772 11.308 33.458 11.308 33.458L13.3178 33.7845Z" fill="#7C7C7C"/>
<path d="M13.3148 35.8C13.4989 35.8297 13.6711 35.705 13.7008 35.5239L13.8314 34.7134C13.9234 34.1642 13.4692 33.4458 13.4692 33.4458L11.4534 33.1133L9.53859 33.4131C9.06953 33.5141 8.71031 33.8881 8.63016 34.3602L8.56781 34.7253C8.54109 34.8856 8.64797 35.037 8.80828 35.0637L13.3148 35.8Z" fill="#4568AD"/>
<path d="M14.8616 14.5529L12.2016 12.5282L10.9072 13.9117L13.5909 16.5123L13.5939 16.5093C14.1194 17.0585 15.3514 17.4326 16.3756 16.5004C17.3494 15.6128 18.5517 13.7217 18.5517 13.7217L16.4706 12.0532L14.8616 14.5529Z" fill="url(#paint0_linear_1177_16012)"/>
<path d="M14.9239 13.3417C15.6869 15.4762 17.5572 15.5415 17.5572 15.5415L19.0475 12.9884C19.2399 12.6584 19.2936 12.2655 19.1967 11.896C19.0999 11.5264 18.8605 11.2104 18.531 11.0171L18.2845 10.8717C17.5988 10.4709 17.0169 10.6668 16.0936 12.0146C15.2653 13.2289 14.9239 13.3417 14.9239 13.3417Z" fill="#ED6D23"/>
<path d="M16.6814 20.413C15.9452 17.4917 15.8086 15.4403 15.9749 13.7956C16.1886 11.7234 17.1772 10.4855 18.2875 10.0936C19.6591 9.60969 20.6091 10.3073 20.992 11.5483C21.2533 12.3944 21.2028 13.0445 21.182 13.4483C21.182 13.4483 20.992 15.6659 22.7555 18.4417C22.7555 18.4417 22.5863 19.647 19.7719 20.3091C18.5191 20.603 16.6814 20.413 16.6814 20.413Z" fill="url(#paint1_linear_1177_16012)"/>
<path d="M21.2147 17.6967C21.2147 17.6967 19.9262 17.0555 19.9114 17.0495C19.8728 17.0288 19.8305 17.0158 19.7869 17.0114C19.7433 17.0071 19.6993 17.0113 19.6574 17.024C19.6155 17.0367 19.5764 17.0576 19.5426 17.0854C19.5087 17.1132 19.4807 17.1474 19.4602 17.1861L19.1841 17.7027C19.1395 17.7888 19.1366 17.8838 19.1662 17.9699C19.0178 18.0559 18.6527 18.2816 18.5755 18.433C18.4864 18.6052 18.5873 18.7863 18.6823 18.8278C18.7922 18.8753 18.8427 19.0297 18.81 19.1455C18.7744 19.2642 18.7773 19.3859 18.8337 19.4839C18.8902 19.5819 18.9614 19.6205 19.098 19.6472C19.1633 19.6591 19.2316 19.7422 19.2316 19.8075C19.2286 19.9084 19.2286 20.0836 19.2791 20.1489C19.38 20.2825 19.5462 20.241 19.6323 20.3389C19.665 20.3775 19.668 20.5467 19.7362 20.6091C19.9381 20.7991 20.5942 20.4488 20.5942 20.4488L21.847 19.288L21.2147 17.6967Z" fill="#EDA600"/>
<path d="M20.7991 17.4946L21.5917 17.7173L22.135 19.2165C22.135 19.2165 20.4398 20.8849 20.1519 20.4188C20.0598 20.2734 20.2291 20.116 19.9827 20.024C19.8075 19.9587 19.6769 19.8756 19.7273 19.6054C19.7481 19.5045 19.668 19.3798 19.5967 19.3709C19.2761 19.3323 19.193 19.1542 19.288 18.9285C19.3414 18.8038 19.3295 18.5931 19.1484 18.4981C19.0831 18.4624 18.9911 18.317 19.0327 18.1092C19.1009 17.7856 20.7991 17.4946 20.7991 17.4946Z" fill="url(#paint2_linear_1177_16012)"/>
<path d="M21.8886 19.4039L24.8247 17.4238V17.4208C25.178 17.0705 25.3027 16.8271 25.3739 16.5332C25.5995 15.6129 24.9999 14.9716 24.9999 14.9716L22.2834 11.9346L20.6091 13.6654L22.9959 16.0522L21.2117 17.6999L21.8886 19.4039Z" fill="url(#paint3_linear_1177_16012)"/>
<path d="M21.948 15.4404C21.948 15.4404 23.747 13.6621 23.6995 12.2935C23.6995 12.2935 22.8416 12.2906 21.565 11.3257C20.7605 10.7201 19.6917 10.6696 19.2613 11.3762C18.8783 11.9996 18.9406 12.7685 19.6769 13.6503C20.2291 14.3063 21.948 15.4404 21.948 15.4404Z" fill="#ED6D23"/>
<path d="M10.7736 12.8816L10.7647 12.8876C10.637 13.0479 10.4173 13.0924 10.2748 12.9826L9.69593 12.5462C9.55343 12.4393 9.54156 12.2196 9.66922 12.0593C9.79687 11.899 10.0166 11.8544 10.1591 11.9643L10.738 12.4007C10.8834 12.5105 10.9042 12.7213 10.7736 12.8816Z" fill="url(#paint4_linear_1177_16012)"/>
<path d="M11.2605 11.0556C11.2694 11.0616 11.2724 11.0675 11.2724 11.0675C11.5366 11.3495 11.7711 11.5841 11.872 11.6464C12.1392 11.8156 12.3886 12.0294 12.543 12.3292C12.8309 12.8903 12.4628 13.4425 12.0324 13.8492C11.6049 14.2589 11.3347 14.348 10.8686 14.2708C10.4886 14.2084 9.68407 13.3564 9.68407 13.3564C9.60095 13.2584 9.50595 13.1575 9.41095 13.0625C9.37532 13.0269 9.33673 12.9912 9.3011 12.9527L9.29813 12.9497C9.18829 12.8428 9.17345 12.7003 9.29517 12.5519C9.45548 12.3559 9.61282 12.4569 9.63063 12.4717L9.6336 12.4747C9.70782 12.543 9.78798 12.635 9.84735 12.6795C10.0195 12.8072 10.1145 12.8309 10.1145 12.8309L10.928 11.7978L10.6519 11.4297C10.6519 11.4297 10.6489 11.4237 10.64 11.4148C10.6103 11.3673 10.4945 11.1981 10.7142 10.9992C10.9577 10.7914 11.21 11.0081 11.2605 11.0556Z" fill="url(#paint5_linear_1177_16012)"/>
<path d="M11.2338 12.4567C11.0913 12.6081 10.8686 12.6318 10.735 12.5131L10.1205 11.9639C9.9869 11.8451 9.99283 11.6254 10.1353 11.474C10.2778 11.3226 10.5005 11.2989 10.6341 11.4176L11.2486 11.9668C11.3792 12.0886 11.3733 12.3053 11.2338 12.4567Z" fill="url(#paint6_linear_1177_16012)"/>
<path d="M10.4352 12.5459C10.5688 12.3529 10.732 12.1154 10.9131 11.9106C10.9398 11.8809 10.9636 11.8542 10.9903 11.8274C11.2397 11.5692 11.5663 11.5246 11.9759 11.7473C11.9908 11.7562 12.0027 11.7621 12.0175 11.771C12.0413 11.7859 12.065 11.8007 12.0917 11.8156L12.0947 11.8185C12.1303 11.8423 12.1659 11.866 12.2016 11.8928C12.3233 11.9818 12.4153 12.0917 12.4717 12.1985C12.6973 12.5578 12.632 12.8992 12.632 12.8992C12.632 12.8992 12.3708 13.6948 11.9848 13.5553C11.5989 13.4157 11.4 12.8665 11.4 12.8665L11.5009 12.4687C11.3852 12.4568 11.2842 12.5073 11.1477 12.6617C11.1031 12.7121 11.0527 12.7745 10.9933 12.8487C10.9873 12.8576 10.9131 12.9496 10.9072 12.9556C10.8181 13.0535 10.7172 13.101 10.5955 13.0921C10.4381 13.0832 10.3045 12.9318 10.2303 12.8724C10.2867 12.8012 10.3609 12.6498 10.4352 12.5459Z" fill="url(#paint7_linear_1177_16012)"/>
<path d="M10.26 13.463L10.7409 13.0682L10.9963 12.7773L11.3288 12.4863L11.4445 12.5368L11.3733 12.9168L11.6227 13.2909L11.78 13.4245L10.9636 14.0034L10.26 13.463Z" fill="url(#paint8_radial_1177_16012)"/>
<path d="M10.2927 13.2464C10.2837 13.4305 10.1056 13.5314 10.1175 13.5344C10.168 13.5552 10.4173 13.4928 10.6934 13.1841C10.9072 12.9436 11.112 12.6319 11.3614 12.5577C11.2753 12.9792 11.4623 13.3028 11.8067 13.4305C11.5425 13.1841 11.3287 12.7685 11.5692 12.436C11.3733 12.3172 11.1447 12.5131 11.0289 12.6556C10.8953 12.816 10.7766 13.0653 10.5302 13.0327C10.3609 13.0119 10.2986 12.905 10.358 12.7447C10.5064 12.3528 10.8537 11.9521 11.21 11.7294C11.3406 11.6492 11.6078 11.6285 11.9522 11.6967C11.6998 11.5008 11.2694 11.5631 11.1061 11.6403C10.9666 11.7056 11.0022 11.6789 10.8775 11.5988C10.8152 11.5572 10.7528 11.5156 10.6934 11.4771C10.7439 11.5602 10.833 11.6611 10.8478 11.7591C10.8656 11.8808 10.7498 11.9847 10.6786 12.0708C10.4945 12.2905 10.3342 12.1005 10.1442 11.9817C10.2719 12.1331 10.3016 12.1806 10.3669 12.2875C10.453 12.433 10.3223 12.5517 10.2273 12.6646C10.0344 12.8961 9.63656 12.4241 9.60984 12.4538C9.58015 12.4894 10.3016 13.0446 10.2927 13.2464Z" fill="#EDA600"/>
<path d="M21.847 3.80588C21.473 2.81431 20.6803 2.50259 20.422 2.42541C20.3063 2.06619 19.7155 0.703533 17.4741 1.0301C16.9278 1.11025 16.527 1.3626 16.1708 1.58525C16.0194 1.68025 15.8739 1.77228 15.7403 1.83166C15.6305 1.88213 15.4375 1.92666 15.2802 1.87025C14.9209 1.74556 15.0486 1.20228 15.0486 1.20228C15.0486 1.20228 13.7245 1.43978 14.2708 2.72525C13.8255 2.91228 13.6117 3.37838 13.5256 3.81775C13.4069 4.41744 13.6919 4.99931 14.2648 5.2665C14.2648 5.2665 14.1669 4.29572 15.5652 4.37884C15.9986 4.40556 16.4498 4.47978 16.8566 4.32541C17.0109 4.26603 17.1564 4.17103 17.3078 4.09978H17.3613C17.8867 4.39369 17.1653 5.62869 17.7413 6.37088C17.8541 6.51634 17.955 6.46588 17.955 6.46588L18.1984 6.12447C18.3825 5.88994 18.5488 5.68509 18.7714 5.73853C19.4275 5.89588 19.288 7.06853 18.5013 7.31494C18.4241 7.33869 18.5814 8.65384 20.2023 8.68353C21.0395 8.69838 21.3483 8.00963 21.3483 8.00963C21.3483 8.00963 20.9891 8.09275 20.9178 7.78697C20.8792 7.62963 21.0277 7.41884 21.2948 7.19025C22.0608 6.53119 21.8025 5.75634 21.6956 5.51291C21.8084 5.29322 22.138 4.58072 21.847 3.80588Z" fill="#543930"/>
<path d="M21.6897 5.51598C21.7045 5.48926 21.4463 6.10676 20.3775 5.98504C19.9381 5.97614 19.3058 7.02707 19.9352 7.73957C20.4933 8.36895 21.3424 8.0127 21.3424 8.0127C21.3424 8.0127 21.2266 8.04536 21.0574 7.98301C20.9475 7.94145 20.9119 7.79895 20.9119 7.79301C20.8733 7.63567 21.0217 7.42489 21.2889 7.19629C22.0549 6.53129 21.7966 5.75645 21.6897 5.51598Z" fill="url(#paint9_radial_1177_16012)"/>
<path d="M21.847 3.80572C21.6511 3.28322 21.28 2.84088 20.7872 2.57963C20.7159 2.54103 20.5408 2.45197 20.4191 2.42822C20.4725 2.65979 20.4636 2.90619 20.3597 3.15557C20.3567 3.16447 20.238 3.53854 19.9084 3.83541C20.137 4.16494 20.2499 4.56275 20.3538 4.95463C20.4458 5.29604 20.5319 5.6701 20.3775 5.98775C20.5824 5.97885 20.9089 6.04119 21.2711 5.88682C21.6184 5.73838 21.8055 5.34353 21.8975 4.99025C21.9955 4.59838 21.9895 4.18572 21.847 3.80572Z" fill="url(#paint10_radial_1177_16012)"/>
<path d="M20.3567 3.15583C20.6269 2.49677 20.2736 1.87927 19.7303 1.46067C19.092 0.97083 18.243 0.917393 17.4741 1.03021C16.9278 1.11036 16.527 1.36271 16.1708 1.58536C16.0194 1.68036 15.8739 1.77239 15.7403 1.83177C15.6305 1.88224 15.4375 1.92677 15.2802 1.87036C14.9209 1.74567 15.0486 1.20239 15.0486 1.20239C15.0486 1.20239 13.7245 1.43989 14.2708 2.72536C13.8255 2.91239 13.6117 3.37849 13.5256 3.81786C13.4069 4.41755 13.6919 4.99942 14.2648 5.26661C14.2648 5.26661 14.1669 4.29583 15.5652 4.37896C15.9986 4.40567 16.4498 4.47989 16.8566 4.32552C17.2158 4.18896 17.3405 3.99896 17.7383 4.02864C18.1688 4.0613 18.7388 4.23349 19.1811 4.17411C20.0777 4.05239 20.3538 3.16771 20.3567 3.15583Z" fill="url(#paint11_radial_1177_16012)"/>
<path d="M19.9352 7.73951C19.6531 7.42779 19.5848 6.92311 19.1395 6.64404C19.0505 6.93498 18.8337 7.21107 18.4983 7.31498C18.4211 7.33873 18.5784 8.65389 20.1994 8.68357C21.0366 8.69842 21.3453 8.00967 21.3453 8.00967C21.3453 8.00967 20.5052 8.36592 19.9352 7.73951Z" fill="url(#paint12_radial_1177_16012)"/>
<defs>
<linearGradient id="paint0_linear_1177_16012" x1="10.9675" y1="14.2988" x2="15.9383" y2="14.5749" gradientUnits="userSpaceOnUse">
<stop offset="0.598" stop-color="#FFCA28"/>
<stop offset="1" stop-color="#FFB300"/>
</linearGradient>
<linearGradient id="paint1_linear_1177_16012" x1="15.6679" y1="14.5118" x2="23.2635" y2="16.6536" gradientUnits="userSpaceOnUse">
<stop stop-color="#F78C1F"/>
<stop offset="0.482" stop-color="#F47F12"/>
<stop offset="1" stop-color="#EF6C00"/>
</linearGradient>
<linearGradient id="paint2_linear_1177_16012" x1="21.8046" y1="18.2558" x2="19.8716" y2="19.1945" gradientUnits="userSpaceOnUse">
<stop offset="0.598" stop-color="#FFCA28"/>
<stop offset="1" stop-color="#FFB300"/>
</linearGradient>
<linearGradient id="paint3_linear_1177_16012" x1="24.138" y1="17.9062" x2="21.7078" y2="15.2551" gradientUnits="userSpaceOnUse">
<stop offset="0.598" stop-color="#FFCA28"/>
<stop offset="1" stop-color="#FFB300"/>
</linearGradient>
<linearGradient id="paint4_linear_1177_16012" x1="10.5121" y1="12.1759" x2="9.91673" y2="12.7771" gradientUnits="userSpaceOnUse">
<stop offset="0.5" stop-color="#FFCA28"/>
<stop offset="1" stop-color="#FFB300"/>
</linearGradient>
<linearGradient id="paint5_linear_1177_16012" x1="10.1404" y1="13.8062" x2="11.9969" y2="11.7208" gradientUnits="userSpaceOnUse">
<stop stop-color="#FFB300"/>
<stop offset="0.138" stop-color="#FFCA28"/>
<stop offset="0.831" stop-color="#FFCA28"/>
</linearGradient>
<linearGradient id="paint6_linear_1177_16012" x1="10.972" y1="11.6876" x2="10.3914" y2="12.248" gradientUnits="userSpaceOnUse">
<stop offset="0.5" stop-color="#FFCA28"/>
<stop offset="1" stop-color="#FFB300"/>
</linearGradient>
<linearGradient id="paint7_linear_1177_16012" x1="10.9756" y1="12.2014" x2="12.4475" y2="13.3237" gradientUnits="userSpaceOnUse">
<stop offset="0.5" stop-color="#FFCA28"/>
<stop offset="1" stop-color="#FFB300"/>
</linearGradient>
<radialGradient id="paint8_radial_1177_16012" cx="0" cy="0" r="1" gradientUnits="userSpaceOnUse" gradientTransform="translate(11.0838 12.9257) scale(0.92239)">
<stop stop-color="#FFB300"/>
<stop offset="1" stop-color="#FFCA28"/>
</radialGradient>
<radialGradient id="paint9_radial_1177_16012" cx="0" cy="0" r="1" gradientUnits="userSpaceOnUse" gradientTransform="translate(19.6622 7.02218) rotate(21.3098) scale(2.11636 3.04794)">
<stop offset="0.45" stop-color="#6D4C41" stop-opacity="0"/>
<stop offset="1" stop-color="#6D4C41"/>
</radialGradient>
<radialGradient id="paint10_radial_1177_16012" cx="0" cy="0" r="1" gradientUnits="userSpaceOnUse" gradientTransform="translate(19.9435 4.90223) rotate(-6.6787) scale(2.14519 2.70696)">
<stop offset="0.45" stop-color="#6D4C41" stop-opacity="0"/>
<stop offset="1" stop-color="#6D4C41"/>
</radialGradient>
<radialGradient id="paint11_radial_1177_16012" cx="0" cy="0" r="1" gradientUnits="userSpaceOnUse" gradientTransform="translate(17.5519 4.08856) rotate(-7.776) scale(4.4154 3.31869)">
<stop offset="0.45" stop-color="#6D4C41" stop-opacity="0"/>
<stop offset="1" stop-color="#6D4C41"/>
</radialGradient>
<radialGradient id="paint12_radial_1177_16012" cx="0" cy="0" r="1" gradientUnits="userSpaceOnUse" gradientTransform="translate(20.1583 7.303) rotate(15.3024) scale(2.37696 1.52823)">
<stop offset="0.45" stop-color="#6D4C41" stop-opacity="0"/>
<stop offset="1" stop-color="#6D4C41"/>
</radialGradient>
</defs>
</svg>
