<svg width="38" height="38" viewBox="0 0 38 38" fill="none" xmlns="http://www.w3.org/2000/svg">
<g clip-path="url(#clip0_1177_16000)">
<path d="M34.3185 14.9736C34.281 7.04569 27.3981 1.94606 21.1034 2.10876C14.0828 2.10876 8.36373 7.82157 8.36373 14.8484V16.5003C8.36373 16.7382 8.28242 16.9696 8.1322 17.1574L4.83463 21.2933H7.29999C7.8819 21.2933 8.35743 21.7626 8.35743 22.3508V29.3964H12.7562C13.3381 29.3964 13.8136 29.8656 13.8136 30.4538V35.8788H27.6796V35.8037C27.6796 31.0232 29.2126 26.2551 32.1098 22.0066C33.5301 19.9293 34.2935 17.4953 34.3185 14.9736Z" fill="white"/>
<path d="M21.1095 0C12.9189 0 6.26121 6.65768 6.26121 14.8483V16.1373L1.82489 21.7C1.17416 22.4195 1.94375 23.5083 2.64461 23.4145H6.24873V30.4601C6.24873 31.042 6.71797 31.5175 7.30617 31.5175H11.7049V36.9425C11.7049 37.5244 12.1742 37.9999 12.7624 37.9999H28.737C29.3189 37.9999 29.7944 37.5307 29.7944 36.9425V35.8036C29.7944 31.4486 31.2022 27.0873 33.8554 23.1953C35.5073 20.7738 36.3958 17.9393 36.4208 14.9921C36.2833 5.83796 29.294 0.187678 21.1095 0ZM27.6921 35.885H13.8262V30.4601C13.8262 29.8782 13.357 29.4026 12.7688 29.4026H8.3699V22.3633C8.3699 21.7814 7.90066 21.3059 7.31246 21.3059H4.84709L8.14467 17.1699C8.29489 16.9822 8.37619 16.7507 8.37619 16.5129V14.8609C8.37619 7.84037 14.089 2.12127 21.1158 2.12127C27.4044 1.95857 34.2935 7.0582 34.331 14.9861C34.306 17.5078 33.5427 19.9418 32.1347 22.0254C29.2377 26.2741 27.7046 31.0483 27.7046 35.8225V35.885H27.6921Z" fill="#194F82"/>
<path d="M21.2535 4.21729C15.1715 4.21729 10.4848 8.97902 10.4848 14.8482V17.6077L9.22711 19.1845H10.4848V27.2938H15.9348V33.7763H25.6648C26.0402 29.2649 27.6483 24.8223 30.3765 20.8239C31.559 19.0907 32.2912 17.0633 32.2098 14.9609C31.9095 6.71392 25.0516 4.21729 21.2535 4.21729Z" fill="#FFC10D"/>
<path d="M20.7341 15.5806C19.5828 15.5806 18.6505 16.5129 18.6505 17.6642C18.6505 18.8155 19.5828 19.7478 20.7341 19.7478C21.8854 19.7478 22.8177 18.8155 22.8177 17.6642C22.8178 16.5129 21.8854 15.5806 20.7341 15.5806Z" fill="#56ACE0"/>
<path d="M15.3341 7.95288C14.7585 7.95288 14.2955 8.41593 14.2955 8.99155C14.2955 9.56716 14.7585 10.0302 15.3341 10.0302C15.9098 10.0302 16.3728 9.56716 16.3728 8.99155C16.3791 8.42212 15.9099 7.95288 15.3341 7.95288Z" fill="white"/>
<path d="M27.617 9.46704C27.0414 9.46704 26.5784 9.93009 26.5784 10.5057C26.5784 11.0813 27.0414 11.5444 27.617 11.5444C28.1927 11.5444 28.6557 11.0813 28.6557 10.5057C28.6558 9.93638 28.1927 9.46704 27.617 9.46704Z" fill="#56ACE0"/>
<path d="M21.6727 26.2803C21.0971 26.2803 20.634 26.7433 20.634 27.3189C20.634 27.8946 21.0971 28.3576 21.6727 28.3576C22.2483 28.3576 22.7114 27.8946 22.7114 27.3189C22.7114 26.7433 22.2484 26.2803 21.6727 26.2803Z" fill="white"/>
<path d="M27.617 7.35848C25.8838 7.35848 24.4697 8.7726 24.4697 10.5058C24.4697 11.0126 24.5885 11.4883 24.8076 11.9137L22.8052 13.9973C22.1983 13.6531 21.4975 13.4591 20.7466 13.4591C20.3148 13.4591 19.8893 13.5279 19.4889 13.6531L17.8057 10.9437C18.2312 10.4056 18.494 9.72357 18.494 8.98525C18.494 7.25201 17.0798 5.83789 15.3466 5.83789C13.6134 5.83789 12.1992 7.25201 12.1992 8.98525C12.1992 10.7185 13.6134 12.1326 15.3466 12.1326C15.5781 12.1326 15.8034 12.1013 16.0224 12.0575L17.7056 14.7669C16.9861 15.524 16.548 16.5314 16.548 17.6514C16.548 19.7351 18.0872 21.4746 20.0833 21.7937L20.3399 24.4592C19.2698 24.9599 18.5253 26.0548 18.5253 27.3063C18.5253 29.0395 19.9394 30.4536 21.6727 30.4536C23.4059 30.4536 24.82 29.0395 24.82 27.3063C24.82 25.8358 23.8002 24.5969 22.4361 24.2528L22.1795 21.5873C23.7876 20.9991 24.9389 19.4536 24.9389 17.6452C24.9389 16.8381 24.7074 16.0872 24.3131 15.4553L26.3155 13.3716C26.7097 13.5531 27.1477 13.6532 27.6107 13.6532C29.344 13.6532 30.7581 12.2391 30.7581 10.4995C30.7645 8.7726 29.3503 7.35848 27.617 7.35848ZM15.3341 10.0366C14.7585 10.0366 14.2955 9.57354 14.2955 8.99793C14.2955 8.42231 14.7585 7.95926 15.3341 7.95926C15.9097 7.95926 16.3728 8.42231 16.3728 8.99793C16.3791 9.56725 15.9098 10.0366 15.3341 10.0366ZM21.6727 28.3639C21.0971 28.3639 20.634 27.9009 20.634 27.3252C20.634 26.7496 21.0971 26.2866 21.6727 26.2866C22.2483 26.2866 22.7113 26.7496 22.7113 27.3252C22.7114 27.8947 22.2484 28.3639 21.6727 28.3639ZM20.7341 19.754C19.5828 19.754 18.6505 18.8217 18.6505 17.6704C18.6505 16.5191 19.5828 15.5868 20.7341 15.5868C21.8854 15.5868 22.8177 16.5191 22.8177 17.6704C22.8177 18.8217 21.8854 19.754 20.7341 19.754ZM27.617 11.5571C27.0414 11.5571 26.5783 11.094 26.5783 10.5184C26.5783 9.9428 27.0414 9.47975 27.617 9.47975C28.1926 9.47975 28.6557 9.9428 28.6557 10.5184C28.6558 11.0816 28.1927 11.5571 27.617 11.5571Z" fill="#194F82"/>
</g>
<defs>
<clipPath id="clip0_1177_16000">
<rect width="38" height="38" fill="white"/>
</clipPath>
</defs>
</svg>
